<?xml version="1.0" standalone="no"?><!DOCTYPE svg PUBLIC "-//W3C//DTD SVG 1.1//EN" "http://www.w3.org/Graphics/SVG/1.1/DTD/svg11.dtd">
<svg t="1742993683545" class="icon" viewBox="0 0 1068 1024" version="1.1" xmlns="http://www.w3.org/2000/svg" p-id="3173"
     width="208.59375" height="200"><path d="M816.79980406 373.97325271l-85.67997843 45.83998874a11.75999719 11.75999719 0 0 0-11.51999719-9.83999718H346.15992125a11.99999719 11.99999719 0 0 0-11.51999719 9.83999718l-85.43997844-45.83998875V209.33329396h119.99997a11.99999719 11.99999719 0 0 0 11.99999719-11.99999625V77.3333277H816.79980406z" fill="#FFFFFF" p-id="3174"></path><path d="M458.95989313 259.01328177h260.63993531a11.99999719 11.99999719 0 0 0 11.99999625-11.99999719 11.99999719 11.99999719 0 0 0-11.99999625-11.99999625H458.95989313a11.99999719 11.99999719 0 0 0-11.99999719 11.99999625 11.99999719 11.99999719 0 0 0 11.99999719 11.99999719zM719.59982844 322.37326583H346.15992125a12.23999719 12.23999719 0 0 0-11.99999719 11.99999719 11.99999719 11.99999719 0 0 0 11.99999719 11.99999719h373.43990719a11.99999719 11.99999719 0 0 0 11.99999625-11.99999719 11.99999719 11.99999719 0 0 0-11.99999625-11.99999719z" fill="#37474F" p-id="3175"></path><path d="M1032.31974969 479.33322645L943.99977219 319.25326677a11.03999719 11.03999719 0 0 0-1.68-1.67999907 4.55999906 4.55999906 0 0 0-1.67999906-1.44L840.7997975 261.41328177V65.33333052a11.99999719 11.99999719 0 0 0-11.99999625-11.99999719H365.83991656a11.99999719 11.99999719 0 0 0-5.27999906 3.11999906l-131.99996625 132.23996719a11.03999719 11.03999719 0 0 0-2.88 5.51999813 3.11999906 3.11999906 0 0 0 0 1.44V261.41328177l-99.83997469 53.03998594-2.63999906 2.88h-1.44L33.44 479.33322645a11.99999719 11.99999719 0 0 0 0 9.11999813 13.19999625 13.19999625 0 0 0 5.75999813 7.19999812l81.35997937 43.19998969v248.39993719a12.23999719 12.23999719 0 0 0 6.23999906 10.55999719l401.51989969 214.07994656a11.03999719 11.03999719 0 0 0 5.51999812 1.44 11.99999719 11.99999719 0 0 0 5.75999907-1.44L939.91977313 797.33314771a11.99999719 11.99999719 0 0 0 6.47999812-10.55999813V538.85321239l81.11998031-43.19998968a12.71999719 12.71999719 0 0 0 5.99999813-7.19999813 11.99999719 11.99999719 0 0 0-1.2-9.11999812z m-123.59996906-154.31996062l-67.91998313 36.23999063v-71.99998219z m-91.91997657 47.99998781l-85.67997843 45.83998875a11.75999719 11.75999719 0 0 0-11.51999719-9.83999812H346.15992125a11.99999719 11.99999719 0 0 0-11.51999719 9.83999812l-85.43997844-44.87998968V209.33329396h119.99997a11.99999719 11.99999719 0 0 0 11.99999719-11.99999625V77.3333277H816.79980406z m-283.91992968 152.39996156l-171.59995688-91.4399775H703.99983219z m-175.91995594-431.99989218V185.33330052H265.99994188zM225.19995125 361.25325645l-68.15998219-36.23999062 68.15998219-36.23999156zM136.39997375 341.33326114l380.15990531 202.79994938L439.99989781 682.85317583 60.3199925 480.05322646z m7.19999813 210.7199475L439.99989781 709.73316927a11.03999719 11.03999719 0 0 0 5.51999907 1.44 12.23999719 12.23999719 0 0 0 10.55999718-6.23999907l65.03998407-119.99996999v396.47990156L143.59997187 780.05315145z m778.79980593 227.99994281l-377.51990625 201.35995032V585.89320021l65.03998406 119.99996999a12.23999719 12.23999719 0 0 0 10.55999719 6.23999813 12.71999719 12.71999719 0 0 0 5.75999906-1.43999906l296.15992594-158.87996063z m-297.11992594-97.19997562l-76.07998125-138.95996531L929.59977594 341.33326114l75.83998031 138.95996532z" fill="#37474F" p-id="3176"></path><path d="M908.71978062 325.01326583l-67.91998312 36.23999063V288.77327427l67.91998313 36.23999156z" fill="#29B6F6" p-id="3177"></path><path d="M532.87987437 525.4132152l-171.59995687-91.43997749h343.19991469l-171.59995782 91.4399775z" fill="#FFFFFF" p-id="3178"></path><path d="M356.95991844 94.37332302V185.33330052H265.99994188l90.95997656-90.9599775zM224.95995219 361.25325645l-67.91998313-36.23999062 67.91998313-36.23999156v72.47998218z" fill="#29B6F6" p-id="3179"></path><path d="M136.39997375 341.09326114l380.15990531 202.79994938-76.07998125 138.95996531-380.15990531-202.79994937 76.07998125-138.95996532z" fill="#FFB74D" p-id="3180"></path><path d="M143.59997187 551.81320864L439.99989781 709.73316927a11.03999719 11.03999719 0 0 0 5.51999907 1.44 12.23999719 12.23999719 0 0 0 10.55999718-6.23999907l65.03998407-119.99996999v396.47990156L143.59997187 780.05315145zM922.39977781 780.05315145l-377.51990625 201.35995032V585.89320021l65.03998407 119.99996999a12.23999719 12.23999719 0 0 0 10.55999718 6.23999813 12.71999719 12.71999719 0 0 0 5.75999907-1.43999906l296.15992593-158.87996063z" fill="#FFB74D" p-id="3181"></path><path d="M625.27985187 682.85317583l-76.07998124-138.95996531 380.39990531-202.79994938 75.83998031 138.95996532-380.15990437 202.79994937z" fill="#FFB74D" p-id="3182"></path></svg>