<?xml version="1.0" standalone="no"?><!DOCTYPE svg PUBLIC "-//W3C//DTD SVG 1.1//EN" "http://www.w3.org/Graphics/SVG/1.1/DTD/svg11.dtd">
<svg t="1742988263185" class="icon" viewBox="0 0 1024 1024" version="1.1" xmlns="http://www.w3.org/2000/svg"
     p-id="10874"
     width="200" height="200"><path d="M776.82005333 979.54474667H258.10261333c-114.41493333 0-207.14837333-92.73344-207.14837333-207.14837334V253.67893333c0-114.41493333 92.73344-207.14837333 207.14837333-207.14837333h518.66282667c114.41493333 0 207.14837333 92.73344 207.14837333 207.14837333v518.66282667c0.05461333 114.41493333-92.67882667 207.20298667-207.09376 207.20298667z" fill="#FC5656" p-id="10875"></path><path d="M812.70101333 423.03488c15.07328 0 27.30666667-12.23338667 27.30666667-27.30666667v-29.32736c0-50.46272-29.81888-96.28330667-75.96714667-116.70869333L573.16693333 165.20533333a127.811584 127.811584 0 0 0-103.27381333 0L278.96490667 249.74677333a127.71874133 127.71874133 0 0 0-75.96714667 116.70869334v274.10432c0 45.43829333 24.46677333 87.81824 63.78837333 110.53738666l190.8736 110.20970667c19.6608 11.35957333 41.72458667 17.03936 63.78837334 17.03936s44.12757333-5.67978667 63.78837333-17.03936l190.8736-110.20970667c39.37621333-22.71914667 63.78837333-65.09909333 63.78837333-110.53738666V531.6608c0-15.07328-12.23338667-27.30666667-27.30666666-27.30666667s-27.30666667 12.23338667-27.30666667 27.30666667v108.84437333c0 25.99594667-13.98101333 50.24426667-36.48170667 63.24224l-190.8736 110.20970667a73.23648 73.23648 0 0 1-73.01802666 0L294.0928 703.74741333a73.252864 73.252864 0 0 1-36.48170667-63.24224V366.45546667c0-28.89045333 17.03936-55.10485333 43.47221334-66.73749334l190.8736-84.48682666c18.78698667-8.30122667 40.30464-8.30122667 59.09162666 0l190.8736 84.48682666c26.37824 11.68725333 43.47221333 37.90165333 43.47221334 66.73749334v29.32736c0 15.07328 12.23338667 27.25205333 27.30666666 27.25205333z" fill="#F7F8F8" p-id="10876"></path><path d="M521.50272 698.99605333c15.07328 0 27.30666667-12.23338667 27.30666667-27.30666666V616.31146667h57.50784c15.07328 0 27.30666667-12.23338667 27.30666666-27.30666667s-12.23338667-27.30666667-27.30666666-27.30666667h-57.50784v-42.43456c41.23306667-11.90570667 71.48885333-49.86197333 71.48885333-94.86336 0-54.44949333-44.29141333-98.79552-98.79552-98.79552s-98.79552 44.29141333-98.79552 98.79552c0 45.00138667 30.25578667 82.95765333 71.48885333 94.86336v152.42581334c0 15.07328 12.23338667 27.30666667 27.30666667 27.30666666z m-44.18218667-274.59584c0-24.35754667 19.82464-44.18218667 44.18218667-44.18218666s44.18218667 19.82464 44.18218667 44.18218666-19.82464 44.18218667-44.18218667 44.18218667-44.18218667-19.82464-44.18218667-44.18218667z" fill="#F7F8F8" p-id="10877"></path></svg>