<?xml version="1.0" standalone="no"?><!DOCTYPE svg PUBLIC "-//W3C//DTD SVG 1.1//EN" "http://www.w3.org/Graphics/SVG/1.1/DTD/svg11.dtd">
<svg t="1742988336008" class="icon" viewBox="0 0 1024 1024" version="1.1" xmlns="http://www.w3.org/2000/svg"
     p-id="15920"
     width="200" height="200"><path d="M512 512m-480 0a480 480 0 1 0 960 0 480 480 0 1 0-960 0Z" fill="#FFFFFF" p-id="15921"></path><path d="M728.96 359.6H296.24A23.52 23.52 0 0 0 272 382.82v282.48c0 13.2 11.04 22.98 24.24 22.98h432.72c13.2 0 23.04-9.78 23.04-22.98V382.76a22.5 22.5 0 0 0-23.04-23.1zM332 464l111.6-22.98 8.4 45.06-110.4 22.98-9.6-45z m179.52 137.28c-29.04 40.2-59.52-12.66-59.52-12.66l15.48-12.72s20.7 47.46 43.8-15.42c22.2 61.08 46.68 16.02 46.68 16.32L572 588.32s-26.22 53.22-60.48 12.96z m171.18-92.22L572 486.08l8.7-45L692 464l-9.3 45.06zM512 32a480 480 0 1 0 0 960A480 480 0 0 0 512 32z m225.84 713.4c-30-0.96-40.08 0-40.08 0s-2.22 34.38-31.56 34.98c-29.64 0.3-34.08-24-35.04-33.12-18 0-234.12 0.96-234.12 0.96s-3.78 31.8-33.12 31.8c-29.7 0-31.26-26.4-33.18-31.8-19.2 0-45.12-0.6-45.12-0.6S220.64 734 212.12 649.4c0.96-84.6 0-251.88 0-251.88s-6-77.94 71.64-100.32A4607.4 4607.4 0 0 1 419.42 296l-55.2-53.64s-8.52-10.8 6-22.74c14.82-12 15.42-7.08 20.52-3.6 5.04 3.42 82.32 79.62 82.32 79.62h-10.38c29.64 0 60.24 0.48 89.64 0.48 11.34-11.34 76.02-74.7 80.4-77.82 5.1-3.18 6-8.52 20.58 3.48 14.46 12 6 22.8 6 22.8l-54 52.02 131.28 0.96s73.2 16.08 75.12 100.02A19011 19011 0 0 0 812 650.36s-4.08 82.08-74.16 94.98z" fill="#FB7299" p-id="15922"></path></svg>