<?xml version="1.0" standalone="no"?><!DOCTYPE svg PUBLIC "-//W3C//DTD SVG 1.1//EN"
		"http://www.w3.org/Graphics/SVG/1.1/DTD/svg11.dtd">
<svg t="1742997729280" class="icon" viewBox="0 0 1024 1024" version="1.1" xmlns="http://www.w3.org/2000/svg" p-id="2788"
     width="200" height="200">
	<path d="M363.91776711 474.15887644H164.28054755c-67.69140622 0-122.62513778-54.87547733-122.62513777-122.62513777V165.52800711c0-67.69140622 54.87547733-122.62513778 122.62513777-122.62513777h199.63721956c67.69140622 0 122.62513778 54.87547733 122.62513778 122.62513777v186.00573156c-0.05825422 67.74966045-54.93373155 122.62513778-122.62513778 122.62513777zM363.91776711 992.09716622H164.28054755c-67.69140622 0-122.62513778-54.87547733-122.62513777-122.62513778v-186.00573155c0-67.69140622 54.87547733-122.62513778 122.62513777-122.62513778h199.63721956c67.69140622 0 122.62513778 54.87547733 122.62513778 122.62513778v186.00573155c-0.05825422 67.69140622-54.93373155 122.62513778-122.62513778 122.62513778zM879.525888 992.09716622h-199.63721955c-67.69140622 0-122.62513778-54.87547733-122.62513778-122.62513778v-186.00573155c0-67.69140622 54.87547733-122.62513778 122.62513778-122.62513778h199.63721955c67.69140622 0 122.62513778 54.87547733 122.62513778 122.62513778v186.00573155c0 67.69140622-54.93373155 122.62513778-122.62513778 122.62513778z"
	      fill="#8C7BFD" p-id="2789"></path>
	<path d="M779.73640533 258.56m-207.50153955 0a207.50153955 207.50153955 0 1 0 415.00307911 0 207.50153955 207.50153955 0 1 0-415.00307911 0Z"
	      fill="#FFE37B" p-id="2790"></path>
</svg>