<?xml version="1.0" standalone="no"?><!DOCTYPE svg PUBLIC "-//W3C//DTD SVG 1.1//EN"
		"http://www.w3.org/Graphics/SVG/1.1/DTD/svg11.dtd">
<svg t="1743047496356" class="icon" viewBox="0 0 1024 1024" version="1.1" xmlns="http://www.w3.org/2000/svg" p-id="3259"
     width="200" height="200">
	<path d="M934.7072 102.98026666H89.2928A55.43253333 55.43253333 0 0 0 34.13333333 158.07146666v600.064c0 30.17386667 24.91733333 55.0912 55.15946667 55.0912h845.4144a55.43253333 55.43253333 0 0 0 55.15946667-55.0912v-600.064a55.43253333 55.43253333 0 0 0-55.15946667-55.0912z m-89.22453333 414.9248h-96.32426667c-22.25493333 0-44.4416-12.35626667-54.34026667-32.08533333L593.5104 300.40746666l-103.76533333 313.7536c-7.3728 22.25493333-24.71253333 39.5264-46.8992 41.984h-12.35626667c-22.25493333 0-41.984-9.89866667-51.88266667-29.62773333l-83.968-135.85066667H178.51733333a38.02453333 38.02453333 0 0 1-37.0688-37.0688c0-19.79733333 17.27146667-37.0688 37.0688-37.0688h135.85066667c12.35626667 0 24.71253333 7.3728 32.08533333 17.27146667L428.032 564.80426666l103.76533333-313.7536a64.85333333 64.85333333 0 0 1 49.3568-44.4416 58.02666667 58.02666667 0 0 1 64.23893334 32.08533334l111.2064 202.61546666h88.8832c19.79733333 0 37.0688 17.27146667 37.0688 37.0688 0 19.72906667-17.27146667 39.5264-37.0688 39.5264z"
	      fill="#4777FF" fill-opacity=".8" p-id="3260"></path>
	<path d="M239.27466667 875.69066666h561.49333333c11.74186667 0 27.30666667 33.1776 27.30666667 53.248 0 20.0704-15.5648 55.56906667-27.30666667 55.56906667H239.27466667c-26.55573333 0-42.05226667-35.49866667-42.05226667-55.56906667 0-20.0704 15.49653333-53.248 34.67946667-53.248h7.3728z"
	      fill="#4777FF" fill-opacity=".5" p-id="3261"></path>
</svg>