<?xml version="1.0" standalone="no"?><!DOCTYPE svg PUBLIC "-//W3C//DTD SVG 1.1//EN" "http://www.w3.org/Graphics/SVG/1.1/DTD/svg11.dtd">
<svg t="1742988253027" class="icon" viewBox="0 0 1024 1024" version="1.1" xmlns="http://www.w3.org/2000/svg"
     p-id="10072"
     width="200" height="200"><path d="M516.1925 940.24583333c-33.4575 0.3-60.8175-26.625-61.0875-60.0825l-1.035-128.3025a60.6 60.6 0 0 1 60.1125-61.065c33.4425-0.2625 60.78 26.6325 61.0725 60.12l1.0125 128.2725c0.285 33.4575-26.6325 60.825-60.075 61.0575z" fill="#E5226B" p-id="10073"></path><path d="M911.4425 972.07583333l-789.9525 6.3675c-33.4575 0.2625-60.825-26.6625-61.0875-60.09a60.6075 60.6075 0 0 1 60.1125-61.095l789.9825-6.36c33.4275-0.2625 60.765 26.655 61.0575 60.12 0.2325 33.4575-26.625 60.795-60.1125 61.0575z" fill="#0092D2" p-id="10074"></path><path d="M976.9925 663.02333333c0.36 46.74-37.155 84.93-83.9025 85.32L136.25 754.41083333c-46.74 0.405-84.93-37.2225-85.2825-83.9625L47 179.59583333c-0.3525-46.695 37.185-84.9 83.925-85.275l756.84-6.0975c46.74-0.3675 84.9075 37.215 85.26 83.91l3.9675 490.89z" fill="#EF962F" p-id="10075"></path><path d="M136.25 754.41083333c-46.74 0.405-84.93-37.2225-85.2825-83.9625L47 179.59583333c-0.3525-46.695 37.185-84.9 83.925-85.275l756.84-6.0975" fill="#F4A417" p-id="10076"></path></svg>