<?xml version="1.0" standalone="no"?><!DOCTYPE svg PUBLIC "-//W3C//DTD SVG 1.1//EN" "http://www.w3.org/Graphics/SVG/1.1/DTD/svg11.dtd">
<svg t="1742993629476" class="icon" viewBox="0 0 1024 1024" version="1.1" xmlns="http://www.w3.org/2000/svg" p-id="2694"
     width="200" height="200"><path d="M742.91973689 982.08321421H283.17741511c-72.00221867 0-130.37294933-58.37073067-130.37294933-130.37294932V218.71988622h720.48822044v632.99037867c0 72.00221867-58.37073067 130.37294933-130.37294933 130.37294932z" fill="#FF5F5F" p-id="2695"></path><path d="M959.91671467 201.24361955H756.08519111V147.53322667c0-48.87529245-39.78763378-88.66292622-88.66292622-88.66292623h-308.74737778c-48.87529245 0-88.66292622 39.78763378-88.66292622 88.66292623v53.71039288H66.18043733c-9.67020089 0-17.47626667 7.80606578-17.47626666 17.47626667s7.80606578 17.47626667 17.47626666 17.47626667h69.14776178v615.514112c0 81.49765689 66.35155911 147.849216 147.849216 147.849216h459.74232178c81.49765689 0 147.849216-66.35155911 147.849216-147.849216V236.19615289h69.14776178c9.67020089 0 17.47626667-7.80606578 17.47626666-17.47626667s-7.80606578-17.47626667-17.47626666-17.47626667zM304.96449422 147.53322667c0-29.59314489 24.117248-53.71039289 53.71039289-53.7103929h308.805632c29.59314489 0 53.71039289 24.117248 53.71039289 53.7103929v53.71039288H304.96449422V147.53322667z m550.85192533 704.17703822c0 62.27376355-50.62291911 112.89668267-112.89668266 112.89668266H283.17741511c-62.27376355 0-112.89668267-50.62291911-112.89668266-112.89668266V236.19615289h685.5356871v615.514112z" fill="#424242" p-id="2696"></path><path d="M361.06331022 789.02872177c-9.67020089 0-17.47626667-7.80606578-17.47626667-17.47626667V411.94914134c0-9.67020089 7.80606578-17.47626667 17.47626667-17.47626667s17.47626667 7.80606578 17.47626667 17.47626667v359.60331377c0 9.61194667-7.86432 17.47626667-17.47626667 17.47626666zM525.74799645 789.02872177c-9.67020089 0-17.47626667-7.80606578-17.47626667-17.47626667V411.94914134c0-9.67020089 7.80606578-17.47626667 17.47626667-17.47626667s17.47626667 7.80606578 17.47626666 17.47626667v359.60331377c0 9.61194667-7.86432 17.47626667-17.47626666 17.47626666zM692.355072 789.02872177c-9.67020089 0-17.47626667-7.80606578-17.47626667-17.47626667V411.94914134c0-9.67020089 7.80606578-17.47626667 17.47626667-17.47626667s17.47626667 7.80606578 17.47626667 17.47626667v359.60331377c0 9.61194667-7.86432 17.47626667-17.47626667 17.47626666z" fill="#FFFFFF" p-id="2697"></path></svg>