<?xml version="1.0" standalone="no"?><!DOCTYPE svg PUBLIC "-//W3C//DTD SVG 1.1//EN"
		"http://www.w3.org/Graphics/SVG/1.1/DTD/svg11.dtd">
<svg t="1749722490634" class="icon" viewBox="0 0 1024 1024" version="1.1" xmlns="http://www.w3.org/2000/svg" p-id="3013"
     width="200" height="200">
	<path d="M837.23332267 1020.571648H191.71828622c-57.90469689 0-104.8576-46.95290311-104.8576-104.8576V249.868288c0-57.90469689 46.95290311-104.8576 104.8576-104.8576h645.51503645c57.90469689 0 104.8576 46.95290311 104.8576 104.8576v665.84576c0 57.90469689-46.95290311 104.8576-104.8576 104.8576z"
	      fill="#4B26D3" p-id="3014"></path>
	<path d="M794.29996089 976.58971022H215.95204267c-57.90469689 0-104.8576-46.95290311-104.8576-104.8576V274.68458666c0-57.90469689 46.95290311-104.8576 104.8576-104.8576h578.34791822c57.90469689 0 104.8576 46.95290311 104.8576 104.8576v597.10577778c0 57.90469689-46.95290311 104.79934578-104.8576 104.79934578z"
	      fill="#5935DB" p-id="3015"></path>
	<path d="M759.28917333 929.28728178H239.31198578c-57.90469689 0-104.8576-46.95290311-104.8576-104.8576V287.092736c0-57.90469689 46.95290311-104.8576 104.8576-104.8576h519.97718755c57.90469689 0 104.8576 46.95290311 104.8576 104.8576v537.33694578c0 57.90469689-46.95290311 104.8576-104.8576 104.8576z"
	      fill="#6241EF" p-id="3016"></path>
	<path d="M723.57933511 892.82013866h-460.20835556c-57.90469689 0-104.8576-46.95290311-104.8576-104.8576V311.85078044c0-57.90469689 46.95290311-104.8576 104.8576-104.8576h460.20835556c57.90469689 0 104.8576 46.95290311 104.8576 104.8576v476.11175822c0 57.90469689-46.95290311 104.8576-104.8576 104.8576z"
	      fill="#6A5BF1" p-id="3017"></path>
	<path d="M213.27234845 145.010688v121.69307022c0 40.19541333 32.56411022 72.70126933 72.70126933 72.70126933h452.460544c40.19541333 0 72.70126933-32.56411022 72.70126933-72.70126933V145.010688H213.27234845z"
	      fill="#3D10C6" p-id="3018"></path>
	<path d="M301.41098667 46.09501866h421.64406044c32.68061867 0 59.12803555 26.44741689 59.12803556 59.12803556v143.53840356c0 32.68061867-26.44741689 59.12803555-59.12803556 59.12803555H301.41098667c-32.68061867 0-59.12803555-26.44741689-59.12803556-59.12803555V105.22305422c0-32.68061867 26.50567111-59.12803555 59.12803556-59.12803556z"
	      fill="#FAB001" p-id="3019"></path>
	<path d="M310.20737422 50.93011911h392.40044089c32.68061867 0 59.12803555 26.44741689 59.12803556 59.12803555v122.21735822c0 32.68061867-26.44741689 59.12803555-59.12803556 59.12803556H310.20737422c-32.68061867 0-59.12803555-26.44741689-59.12803555-59.12803556V110.05815466c0-32.62236445 26.50567111-59.12803555 59.12803555-59.12803555z"
	      fill="#F7BD2D" p-id="3020"></path>
	<path d="M320.92615111 58.96920178h357.21489067c32.68061867 0 59.12803555 26.44741689 59.12803555 59.12803555v102.64393955c0 32.68061867-26.44741689 59.12803555-59.12803555 59.12803556H320.92615111c-32.68061867 0-59.12803555-26.44741689-59.12803556-59.12803556V118.09723733c0-32.62236445 26.50567111-59.12803555 59.12803556-59.12803555z"
	      fill="#FCD430" p-id="3021"></path>
	<path d="M652.80045511 789.30238578H481.00875378c-38.62254933 0-69.90506667-31.28251733-69.90506667-69.90506667V490.63298844c0-38.62254933 31.28251733-69.90506667 69.90506667-69.90506666s69.90506667 31.28251733 69.90506667 69.90506666v158.859264h101.88663466c38.62254933 0 69.90506667 31.28251733 69.90506667 69.90506667s-31.28251733 69.90506667-69.90506667 69.90506667z"
	      fill="#4B26D3" p-id="3022"></path>
	<path d="M662.994944 762.15591822H482.46510933c-23.65121422 0-42.81685333-18.69960533-42.81685333-41.76827734V485.97265066c0-23.068672 19.16563911-41.76827733 42.81685333-41.76827733s42.81685333 18.69960533 42.81685334 41.76827733v192.58845867h137.65472711c23.65121422 0 42.81685333 18.69960533 42.81685333 41.76827733 0.05825422 23.12692622-19.10738489 41.82653155-42.75859911 41.82653156z"
	      fill="#5FF7FF" p-id="3023"></path>
	<path d="M652.80045511 748.52443022H481.00875378c-16.07816533 0-29.12711111-13.04894578-29.12711111-29.12711111V490.63298844c0-16.07816533 13.04894578-29.12711111 29.12711111-29.12711111s29.12711111 13.04894578 29.12711111 29.12711111v199.63721956h142.66459022c16.07816533 0 29.12711111 13.04894578 29.12711111 29.12711111s-13.04894578 29.12711111-29.12711111 29.12711111z"
	      fill="#AFFBFF" p-id="3024"></path>
</svg>