<?xml version="1.0" standalone="no"?><!DOCTYPE svg PUBLIC "-//W3C//DTD SVG 1.1//EN" "http://www.w3.org/Graphics/SVG/1.1/DTD/svg11.dtd">
<svg t="1742993680866" class="icon" viewBox="0 0 1024 1024" version="1.1" xmlns="http://www.w3.org/2000/svg" p-id="3012"
     width="200" height="200"><path d="M154.19733333 963.87199999a112.59733333 112.59733333 0 0 1-112.46933333-112.46933333V223.51999999a112.576 112.576 0 0 1 112.46933333-112.44799999h492.45866667a112.576 112.576 0 0 1 112.448 112.44799999v627.88266667a112.59733333 112.59733333 0 0 1-112.448 112.46933333z m12.30933334-418.60266666a47.616 47.616 0 1 0 0 95.21066667h172.352a47.616 47.616 0 1 0 0-95.21066667z m0-160.00000001a47.616 47.616 0 1 0 0 95.21066668h246.22933333a47.616 47.616 0 0 0 0-95.21066668z m0-159.99999999a47.616 47.616 0 1 0 0 95.21066666h369.344a47.616 47.616 0 0 0 0-95.21066666z" fill="#29ABE2" p-id="3013"></path><path d="M646.656 121.73866666a101.888 101.888 0 0 1 101.78133333 101.78133333v627.88266667a101.90933333 101.90933333 0 0 1-101.78133333 101.80266666H154.19733333a101.90933333 101.90933333 0 0 1-101.78133333-101.80266666V223.51999999a101.888 101.888 0 0 1 101.78133333-101.78133334h492.45866667M166.50666667 331.03999999h369.344a58.28266667 58.28266667 0 0 0 0-116.544H166.50666667a58.28266667 58.28266667 0 1 0 0 116.544m0 160.00000001h246.22933333a58.28266667 58.28266667 0 0 0 0-116.544H166.50666667a58.28266667 58.28266667 0 1 0 0 116.544m0 160h172.352a58.28266667 58.28266667 0 1 0 0-116.544H166.50666667a58.28266667 58.28266667 0 1 0 0 116.544M646.656 100.40533333H154.19733333a123.456 123.456 0 0 0-123.11466666 123.11466666v627.88266667a123.47733333 123.47733333 0 0 0 123.11466666 123.136h492.45866667a123.47733333 123.47733333 0 0 0 123.11466667-123.136V223.51999999a123.47733333 123.47733333 0 0 0-123.11466667-123.11466666zM166.50666667 309.70666665a36.94933333 36.94933333 0 1 1 0-73.87733332h369.344a36.94933333 36.94933333 0 0 1 0 73.87733332z m0 160.00000001a36.94933333 36.94933333 0 1 1 0-73.87733334h246.22933333a36.94933333 36.94933333 0 0 1 0 73.87733334z m0 160a36.94933333 36.94933333 0 1 1 0-73.87733333h172.352a36.94933333 36.94933333 0 1 1 0 73.87733333z" p-id="3014"></path><path d="M759.808 994.63466666a222.976 222.976 0 0 1-110.528-29.376 218.02666667 218.02666667 0 0 1 0-379.22133333 222.67733333 222.67733333 0 0 1 221.01333333 0 218.02666667 218.02666667 0 0 1 0 379.24266667 222.95466667 222.95466667 0 0 1-110.48533333 29.35466666z" fill="#F7931E" p-id="3015"></path><path d="M759.78666667 567.34933333a212.224 212.224 0 0 1 105.19466666 27.94666667 207.33866667 207.33866667 0 0 1 0 360.70399999 211.968 211.968 0 0 1-210.432 0 207.38133333 207.38133333 0 0 1 0-360.72533333 212.352 212.352 0 0 1 105.216-27.94666666m0-21.33333334A233.00266667 233.00266667 0 0 0 643.98933333 576.79999999a228.71466667 228.71466667 0 0 0 0 397.76000001 233.36533333 233.36533333 0 0 0 231.616 0 228.69333333 228.69333333 0 0 0 0-397.76000001 233.00266667 233.00266667 0 0 0-115.79733333-30.76266666z" p-id="3016"></path><path d="M914.176 719.73333332c-25.25866667-40.53333333-24.87466667-41.36533333-24.87466667-41.36533333s-87.168 23.50933333-103.53066666-57.10933333h-50.56s-13.952 80.74666667-103.12533334 56.85333334c-25.792 41.408-26.66666667 42.66666667-26.688 42.66666665s69.80266667 46.93333333 0 110.80533334l27.09333334 42.92266667s77.07733333-32 102.4 55.46666666h51.2s16.04266667-80.36266667 102.61333333-56.64c24.68266667-40.53333333 25.088-41.00266667 25.088-41.00266667s-65.45066667-54.35733333 0.384-112.72533332zM759.46666667 832.50133333c-32.576 0-58.98666667-25.45066667-58.98666667-56.85333333s26.41066667-56.85333333 58.98666667-56.85333334 59.008 25.45066667 59.008 56.85333334-26.496 56.85333333-59.008 56.85333333z" fill="#FFFFFF" p-id="3017"></path></svg>