<?xml version="1.0" standalone="no"?><!DOCTYPE svg PUBLIC "-//W3C//DTD SVG 1.1//EN" "http://www.w3.org/Graphics/SVG/1.1/DTD/svg11.dtd">
<svg t="1742988331833" class="icon" viewBox="0 0 1024 1024" version="1.1" xmlns="http://www.w3.org/2000/svg"
     p-id="15585"
     width="200" height="200"><path d="M764.91434667 968.13056H243.84853333c-103.71072 0-188.14293333-84.3776-188.14293333-188.14293333V276.61653333c0-103.71072 84.3776-188.14293333 188.14293333-188.14293333h263.72778667c15.07328 0 27.30666667 12.23338667 27.30666667 27.30666667s-12.23338667 27.30666667-27.30666667 27.30666666H243.84853333c-73.61877333 0-133.5296 59.91082667-133.5296 133.5296v503.37109334c0 73.61877333 59.91082667 133.5296 133.5296 133.5296h521.06581334c73.61877333 0 133.5296-59.91082667 133.5296-133.5296v-249.25525334c0-15.07328 12.23338667-27.30666667 27.30666666-27.30666666s27.30666667 12.23338667 27.30666667 27.30666666v249.25525334c0 103.76533333-84.3776 188.14293333-188.14293333 188.14293333z" fill="#434A54" p-id="15586"></path><path d="M925.75061333 530.73237333v249.25525334c0 88.80128-71.98037333 160.83626667-160.83626666 160.83626666H243.84853333c-88.80128 0-160.83626667-71.98037333-160.83626666-160.83626666V276.61653333c0-88.80128 71.98037333-160.83626667 160.83626666-160.83626666h494.7968c104.14762667 0 188.47061333 84.70528 188.03370667 188.85290666l-0.92842667 226.0992z" fill="#FFD16C" p-id="15587"></path><path d="M376.94122667 108.35285333s-176.67413333 23.31989333-176.67413334 151.16970667v534.71914667c0 32.16725333 2.83989333 115.01568 140.95701334 127.84981333-98.08554667 0-263.50933333-2.40298667-263.50933334-131.8912V288.41301333c0-77.98784-15.61941333-181.64394667 299.22645334-180.06016z" fill="#FFE8C0" p-id="15588"></path><path d="M626.36032 115.83488s177.43872 23.10144 177.43872 149.80437333v529.85856c0 31.89418667-2.83989333 113.92341333-141.55776 126.70293334 98.52245333 0 264.6016-2.40298667 264.6016-130.68970667V294.31125333c0-77.33248 14.69098667-193.60426667-300.48256-178.47637333z" fill="#FFC50B" p-id="15589"></path><path d="M764.91434667 968.13056H243.84853333c-103.71072 0-188.14293333-84.3776-188.14293333-188.14293333V276.61653333c0-103.71072 84.3776-188.14293333 188.14293333-188.14293333h263.72778667c15.07328 0 27.30666667 12.23338667 27.30666667 27.30666667s-12.23338667 27.30666667-27.30666667 27.30666666H243.84853333c-73.61877333 0-133.5296 59.91082667-133.5296 133.5296v503.37109334c0 73.61877333 59.91082667 133.5296 133.5296 133.5296h521.06581334c73.61877333 0 133.5296-59.91082667 133.5296-133.5296v-249.25525334c0-15.07328 12.23338667-27.30666667 27.30666666-27.30666666s27.30666667 12.23338667 27.30666667 27.30666666v249.25525334c0 103.76533333-84.3776 188.14293333-188.14293333 188.14293333z" fill="#434A54" p-id="15590"></path><path d="M527.18250667 630.51093333l-119.6032 21.68149334c-21.40842667 3.87754667-39.86773333-15.34634667-35.11637334-36.59093334l25.72288-114.57877333c1.25610667-5.62517333 4.096-10.75882667 8.192-14.85482667l402.17258667-402.17258666a30.39232 30.39232 0 0 1 43.03530667 0l93.3888 93.3888a30.39232 30.39232 0 0 1 0 43.03530666l-401.68106667 401.68106667c-4.42368 4.36906667-9.99424 7.31818667-16.11093333 8.41045333z" fill="#7BD3FF" p-id="15591"></path><path d="M853.98869333 93.66186667a30.39232 30.39232 0 0 0-43.03530666 0L408.7808 495.83445333c-4.096 4.096-6.93589333 9.22965333-8.192 14.85482667l-25.72288 114.57877333c-1.52917333 6.71744-0.70997333 13.21642667 1.80224 18.8416l515.33141333-512.32768-38.01088-38.12010666z" fill="#AEECFF" p-id="15592"></path><path d="M402.11797333 679.99061333c-15.5648 0-30.58346667-6.28053333-41.61536-17.74933333a57.70990933 57.70990933 0 0 1-14.69098666-52.59264l25.72288-114.57877333c2.40298667-10.70421333 7.75509333-20.42538667 15.51018666-28.18048l402.17258667-402.17258667c22.50069333-22.50069333 59.14624-22.50069333 81.64693333 0l93.3888 93.3888c10.92266667 10.92266667 16.93013333 25.3952 16.93013334 40.79616 0 15.40096-6.00746667 29.92810667-16.93013334 40.79616l-401.68106666 401.68106667a57.606144 57.606144 0 0 1-30.52885334 16.00170666l-119.54858666 21.68149334c-3.44064 0.65536-6.93589333 0.92842667-10.37653334 0.92842666z m427.95008-577.536a3.05834667 3.05834667 0 0 0-2.18453333 0.92842667L425.71093333 505.50101333c-0.43690667 0.43690667-0.70997333 0.92842667-0.8192 1.52917334l-25.72288 114.57877333c-0.10922667 0.38229333-0.38229333 1.6384 0.8192 2.83989333s2.40298667 0.98304 2.78528 0.92842667l119.6032-21.68149333c0.60074667-0.10922667 1.20149333-0.43690667 1.6384-0.87381334l401.68106667-401.68106666a3.16757333 3.16757333 0 0 0 0-4.42368l-93.3888-93.3888a3.32049067 3.32049067 0 0 0-2.23914667-0.87381334z" fill="#434A54" p-id="15593"></path></svg>