<?xml version="1.0" standalone="no"?><!DOCTYPE svg PUBLIC "-//W3C//DTD SVG 1.1//EN" "http://www.w3.org/Graphics/SVG/1.1/DTD/svg11.dtd">
<svg t="1742988279205" class="icon" viewBox="0 0 1024 1024" version="1.1" xmlns="http://www.w3.org/2000/svg"
     p-id="12010"
     width="200" height="200"><path d="M1009.87904 772.95445333a123.3664 123.3664 0 0 1-16.13312 59.74528l-314.25536-351.59552 311.2704-270.6432a123.61728 123.61728 0 0 1 19.41504 66.01728v496.47616m-497.96608-227.92704l432.55296-378.78272a123.12064 123.12064 0 0 0-59.74528-15.53408H138.20416a122.46016 122.46016 0 0 0-59.74528 15.53408l433.75104 378.78272m119.48544-22.99904l-100.0704 87.82336a29.87008 29.87008 0 0 1-40.92416 0l-100.0704-87.82336-316.6464 356.3776a122.79808 122.79808 0 0 0 65.72032 19.11808h746.80832a122.79808 122.79808 0 0 0 65.72032-19.11808l-319.3344-356.3776m-599.2448-311.56736a123.63264 123.63264 0 0 0-19.41504 64.82432v497.67424a122.76224 122.76224 0 0 0 16.13312 59.74528l314.25536-351.59552-310.97344-270.64832z" fill="#648CCA" p-id="12011"></path></svg>