<?xml version="1.0" standalone="no"?><!DOCTYPE svg PUBLIC "-//W3C//DTD SVG 1.1//EN"
		"http://www.w3.org/Graphics/SVG/1.1/DTD/svg11.dtd">
<svg t="1749722487583" class="icon" viewBox="0 0 1024 1024" version="1.1" xmlns="http://www.w3.org/2000/svg" p-id="2845"
     width="200" height="200">
	<path d="M737 179.93333333H287C171.01999999 179.93333333 77 273.95333332 77 389.93333333v330h870V389.93333333c0-115.98000001-94.02000001-210-210-210z"
	      fill="#CED8ED" p-id="2846"></path>
	<path d="M292.69999999 179.93333333C405.53 179.93333333 497 271.40333333 497 384.23333332V719.93333333H77V395.63333332C77 276.50333333 173.57 179.93333333 292.69999999 179.93333333z"
	      fill="#B5C4E0" p-id="2847"></path>
	<path d="M497 719.93333333H197a30 30 0 0 1-30-30V389.93333333a30 30 0 0 1 30-30h294.75" fill="#FAEFDE"
	      p-id="2848"></path>
	<path d="M497 503.93333333l-72.45 52.50000001a30 30 0 0 1-35.25000001 0L167 395.33333333l15-33L497 359.93333333v144z"
	      fill="#FFF7F0" p-id="2849"></path>
	<path d="M182 719.93333333h315v-75H227a60 60 0 0 0-60 60v3.45c0 8.25 6.75 11.55 15 11.55z" fill="#EFD8BE"
	      p-id="2850"></path>
	<path d="M179.45 362.33333333H497c16.50000001 0 0 13.50000001 0 30h15c0 16.50000001 1.50000001 30-15 30H179.45c-16.50000001 0-16.50000001-60 0-60z"
	      fill="#FFFFFF" p-id="2851"></path>
	<path d="M467 811.17777778h120v165h-120z" fill="#C4939C" p-id="2852"></path>
	<path d="M557 644.93333333h330a60 60 0 0 1 60 60v15H497v-15a60 60 0 0 1 60-60z" fill="#B5C4E0" p-id="2853"></path>
	<path d="M947 719.93333333H77a30 30 0 1 0 0 60h870a30 30 0 1 0 0-60z" fill="#F9DD8F" p-id="2854"></path>
	<path d="M737 44.93333333a15 15 0 0 0-15-15h-120a15 15 0 0 0-15 15v375a30 30 0 1 0 60 0V119.93333333a15 15 0 0 1 12-15l65.85-13.2a15 15 0 0 0 12-15L737 44.93333333z"
	      fill="#ED7899" p-id="2855"></path>
	<path d="M585.16575031 451.82869396a45 45 0 1 0 63.63849939-63.64072126 45 45 0 1 0-63.63849939 63.64072126Z"
	      fill="#F9DD8F" p-id="2856"></path>
	<path d="M628.4 839.93333333H425.6c-11.385 0-21.78000001-6.45-26.85-16.65L377 779.93333333h300l-21.75 43.35A29.985 29.985 0 0 1 628.4 839.93333333z"
	      fill="#CDA1A7" p-id="2857"></path>
	<path d="M962 707.63333334V389.93333333c0-124.26000001-100.74000001-225-225-225h-75V119.93333333l65.85-13.2a30 30 0 0 0 24.15-30V44.93333333a30 30 0 0 0-30-30h-120a30 30 0 0 0-30 30v120H287C162.73999999 164.93333333 62 265.67333333 62 389.93333333v317.70000001A45 45 0 0 0 77 794.93333333h290.70000001l17.54999999 35.10000001A45.015 45.015 0 0 0 425.6 854.93333333H452v105a15 15 0 0 0 30 0v-105h90v105a15 15 0 0 0 30 0v-105h26.4a45.015 45.015 0 0 0 40.2-24.9L686.30000001 794.93333333H947a45 45 0 0 0 15-87.3zM602 194.93333333V44.93333333h120v32.70000001l-65.85 13.19999999A30 30 0 0 0 632 119.93333333v242.4a63.405 63.405 0 0 0-30 0V194.93333333z m-6.15 203.85a26.55 26.55 0 0 1 6.15-4.65 28.98000001 28.98000001 0 0 1 30 0c2.265 1.245 4.335 2.805 6.15 4.65a30 30 0 1 1-42.42 0.12l0.12-0.12zM572 194.93333333v185.4A59.10000001 59.10000001 0 0 0 557 419.93333333a60 60 0 0 0 120 0 59.10000001 59.10000001 0 0 0-15-39.6V194.93333333h75c107.70000001 0 195 87.30000001 195 195v15h-90a15 15 0 0 0 0 30h90v270H512V389.93333333a225 225 0 0 0-113.25-195H572z m-105 510H197a15 15 0 0 1-15-15V424.73333333l198.6 143.70000001c15.75 11.415 37.05 11.415 52.8-2e-8L482 533.33333333V704.93333333h-15z m15-315v106.35l-66.15 48a15 15 0 0 1-17.54999999 0L182 387.98333333a15 15 0 0 1 15-13.05h284.25c0.75 4.95 0.75 9.90000001 0.75 15zM92 389.93333333c0.315-107.70000001 87.87-194.745 195.57-194.43A195 195 0 0 1 476.6 344.93333333H197a45 45 0 0 0-45 45v300c0.045 5.115 0.96 10.185 2.70000001 15H92V389.93333333z m549.90000001 426.75a15 15 0 0 1-13.35000001 8.25H425.6a15 15 0 0 1-13.35-8.25L401.29999999 794.93333333h251.40000002l-10.80000002 21.75zM947 764.93333333H77a15 15 0 0 1 0-30h870a15 15 0 0 1 0 30z"
	      fill="#8D6C9F" p-id="2858"></path>
	<path d="M722 434.93333333h60a15 15 0 0 0 0-30h-60a15 15 0 0 0 0 30zM782 629.93333333v30a15 15 0 0 0 30 0v-30a15 15 0 0 0-30 0zM722 674.93333333a15 15 0 0 0 15-15v-30a15 15 0 0 0-30 0v30a15 15 0 0 0 15 15zM872 674.93333333a15 15 0 0 0 15-15v-30a15 15 0 0 0-30 0v30a15 15 0 0 0 15 15zM647 674.93333333a15 15 0 0 0 15-15v-30a15 15 0 0 0-30 0v30a15 15 0 0 0 15 15zM572 674.93333333a15 15 0 0 0 15-15v-30a15 15 0 0 0-30 0v30a15 15 0 0 0 15 15z"
	      fill="#8D6C9F" p-id="2859"></path>
</svg>