<?xml version="1.0" standalone="no"?><!DOCTYPE svg PUBLIC "-//W3C//DTD SVG 1.1//EN" "http://www.w3.org/Graphics/SVG/1.1/DTD/svg11.dtd">
<svg t="1742988289232" class="icon" viewBox="0 0 1024 1024" version="1.1" xmlns="http://www.w3.org/2000/svg"
     p-id="12824"
     width="200" height="200"><path d="M207.25333333 40.96C127.04 63.57333333 63.57333333 127.04 40.96 207.25333333L207.25333333 40.96z" fill="#FFA65A" p-id="12825"></path><path d="M262.29333333 32.21333333c-124.26666667 5.01333333-225.06666667 105.70666667-230.08 230.08L262.29333333 32.21333333z" fill="#FFA659" p-id="12826"></path><path d="M308.8 32H272C140.05333333 32 32 140.05333333 32 272v36.8L308.8 32z" fill="#FFA558" p-id="12827"></path><path d="M355.2 32h-83.2C140.05333333 32 32 140.05333333 32 272v83.2L355.2 32z" fill="#FFA557" p-id="12828"></path><path d="M401.49333333 32H272C140.05333333 32 32 140.05333333 32 272v129.49333333L401.49333333 32z" fill="#FFA556" p-id="12829"></path><path d="M447.78666667 32H272c-38.29333333 0-74.45333333 9.06666667-106.66666667 25.17333333L57.17333333 165.33333333C41.06666667 197.54666667 32 233.70666667 32 272v175.78666667L447.78666667 32z" fill="#FFA555" p-id="12830"></path><path d="M494.18666667 32H272c-13.01333333 0-25.81333333 1.06666667-38.29333333 3.09333333L35.09333333 233.70666667C33.06666667 246.18666667 32 258.98666667 32 272v222.18666667L494.18666667 32z" fill="#FFA454" p-id="12831"></path><path d="M32 540.48L540.48 32H283.2L32 283.2z" fill="#FFA453" p-id="12832"></path><path d="M32 586.77333333L586.77333333 32H329.49333333L32 329.49333333z" fill="#FFA452" p-id="12833"></path><path d="M32 633.17333333L633.17333333 32H375.78666667L32 375.78666667z" fill="#FFA451" p-id="12834"></path><path d="M32 422.18666667V679.46666667L679.46666667 32H422.18666667z" fill="#FFA450" p-id="12835"></path><path d="M32 468.48v257.28L725.76 32H468.48z" fill="#FFA34F" p-id="12836"></path><path d="M752 32H514.77333333L32 514.77333333V752c0 6.50666667 0.32 12.90666667 0.74666667 19.30666667L771.30666667 32.74666667c-6.4-0.42666667-12.8-0.74666667-19.30666667-0.74666667z" fill="#FFA34E" p-id="12837"></path><path d="M752 32H561.17333333L32 561.17333333V752c0 20.37333333 2.56 40.10666667 7.36 59.09333333L811.09333333 39.36C792.10666667 34.56 772.37333333 32 752 32z" fill="#FFA34D" p-id="12838"></path><path d="M752 32H607.46666667L32 607.46666667V752c0 33.17333333 6.82666667 64.85333333 19.09333333 93.65333333L845.65333333 51.09333333C816.85333333 38.82666667 785.17333333 32 752 32z" fill="#FFA34C" p-id="12839"></path><path d="M876.26666667 66.88C839.89333333 44.8 797.33333333 32 752 32h-98.24L32 653.76V752c0 45.33333333 12.8 87.89333333 34.88 124.26666667L876.26666667 66.88z" fill="#FFA24B" p-id="12840"></path><path d="M903.36 86.08C861.97333333 52.37333333 809.28 32 752 32h-51.84L32 700.16V752c0 57.28 20.37333333 109.97333333 54.08 151.36l817.28-817.28z" fill="#FFA24A" p-id="12841"></path><path d="M752 32h-5.54666667L32 746.45333333v5.54666667c0 69.01333333 29.54666667 131.41333333 76.48 175.25333333l818.77333333-818.77333333C883.41333333 61.54666667 821.01333333 32 752 32z" fill="#FFA249" p-id="12842"></path><path d="M34.98666667 789.76c10.45333333 65.06666667 47.25333333 121.70666667 98.98666666 158.29333333l814.08-814.08c-36.58666667-51.84-93.22666667-88.64-158.29333333-98.98666666L34.98666667 789.76z" fill="#FFA248" p-id="12843"></path><path d="M44.05333333 826.98666667c19.94666667 60.16 63.14666667 109.86666667 118.72 138.56l802.77333334-802.77333334C936.96 107.2 887.14666667 64 826.98666667 44.05333333l-782.93333334 782.93333334z" fill="#FFA247" p-id="12844"></path><path d="M57.70666667 859.73333333c28.26666667 55.78666667 77.76 99.30666667 137.70666666 119.68l784-784C959.04 135.46666667 915.52 85.97333333 859.73333333 57.70666667L57.70666667 859.73333333z" fill="#FFA147" p-id="12845"></path><path d="M75.09333333 888.74666667c36.26666667 51.94666667 92.48 89.06666667 157.33333334 99.94666666l756.26666666-756.26666666c-10.88-64.85333333-48-121.06666667-99.94666666-157.33333334L75.09333333 888.74666667z" fill="#FFA146" p-id="12846"></path><path d="M992 272c0-69.54666667-29.97333333-132.37333333-77.54666667-176.32L95.68 914.45333333C139.62666667 962.02666667 202.45333333 992 272 992h3.41333333L992 275.41333333V272z" fill="#FFA145" p-id="12847"></path><path d="M992 272c0-57.81333333-20.69333333-110.93333333-55.04-152.53333333L119.46666667 936.96c41.6 34.34666667 94.72 55.04 152.53333333 55.04h49.70666667L992 321.70666667V272z" fill="#FFA144" p-id="12848"></path><path d="M992 272c0-45.97333333-13.12-88.96-35.73333333-125.54666667L146.45333333 956.26666667C183.04 978.88 226.02666667 992 272 992h96.10666667L992 368.10666667V272z" fill="#FFA143" p-id="12849"></path><path d="M272 992h142.4L992 414.4V272c0-33.70666667-7.04-65.92-19.73333333-95.14666667L176.85333333 972.16c29.22666667 12.8 61.44 19.84 95.14666667 19.84z" fill="#FFA042" p-id="12850"></path><path d="M272 992h188.69333333L992 460.69333333V272c0-21.01333333-2.77333333-41.28-7.89333333-60.69333333L211.30666667 984.10666667c19.41333333 5.12 39.68 7.89333333 60.69333333 7.89333333z" fill="#FFA041" p-id="12851"></path><path d="M272 992h235.09333333L992 507.09333333V272c0-7.14666667-0.32-14.29333333-0.96-21.33333333L250.66666667 991.04c7.04 0.64 14.18666667 0.96 21.33333333 0.96z" fill="#FFA040" p-id="12852"></path><path d="M553.38666667 992L992 553.38666667V296.10666667L296.10666667 992z" fill="#FFA03F" p-id="12853"></path><path d="M599.68 992L992 599.68V342.4L342.4 992z" fill="#FF9F3E" p-id="12854"></path><path d="M646.08 992L992 646.08V388.69333333L388.69333333 992z" fill="#FF9F3D" p-id="12855"></path><path d="M692.37333333 992L992 692.37333333V435.09333333L435.09333333 992z" fill="#FF9F3C" p-id="12856"></path><path d="M738.66666667 992L992 738.66666667V481.38666667L481.38666667 992z" fill="#FF9F3B" p-id="12857"></path><path d="M992 752V527.68L527.68 992H752c12.16 0 24-0.96 35.73333333-2.66666667l201.6-201.6c1.70666667-11.73333333 2.66666667-23.57333333 2.66666667-35.73333333z" fill="#FF9F3A" p-id="12858"></path><path d="M992 752V574.08L574.08 992H752c36.58666667 0 71.36-8.32 102.50666667-23.14666667l114.34666666-114.34666666c14.82666667-31.14666667 23.14666667-65.92 23.14666667-102.50666667z" fill="#FF9E39" p-id="12859"></path><path d="M992 620.37333333L620.37333333 992H752c132.05333333 0 240-108.05333333 240-240V620.37333333z" fill="#FF9E38" p-id="12860"></path><path d="M992 666.66666667L666.66666667 992h85.33333333c132.05333333 0 240-108.05333333 240-240v-85.33333333z" fill="#FF9E37" p-id="12861"></path><path d="M992 713.06666667L713.06666667 992H752c132.05333333 0 240-108.05333333 240-240v-38.93333333z" fill="#FF9E36" p-id="12862"></path><path d="M991.89333333 759.46666667L759.46666667 991.89333333c126.08-3.94666667 228.48-106.34666667 232.42666666-232.42666666z" fill="#FF9D35" p-id="12863"></path><path d="M983.89333333 813.86666667L813.86666667 983.89333333c82.56-22.18666667 147.84-87.46666667 170.02666666-170.02666666z" fill="#FF9D34" p-id="12864"></path><path d="M512 512m-259.2 0a259.2 259.2 0 1 0 518.4 0 259.2 259.2 0 1 0-518.4 0Z" fill="#FFD9C0" p-id="12865"></path><path d="M425.6 435.2m-38.4 0a38.4 38.4 0 1 0 76.8 0 38.4 38.4 0 1 0-76.8 0Z" fill="#FFFFFF" p-id="12866"></path><path d="M598.4 435.2m-38.4 0a38.4 38.4 0 1 0 76.8 0 38.4 38.4 0 1 0-76.8 0Z" fill="#FFFFFF" p-id="12867"></path><path d="M646.4 540.8c0 74.24-60.16 134.4-134.4 134.4s-134.4-60.16-134.4-134.4h268.8z" fill="#FFF6F0" p-id="12868"></path></svg>