<?xml version="1.0" standalone="no"?><!DOCTYPE svg PUBLIC "-//W3C//DTD SVG 1.1//EN" "http://www.w3.org/Graphics/SVG/1.1/DTD/svg11.dtd">
<svg t="1742993699794" class="icon" viewBox="0 0 1024 1024" version="1.1" xmlns="http://www.w3.org/2000/svg" p-id="3660"
     width="200" height="200"><path d="M921.60438613 834.57398215L650.96790357 563.93749959a56.14864839 56.14864839 0 0 1 0-79.45033728l270.63648256-270.4961115a72.43175595 72.43175595 0 0 0 7.15895353-96.29493134 70.18580992 70.18580992 0 0 0-104.15574243-5.75523613L551.72516864 385.38479843a56.14864839 56.14864839 0 0 1-79.45033728 0L201.6383488 114.74831587a72.43175595 72.43175595 0 0 0-96.29493134-7.15895238 70.18580992 70.18580992 0 0 0-5.33412181 104.15574129L373.03209643 484.62753451a56.14864839 56.14864839 0 0 1 0 79.45033614L102.39561387 834.57398215a72.43175595 72.43175595 0 0 0-7.15895353 96.29493134 70.18580992 70.18580992 0 0 0 104.15574243 5.33412182l272.88242859-272.88242859a56.14864839 56.14864839 0 0 1 79.45033728 0l272.88242859 272.88242859a70.18580992 70.18580992 0 0 0 104.15574243-5.33412182 72.43175595 72.43175595 0 0 0-7.15895353-96.29493134z m-67.09763413 51.93749959L571.51756629 603.24155278a84.22297145 84.22297145 0 0 0-119.17550478 0L169.493248 886.51148174a14.03716153 14.03716153 0 1 1-19.79239879-19.79239879l282.84881351-282.84881351a84.22297145 84.22297145 0 0 0 0-119.17550478L149.70084921 182.12669326a14.03716153 14.03716153 0 1 1 19.79239879-19.79239765l282.98918571 282.56807026a84.22297145 84.22297145 0 0 0 119.17550478 0L854.506752 162.05355235A14.03716153 14.03716153 0 0 1 874.29915079 182.12669326L591.45033728 464.69476466a84.22297145 84.22297145 0 0 0 0 119.17550478l282.84881351 282.84881351a14.03716153 14.03716153 0 1 1-19.79239879 19.79239879z" fill="#1296db" p-id="3661"></path></svg>