<?xml version="1.0" standalone="no"?><!DOCTYPE svg PUBLIC "-//W3C//DTD SVG 1.1//EN" "http://www.w3.org/Graphics/SVG/1.1/DTD/svg11.dtd">
<svg t="1742988213228" class="icon" viewBox="0 0 1024 1024" version="1.1" xmlns="http://www.w3.org/2000/svg" p-id="7616"
     width="200" height="200"><path d="M894.14769778 357.74281955c-51.14720711 0-92.798976-41.59351467-92.798976-92.798976s41.59351467-92.798976 92.798976-92.798976 92.798976 41.59351467 92.798976 92.798976-41.65176889 92.798976-92.798976 92.798976z m0-138.99457422c-25.45709511 0-46.19559822 20.73850311-46.19559823 46.19559822s20.73850311 46.19559822 46.19559823 46.19559823 46.19559822-20.73850311 46.19559822-46.19559823-20.73850311-46.19559822-46.19559822-46.19559822z" fill="#ED98AB" p-id="7617"></path><path d="M438.30840889 317.43089778l-9.72845511-23.24343467a69.15941262 69.15941262 0 0 0-63.78837333-42.467328H179.36839111c-59.768832 0-108.23634489 48.46751289-108.23634489 108.23634489v482.40321422c0 59.768832 48.46751289 108.23634489 108.23634489 108.23634489h674.29262222c59.768832 0 108.23634489-48.46751289 108.23634489-108.23634489V468.13457067c0-59.768832-48.46751289-108.23634489-108.23634489-108.23634489H502.09678222c-27.90377245 0-53.06959645-16.71896178-63.78837333-42.467328z" fill="#FAC573" p-id="7618"></path><path d="M819.81531022 364.03427555s68.39045689 37.04968533 68.39045689 116.1006649v362.22475377c0 21.72882489-15.204352 40.95271822-36.52539733 45.20527645-4.48557511 0.87381333-9.437184 1.39810133-14.79657245 1.39810133H172.37788445c-39.26334578 0-68.21569422 6.40796445-90.701824-33.43792355 1.28159289 38.62254933 13.51497955 92.62421333 142.83935288 92.62421333h653.61237334l4.66033778-4.66033778c42.11780267-6.34971022 84.58513067-30.00092445 84.58513066-117.55702045V465.74614755c0-55.86579911-54.64246045-114.87732622-147.55794489-101.711872z" fill="#EF981A" p-id="7619"></path><path d="M387.16120178 234.651648c14.33053867 0 27.20472178 8.62162489 32.73887289 21.78707911l27.02995911 64.60393244a35.43604338 35.43604338 0 0 0 32.73887289 21.78707912h373.99210666c0.93206755 0 1.86413511 0.11650845 2.79620267 0.11650844V191.135744c0-36.99143111-30.00092445-66.99235555-66.99235555-66.99235555h-534.19121778c-36.99143111 0-66.99235555 30.00092445-66.99235556 66.99235555v43.515904h198.87991467z" fill="#C5DAFF" p-id="7620"></path><path d="M731.03587555 128.745472s51.03069867 11.70909867 51.03069867 68.62347378v142.66459022h71.59443911V235.00117333c0-65.30298311 3.78652445-116.27542755-122.62513778-106.25570133z" fill="#9AC0EF" p-id="7621"></path><path d="M879.75890489 339.21797689V191.135744c0-49.74910578-40.48668445-90.29404445-90.29404444-90.29404445h-534.19121778c-49.74910578 0-90.29404445 40.48668445-90.29404445 90.29404445v38.04000711c-65.76901689 7.22352355-117.09098667 63.08932267-117.09098667 130.72247467v482.40321422c0 72.52650667 59.01152711 131.53803378 131.53803378 131.53803378h674.29262222c72.52650667 0 131.53803378-59.01152711 131.53803378-131.53803378V468.13457067c-0.05825422-63.61361067-45.43829333-116.79971555-105.49839644-128.91659378zM211.582976 191.135744c0-24.05899378 19.57341867-43.69066667 43.69066667-43.69066667h534.249472c24.05899378 0 43.69066667 19.57341867 43.69066666 43.69066667v145.46079289h-335.54432c-15.84514845 0-30.05917867-9.437184-36.175872-24.05899378l-13.1072-31.39902578c0-0.05825422-0.05825422-0.05825422-0.05825422-0.11650844l-6.87399822-16.48594489c-9.14591289-21.96184178-30.46695822-36.11761778-54.23468089-36.11761778H211.582976v-37.28270222z m727.01269333 651.22395022c0 46.83639467-38.09826133 84.934656-84.934656 84.934656H179.36839111c-46.83639467 0-84.934656-38.09826133-84.934656-84.934656V359.89822578c0-46.83639467 38.09826133-84.934656 84.934656-84.934656h189.792256c15.84514845 0 30.00092445 9.437184 36.175872 24.05899377l20.09770667 48.05973334c9.14591289 21.96184178 30.46695822 36.11761778 54.23468089 36.11761778h373.93385244c0.75730489 0.05825422 1.51460978 0.11650845 2.27191467 0.11650844h0.524288c45.55480178 1.45635555 82.19670755 38.85556622 82.19670755 84.75989334v374.28337777z" fill="#211D38" p-id="7622"></path><path d="M807.64017778 772.39637333h-244.20169956c-12.87418311 0-23.30168889 10.42750578-23.30168889 23.30168889s10.42750578 23.30168889 23.30168889 23.30168889h244.20169956c12.87418311 0 23.30168889-10.42750578 23.30168889-23.30168889s-10.48576-23.30168889-23.30168889-23.30168889z" fill="#211D38" p-id="7623"></path><path d="M108.76427378 676.91770311a14.56355555 14.56355555 0 0 1-14.56355556-14.56355556V586.56540445a14.56355555 14.56355555 0 0 1 29.12711111 0v75.7887431c0 8.03908267-6.46621867 14.56355555-14.56355555 14.56355556zM108.76427378 524.00036978a14.56355555 14.56355555 0 0 1-14.56355556-14.56355556V358.383616c0-45.84607289 37.28270222-83.12877511 83.12877511-83.12877511H264.41955555a14.56355555 14.56355555 0 0 1 0 29.12711111H177.38774755c-29.76790755 0-54.001664 24.23375645-54.001664 54.001664v151.05319822a14.62180978 14.62180978 0 0 1-14.62180977 14.56355556zM391.29725155 179.71791645H243.97232355a14.56355555 14.56355555 0 0 1 0-29.12711112h147.26667378a14.56355555 14.56355555 0 0 1 0.05825422 29.12711112z" fill="#FFFFFF" p-id="7624"></path><path d="M492.54308978 179.71791645h-37.224448a14.56355555 14.56355555 0 0 1 0-29.12711112h37.224448a14.56355555 14.56355555 0 0 1 0 29.12711112z" fill="#FFFFFF" p-id="7625"></path><path d="M113.07508622 129.96881067c-2.50493155-5.59240533-9.02940445-8.03908267-14.62180977-5.59240534l-14.03926756 6.291456-6.291456-14.03926755c-2.50493155-5.59240533-9.02940445-8.03908267-14.62180978-5.59240533-5.59240533 2.50493155-8.03908267 9.02940445-5.59240533 14.56355555l6.291456 14.03926755-14.03926756 6.291456c-5.59240533 2.50493155-8.03908267 9.02940445-5.59240533 14.56355556 1.86413511 4.07779555 5.88367645 6.52447289 10.07798044 6.52447289 1.51460978 0 3.02921955-0.29127111 4.48557512-0.99032178l14.03926755-6.291456 6.291456 14.03926756c1.86413511 4.07779555 5.88367645 6.52447289 10.07798045 6.52447289 1.51460978 0 3.02921955-0.29127111 4.4855751-0.99032178 5.59240533-2.50493155 8.03908267-9.02940445 5.59240534-14.56355556L93.50166755 150.82382222l14.03926756-6.291456c5.53415111-2.44667733 8.03908267-8.97115022 5.53415111-14.56355555z" fill="#E2E5F1" p-id="7626"></path><path d="M886.74941155 40.78159645c-2.50493155-5.59240533-9.02940445-8.03908267-14.62180977-5.59240534l-14.03926756 6.291456-6.291456-14.03926756c-2.50493155-5.59240533-9.02940445-8.03908267-14.62180977-5.59240533-5.59240533 2.50493155-8.03908267 9.02940445-5.59240534 14.56355556l6.291456 14.03926755-14.03926756 6.291456c-5.59240533 2.50493155-8.03908267 9.02940445-5.59240533 14.56355556 1.86413511 4.07779555 5.88367645 6.52447289 10.07798045 6.52447289 1.51460978 0 3.02921955-0.29127111 4.48557511-0.99032178l14.03926755-6.291456 6.291456 14.03926755c1.86413511 4.07779555 5.88367645 6.52447289 10.07798045 6.5244729 1.51460978 0 3.02921955-0.29127111 4.48557511-0.99032178 5.59240533-2.50493155 8.03908267-9.02940445 5.59240533-14.56355556l-6.291456-14.03926756 14.03926756-6.291456c5.70891378-2.38842311 8.21384533-8.912896 5.70891377-14.4470471z" fill="#E2E5F1" p-id="7627"></path><path d="M458.75564089 690.08315733c-2.50493155-5.59240533-9.02940445-8.03908267-14.62180978-5.59240533l-14.03926756 6.291456-6.291456-14.03926755c-2.50493155-5.59240533-9.02940445-8.03908267-14.62180977-5.59240534-5.59240533 2.50493155-8.03908267 9.02940445-5.59240533 14.56355556l6.291456 14.03926755-14.03926756 6.291456c-5.59240533 2.50493155-8.03908267 9.02940445-5.59240534 14.56355556 1.86413511 4.07779555 5.88367645 6.52447289 10.07798045 6.52447289 1.51460978 0 3.02921955-0.29127111 4.48557511-0.99032178l14.03926756-6.291456 6.291456 14.03926756c1.86413511 4.07779555 5.88367645 6.52447289 10.07798044 6.52447288 1.51460978 0 3.02921955-0.29127111 4.48557511-0.99032178 5.59240533-2.50493155 8.03908267-9.02940445 5.59240533-14.56355555l-6.291456-14.03926755 14.03926756-6.291456c5.70891378-2.38842311 8.21384533-8.912896 5.70891378-14.44704712z" fill="#E2E5F1" p-id="7628"></path></svg>