<?xml version="1.0" standalone="no"?><!DOCTYPE svg PUBLIC "-//W3C//DTD SVG 1.1//EN"
		"http://www.w3.org/Graphics/SVG/1.1/DTD/svg11.dtd">
<svg t="1742997365792" class="icon" viewBox="0 0 1024 1024" version="1.1" xmlns="http://www.w3.org/2000/svg" p-id="2788"
     width="200" height="200">
	<path d="M253.73354667 166.13376m-101.96309334 0a101.96309333 101.96309333 0 1 0 203.92618667 0 101.96309333 101.96309333 0 1 0-203.92618667 0Z"
	      fill="#F67271" p-id="2789"></path>
	<path d="M472.40533333 149.96821333m-85.79754666 0a85.79754667 85.79754667 0 1 0 171.59509333 0 85.79754667 85.79754667 0 1 0-171.59509333 0Z"
	      fill="#F67271" p-id="2790"></path>
	<path d="M671.25248 191.09205333m-67.72053333 0a67.72053333 67.72053333 0 1 0 135.44106666 0 67.72053333 67.72053333 0 1 0-135.44106666 0Z"
	      fill="#FF5A5A" p-id="2791"></path>
	<path d="M808.82346667 283.17013333m-49.58890667 0a49.58890667 49.58890667 0 1 0 99.17781333 0 49.58890667 49.58890667 0 1 0-99.17781333 0Z"
	      fill="#F5504E" p-id="2792"></path>
	<path d="M777.69386667 422.87104c-43.90912-131.072-155.48416-132.49194667-201.46858667-132.49194667H360.12032c-99.01397333 0-154.06421333 56.47018667-167.33525333 94.09877334s-20.20693333 75.96714667 59.25546666 141.50314666 33.04106667 164.6592 18.8416 190.32746667c-10.81344 19.49696-37.62858667 45.32906667-39.04853333 99.01397333-1.41994667 53.68490667 25.12213333 139.42784 177.11104 151.98890667 208.45909333 8.35584 300.48256-162.42005333 308.18304-179.18634667s46.03904-131.78197333 60.67541333-172.19584c14.52714667-40.35925333 20.80768-126.81216-0.10922666-193.05813333z m-376.72277334 309.43914667a27.230208 27.230208 0 0 1-23.53834666 13.38026666c-4.75136 0-9.50272-1.25610667-13.87178667-3.82293333a27.262976 27.262976 0 0 1-9.55733333-37.41013333c62.14997333-104.8576-1.09226667-191.03744-3.82293334-194.64192-9.0112-12.01493333-6.71744-29.10890667 5.24288-38.22933334a27.164672 27.164672 0 0 1 38.12010667 5.07904c3.65909333 4.75136 88.74666667 118.34709333 7.42741333 255.64501334z"
	      fill="#F5504E" p-id="2793"></path>
	<path d="M790.03648 548.91861333c2.89450667-39.86773333 0.10922667-86.50752-12.34261333-126.04757333-43.90912-131.072-155.48416-132.49194667-201.46858667-132.49194667H360.12032c-99.01397333 0-154.06421333 56.47018667-167.33525333 94.09877334s-20.20693333 75.96714667 59.25546666 141.50314666 33.04106667 164.6592 18.8416 190.32746667c-10.81344 19.49696-37.62858667 45.32906667-39.04853333 99.01397333-0.32768 13.05258667 0.98304 28.07125333 5.40672 43.4176 41.34229333 5.7344 84.10453333 6.60821333 127.46752 1.96608 194.1504-20.53461333 352.31061333-144.72533333 425.32864-311.78752z m-389.06538667 183.39157334a27.230208 27.230208 0 0 1-23.53834666 13.38026666c-4.75136 0-9.50272-1.25610667-13.87178667-3.82293333a27.262976 27.262976 0 0 1-9.55733333-37.41013333c62.14997333-104.8576-1.09226667-191.03744-3.82293334-194.64192-9.0112-12.01493333-6.71744-29.10890667 5.24288-38.22933334a27.164672 27.164672 0 0 1 38.12010667 5.07904c3.65909333 4.75136 88.74666667 118.34709333 7.42741333 255.64501334zM759.23456 283.17013333a49.58890667 49.58890667 0 0 0 49.58890667 49.58890667c9.0112 0 17.36704-2.40298667 24.63061333-6.60821333-0.38229333-13.9264-1.25610667-27.90741333-2.78528-41.99765334-1.74762667-16.384-4.25984-32.54954667-7.42741333-48.38741333-4.58752-1.36533333-9.44810667-2.12992-14.47253334-2.12992-27.36128-0.05461333-49.53429333 22.17301333-49.53429333 49.53429333z"
	      fill="#FF5A5A" p-id="2794"></path>
	<path d="M699.10528 318.45034667c-45.54752-27.57973333-95.68256-28.07125333-122.93461333-28.07125334H360.06570667c-99.01397333 0-154.06421333 56.47018667-167.33525334 94.09877334s-20.20693333 75.96714667 59.25546667 141.50314666c55.10485333 45.43829333 49.69813333 106.93290667 36.42709333 149.03978667 30.20117333-5.13365333 59.36469333-12.83413333 87.38133334-22.77376 20.20693333-79.89930667-23.42912-139.48245333-25.66826667-142.48618667-9.0112-12.01493333-6.71744-29.10890667 5.24288-38.22933333a27.164672 27.164672 0 0 1 38.12010667 5.07904c2.67605333 3.44064 48.27818667 64.44373333 41.83381333 150.18666667 125.77450667-63.18762667 220.96554667-174.98112 263.7824-308.34688zM723.95434667 148.65749333a67.47477333 67.47477333 0 0 0-52.70186667-25.23136c-37.41013333 0-67.72053333 30.3104-67.72053333 67.72053334s30.3104 67.72053333 67.72053333 67.72053333c18.0224 0 34.29717333-7.04512 46.42133333-18.51392a520.35584 520.35584 0 0 0 6.28053334-91.69578667z"
	      fill="#F66A68" p-id="2795"></path>
	<path d="M500.64042667 290.43370667H360.06570667c-99.01397333 0-154.06421333 56.47018667-167.33525334 94.09877333-10.97728 31.18421333-17.58549333 62.85994667 25.55904 110.04586667 117.03637333-34.46101333 215.55882667-107.97056 282.35093334-204.14464z"
	      fill="#F67271" p-id="2796"></path>
	<path d="M354.54976 151.82506667C347.61386667 102.29077333 305.17930667 64.17066667 253.73354667 64.17066667c-56.30634667 0-101.96309333 45.65674667-101.96309334 101.96309333 0 48.3328 33.69642667 88.74666667 78.80704 99.23242667a478.43464533 478.43464533 0 0 0 123.97226667-113.54112z"
	      fill="#F67B7A" p-id="2797"></path>
</svg>