<?xml version="1.0" standalone="no"?><!DOCTYPE svg PUBLIC "-//W3C//DTD SVG 1.1//EN"
		"http://www.w3.org/Graphics/SVG/1.1/DTD/svg11.dtd">
<svg t="1742996330136" class="icon" viewBox="0 0 1024 1024" version="1.1" xmlns="http://www.w3.org/2000/svg" p-id="2694"
     width="200" height="200">
	<path d="M419.41462282 302.59548918s-69.59437748-59.65232355-104.39156623 26.71926993c0 0-41.63235082 298.26161778-68.35162074 341.75810371 0 0-19.26272948 55.30267497-55.30267496 12.4275674 0 0 1.24275675 54.05991822 57.16681008 49.71026963 0 0 31.69029689-6.83516208 45.9819994-65.24472888 0 0 65.24472889-282.10578015 60.8950803-321.87399586 13.67032415-59.03094518 42.87510755-54.68129659 64.00197215-43.49648593z"
	      fill="#E73332" p-id="2695"></path>
	<path d="M511.37862163 302.59548918s-69.59437748-59.65232355-104.39156622 26.71926993c0 0-41.63235082 298.26161778-67.73024238 341.75810371 0 0-19.26272948 55.30267497-55.30267495 12.4275674 0 0 1.24275675 54.05991822 57.16681007 49.71026963 0 0 31.69029689-6.83516208 45.9819994-65.24472888 0 0 65.24472889-282.10578015 60.8950803-321.87399586 13.67032415-59.03094518 42.87510755-54.68129659 63.38059378-43.49648593z"
	      fill="#E73332" p-id="2696"></path>
	<path d="M603.96399882 302.59548918s-69.59437748-59.65232355-104.39156623 26.71926993c0 0-41.63235082 298.26161778-67.73024237 341.75810371 0 0-19.26272948 55.30267497-55.30267497 12.4275674 0 0 1.24275675 54.05991822 57.16681008 49.71026963 0 0 31.69029689-6.83516208 45.98199942-65.24472888 0 0 65.24472889-282.10578015 60.89508028-321.87399586 13.67032415-59.03094518 42.25372918-54.68129659 63.38059379-43.49648593z"
	      fill="#E73332" p-id="2697"></path>
	<path d="M695.92799763 302.59548918s-69.59437748-59.65232355-104.39156622 26.71926993c0 0-41.63235082 298.26161778-67.73024238 341.75810371 0 0-19.26272948 55.30267497-55.30267495 12.4275674 0 0 1.24275675 54.05991822 57.16681007 49.71026963 0 0 31.69029689-6.83516208 45.9819994-65.24472888 0 0 65.24472889-282.10578015 60.8950803-321.87399586 13.67032415-59.03094518 42.87510755-54.68129659 63.38059378-43.49648593z"
	      fill="#E73332" p-id="2698"></path>
	<path d="M788.51337482 302.59548918s-69.59437748-59.65232355-104.39156623 26.71926993c0 0-41.63235082 298.26161778-68.35162074 341.75810371 0 0-19.26272948 55.30267497-55.30267496 12.4275674 0 0 1.24275675 54.05991822 57.16681008 49.71026963 0 0 31.69029689-6.83516208 45.9819994-65.24472888 0 0 65.24472889-282.10578015 60.8950803-321.87399586 14.29170252-59.03094518 42.87510755-54.68129659 64.00197215-43.49648593z"
	      fill="#E73332" p-id="2699"></path>
	<path d="M948.82899437 512h-21.12686459c0 114.95499852-46.60337778 218.72518637-121.7901606 293.91196918-75.18678282 75.18678282-178.95697067 121.79016059-293.91196918 121.7901606-114.95499852 0-218.72518637-46.60337778-293.91196918-121.7901606-75.18678282-75.18678282-121.79016059-178.95697067-121.7901606-293.91196918 0-114.95499852 46.60337778-218.72518637 121.7901606-293.91196918C293.27481363 142.901248 397.04500148 96.29787022 512 96.29787022c114.95499852 0 218.72518637 46.60337778 293.91196918 121.7901606 75.18678282 75.18678282 121.79016059 178.95697067 121.7901606 293.91196918h42.25372919c0-252.90099675-205.05486222-457.95585897-457.95585897-457.95585897s-457.95585897 205.05486222-457.95585897 457.95585897 205.05486222 457.95585897 457.95585897 457.95585897 457.95585897-205.05486222 457.95585897-457.95585897h-21.1268646z"
	      fill="#E73332" p-id="2700"></path>
	<path d="M1001.64615585 512h-4.97102696c0 133.59634963-54.05991822 254.76513185-141.67426844 342.37948208C766.76513185 941.9938323 645.59634963 996.67512889 512 996.67512889s-254.76513185-54.05991822-342.37948208-141.67426844C82.0061677 766.76513185 27.32487111 645.59634963 27.32487111 512s54.05991822-254.76513185 141.67426844-342.37948208C257.23486815 82.0061677 378.40365037 27.32487111 512 27.32487111s254.76513185 54.05991822 342.37948208 141.67426844C941.9938323 257.23486815 996.67512889 378.40365037 996.67512889 512H1007.23856118c0-273.40648297-221.83207822-495.23856118-495.23856118-495.23856118S16.76143882 238.59351703 16.76143882 512 238.59351703 1007.23856118 512 1007.23856118s495.23856118-221.83207822 495.23856118-495.23856118h-5.59240533z"
	      fill="#E73332" p-id="2701"></path>
	<path d="M293.27481363 295.13894875s-95.69226903 16.15583763-53.43853985 86.99297184c0 0 19.26272948 24.23375645 42.87510755 24.85513482l-10.5634323 57.78818844s-82.64332325-27.96202667-69.59437748-94.4495123c0.62137837 0 11.18481067-75.18678282 90.72124208-75.1867828zM690.3355923 733.21069985s167.77216-28.58340503 92.58537718-152.23770074c0 0-32.93305363-42.87510755-74.56540445-44.11786429l18.01997275-100.663296s144.15978192 49.08889125 121.16878222 165.28664651c0 0-18.01997275 131.73221452-157.2087277 131.73221452zM364.73332622 187.0191123l21.1268646 17.39859437 26.09789155-7.45654045-9.32067555 25.47651319 14.91308088 22.36962134-27.34064829-1.24275675-16.15583763 21.12686459-7.45654045-26.09789156-25.47651318-9.32067555 22.9909997-14.91308089zM455.4545683 160.92122075l13.04894578 13.04894577 18.01997274-3.10689185-8.69929719 16.15583763 8.69929719 16.15583762-18.01997274-2.48551347-13.04894578 13.04894577-2.48551348-18.01997274-16.777216-8.07791881 16.777216-8.07791882zM530.01997275 149.1150317l6.83516207 11.80618905 13.67032415 0.62137836-8.69929719 10.5634323 3.72827022 13.04894577-13.04894578-4.97102696-11.18481067 6.83516208 1.24275675-13.04894578-10.5634323-8.69929719 13.04894578-3.10689185z"
	      fill="#E73332" p-id="2702"></path>
</svg>