<?xml version="1.0" standalone="no"?><!DOCTYPE svg PUBLIC "-//W3C//DTD SVG 1.1//EN" "http://www.w3.org/Graphics/SVG/1.1/DTD/svg11.dtd">
<svg t="1742988304358" class="icon" viewBox="0 0 1024 1024" version="1.1" xmlns="http://www.w3.org/2000/svg"
     p-id="13979"
     width="200" height="200"><path d="M512.00979219 32.00054844A480.26393906 480.26393906 0 0 0 32.95268375 481.38058156c-18.04761094 286.84182094 222.82491375 527.71434562 509.66673469 509.66673469A479.98965937 479.98965937 0 0 0 512.00979219 32.00054844z" fill="#783FC7" p-id="13980"></path><path d="M232.79295031 518.84720375a269.34276937 269.34276937 0 0 0 52.55201063 162.48335625 269.45248125 269.45248125 0 0 0 134.56167281 101.20924875 16.89563625 16.89563625 0 0 0 5.48559563 1.09711875 6.47300345 6.47300345 0 0 0 3.8399175-1.09711875 7.89925875 7.89925875 0 0 0 2.19423843-1.64567906A7.24098656 7.24098656 0 0 0 432.46864906 778.04162v-57.32448a128.69208469 128.69208469 0 0 1-36.15007875-0.54855938 63.02949938 63.02949938 0 0 1-24.57547031-7.62497906 56.72106375 56.72106375 0 0 1-15.35966906-12.61687031 49.97378062 49.97378062 0 0 1-9.8192175-14.20769436 127.1561175 127.1561175 0 0 1-4.93703625-12.56201533 47.39555062 47.39555062 0 0 0-3.29135813-8.22839343 48.87666094 48.87666094 0 0 0-14.20769344-14.75625375q-9.87407344-7.18613063-14.81110968-11.51975157c-3.23650125-2.52337406-3.62049375-5.10160406-1.04226282-7.62497906q27.42798094-14.26255031 61.82266782 36.09522281 18.59617125 27.92168437 64.56546656 16.45678781a80.9125425 80.9125425 0 0 1 21.94238437-38.39917218q-62.86493156-10.97119219-93.25513406-46.51785563a124.52303156 124.52303156 0 0 1-30.66448219-86.45299406 120.68311406 120.68311406 0 0 1 30.11592282-82.28394188 108.55994719 108.55994719 0 0 1 2.74279781-74.93324343 82.6130775 82.6130775 0 0 1 36.09522188 5.48559656 170.49232688 170.49232688 0 0 1 27.42798093 12.61687125q7.62497813 5.48559655 13.65913407 10.36777594a266.38054687 266.38054687 0 0 1 70.5996225-8.72209782 269.83647281 269.83647281 0 0 1 70.54476562 8.72209782c4.77246844-3.62049375 10.03864125-7.2958425 15.90822844-10.97119219a157.49146406 157.49146406 0 0 1 26.76970969-11.51975156 75.15266625 75.15266625 0 0 1 33.40728-4.88218032 110.80904156 110.80904156 0 0 1 3.29135719 73.28756438 122.27393719 122.27393719 0 0 1 30.60962624 83.16163687 127.21097344 127.21097344 0 0 1-30.99361781 86.17871438q-31.21304156 35.5466625-94.68138843 47.066415a75.37209094 75.37209094 0 0 1 24.08176688 56.88563156v71.69674125c1.09711969 6.52785938 2.19423844 9.27065719 3.29135718 8.17353844s3.07193344-0.54855938 6.03415594 1.64567812a275.48663625 275.48663625 0 0 0 137.1399028-101.20924781 271.70157563 271.70157563 0 0 0 53.10057001-164.12903531 277.79058656 277.79058656 0 0 0-21.94238438-108.88908281 284.6475825 284.6475825 0 0 0-59.68328531-88.64723344 291.66914531 291.66914531 0 0 0-89.14093688-59.62842938 277.95515531 277.95515531 0 0 0-108.88908281-21.94238531 283.76988656 283.76988656 0 0 0-197.48146031 80.96739938A279.38140969 279.38140969 0 0 0 255.22903812 409.95812094a271.59186375 271.59186375 0 0 0-22.43608781 108.88908281z" fill="#FFFFFF" p-id="13981"></path></svg>