<?xml version="1.0" standalone="no"?><!DOCTYPE svg PUBLIC "-//W3C//DTD SVG 1.1//EN" "http://www.w3.org/Graphics/SVG/1.1/DTD/svg11.dtd">
<svg t="1742988291661" class="icon" viewBox="0 0 1024 1024" version="1.1" xmlns="http://www.w3.org/2000/svg"
     p-id="13024"
     width="200" height="200"><path d="M427.52 1020.52165122c13.312 8.484571 163.913143 4.24228601 172.763429 0 26.624-21.35771401 119.66171399-162.084571 4.461714-264.411429-159.451429-149.211429-93.03771399-243.05371401-93.037714-243.053714s-389.851429 183.369143-84.114286 507.465143" fill="#FFEB7A" p-id="13025"></path><path d="M777.508571 346.80279322C742.107429 402.24507922 697.782857 427.84507922 697.782857 427.84507922 781.897143 103.82222222 431.98171399 1.42222222 431.98171399 1.42222222 533.86971399 359.60279322 73.142857 389.44507922 73.142857 679.38336522c0 289.93828601 354.377143 341.13828599 354.377143 341.138286-305.664-324.022857 84.187429-507.465143 84.187429-507.46514299s-66.41371399 93.84228599 93.037714 243.05371399c115.2 102.4-13.312 264.411429-13.312 264.411429 115.2 0 358.838857-144.969143 358.838857-341.138286 0-200.411429-172.763429-332.580571-172.763429-332.580572" fill="#FF8008" p-id="13026"></path></svg>