<?xml version="1.0" standalone="no"?><!DOCTYPE svg PUBLIC "-//W3C//DTD SVG 1.1//EN"
		"http://www.w3.org/Graphics/SVG/1.1/DTD/svg11.dtd">
<svg t="1742996748913" class="icon" viewBox="0 0 1141 1024" version="1.1" xmlns="http://www.w3.org/2000/svg" p-id="2694"
     width="222.8515625" height="200">
	<path d="M597.75979733 79.69051735l403.6202656 362.8468704v572.36833598H141.14623253V442.53738775z" fill="#EEEEFC"
	      p-id="2695"></path>
	<path d="M581.56672747 97.70542827l403.6251104 362.85171628a24.20238933 24.20238933 0 0 1-8.02869974-18.01491095v572.36833493a24.22661547 24.22661547 0 0 1 24.22661547-24.22661547H141.14623253a24.22661547 24.22661547 0 0 1 24.22661547 24.22661547V442.53738775a24.25568747 24.25568747 0 0 1-9.15281493 18.96943998l456.60872-362.85656106a24.20723413 24.20723413 0 0 1-31.2620256-0.9448384zM116.91961707 442.53738775v572.36833598a24.22661547 24.22661547 0 0 0 24.22661546 24.22661547h860.23867627a24.22661547 24.22661547 0 0 0 24.22661547-24.22661547V442.53738775a24.2459968 24.2459968 0 0 0-8.0287008-18.01491095l-403.6202656-362.85656213a24.21208 24.21208 0 0 0-31.2668704-0.94483841l-456.62325547 362.85171627a24.2169248 24.2169248 0 0 0-9.15281493 18.96459522z"
	      fill="#6E6E96" p-id="2696"></path>
	<path d="M593.01622613 25.84928533L367.39375253 214.15308055V94.14896107H197.18239467v262.06899413L33.70119147 508.7293472l111.33098986 120.01381013 443.0951136-394.92775573 429.5815072 385.29525333 110.38130667-110.38130773z"
	      fill="#FF9494" p-id="2697"></path>
	<path d="M577.49181013 7.2480896L351.8741824 195.5518848a24.22661547 24.22661547 0 0 1 39.75103147 18.60604053V94.14896107a24.22661547 24.22661547 0 0 0-24.22661547-24.22661546H197.18239467a24.22661547 24.22661547 0 0 0-24.22661547 24.22661546v262.06899413a24.22661547 24.22661547 0 0 1 7.69921813-17.71450133l-163.4812032 152.52108266a24.23146133 24.23146133 0 0 0-1.23555733 34.19344642l111.33098987 120.01865492a24.22661547 24.22661547 0 0 0 33.87850026 1.60864639l443.09511254-394.92775573a24.241152 24.241152 0 0 1-32.29892374-0.05329813l429.5815072 385.304944a24.23630613 24.23630613 0 0 0 33.30675094-0.91092053l110.37646186-110.37161707a24.22661547 24.22661547 0 0 0-0.8915392-35.11405653L609.24321387 7.8634464a24.22661547 24.22661547 0 0 0-31.75140374-0.6153568z m533.47008214 484.35304106l-110.38130774 110.38130667a24.2169248 24.2169248 0 0 1 33.306752-0.91092053L604.30582933 215.77626346a24.23630613 24.23630613 0 0 0-32.2989248-0.05329813L128.91179093 610.65556587a24.22661547 24.22661547 0 0 1 33.87850027 1.60864746L51.45930027 492.25040321a24.22661547 24.22661547 0 0 1-1.23555734 34.19344639L213.7049472 373.92761173a24.2169248 24.2169248 0 0 0 7.704064-17.71450133V94.14896107a24.22661547 24.22661547 0 0 1-24.22661653 24.22661546h170.21135786a24.22661547 24.22661547 0 0 1-24.22661546-24.22661546v120.00896426a24.22661547 24.22661547 0 0 0 39.7461856 18.60119574l225.6224736-188.30379414a24.22661547 24.22661547 0 0 1-31.75624854-0.61535678l535.07872854 482.88006291a24.1878528 24.1878528 0 0 1-7.9802464-17.36563839 24.20238933 24.20238933 0 0 1 7.0838624-17.75326401z"
	      fill="#6E6E96" p-id="2698"></path>
	<path d="M379.13397013 1015.2400512V807.53558187c0-114.22849387 87.72942187-207.69962347 194.96611414-207.6996224s194.96611413 93.4711296 194.96611413 207.6996224v207.70446933H379.13397013z"
	      fill="#93A5CC" p-id="2699"></path>
	<path d="M403.36058667 1015.2400512V807.53558187c0-101.17034773 76.59486827-183.47300693 170.7394976-183.47300694 94.15432 0 170.7394976 82.3026592 170.7394976 183.47300694v207.70446933l24.22661653-24.22661654H379.13397013l24.22661654 24.22661654z m389.93707306 0V807.53558187c0-127.89230507-98.3309888-231.92623893-219.1927296-231.92623892s-219.1927296 104.04362453-219.1927296 231.92623892v231.9310848h438.390304v-24.22661547z"
	      fill="#6E6E96" p-id="2700"></path>
	<path d="M165.372848 936.5035488h811.78544427v78.40217493H165.372848zM165.372848 708.77336l421.2523968-377.9303616 390.52820267 348.8584224 23.42713706-77.72867413-412.4532896-368.15734507-426.9747232 388.78388587z"
	      fill="#6E6E96" p-id="2701"></path>
	<path d="M1012.86347947 537.31190935l-429.5815072-385.3000992-443.0951136 394.93260158-83.68357654-90.21022718L28.85586773 482.52584l111.33099094 120.01381013 443.0951136-394.9326016 429.5815072 385.29525334 110.38130666-110.37646187-29.222144-26.3730944z"
	      fill="#6E6E96" p-id="2702"></path>
</svg>