<?xml version="1.0" standalone="no"?><!DOCTYPE svg PUBLIC "-//W3C//DTD SVG 1.1//EN" "http://www.w3.org/Graphics/SVG/1.1/DTD/svg11.dtd">
<svg t="1742988302514" class="icon" viewBox="0 0 1025 1024" version="1.1" xmlns="http://www.w3.org/2000/svg"
     p-id="13816"
     width="200.1953125" height="200"><path d="M357.71428584 357.71428584m-295.71428584 0a295.71428584 295.71428584 0 1 0 591.42857168 0 295.71428584 295.71428584 0 1 0-591.42857168 0Z" fill="#8CF6FB" p-id="13817"></path><path d="M582.71428584 962c-10.28571416 0-19.28571416-3.85714248-27-11.57142832 0 0-293.14285752-154.28571416-297-154.28571416H144.28571416c-42.42857168 0-77.14285752-34.71428584-77.14285664-77.14285752V323c0-42.42857168 34.71428584-77.14285752 75.85714248-77.14285752h115.71428584L555.71428584 73.57142832c6.42857168-7.71428584 16.71428584-11.57142832 27-11.57142832 20.57142832 0 38.57142832 16.71428584 38.57142832 38.57142832v822.85714336c0 21.85714248-16.71428584 38.57142832-38.57142832 38.57142832z m-25.71428584-810L298.57142832 298.57142832c-11.57142832 7.71428584-24.42857168 12.85714248-37.28571416 12.85714336h-115.71428584c-6.42857168 0-12.85714248 5.14285752-12.85714248 12.85714248v397.28571417c0 6.42857168 5.14285752 12.85714248 12.85714248 12.85714334h114.42857168c7.71428584 0 15.42857168 1.28571416 23.14285752 3.85714249 10.28571416 5.14285752 249.42857167 120.85714248 275.14285664 137.57142832L557 152z" fill="#3C2DCB" p-id="13818"></path><path d="M856.57142832 758.85714248c-6.42857168 6.42857168-14.14285752 10.28571416-23.14285664 10.28571504s-16.71428584-3.85714248-23.14285752-9c-12.85714248-12.85714248-12.85714248-32.14285752 0-45 113.14285752-113.14285752 117-294.42857168 5.14285752-408.85714336l-6.42857168-6.42857168c-12.85714248-12.85714248-12.85714248-32.14285752 0-45s33.42857168-12.85714248 46.28571416 0c138.85714248 135 141.42857168 358.71428584 6.42857168 497.5714292 0 2.57142833-2.57142833 3.85714248-5.14285752 6.4285708z m-122.14285665-90c-6.42857168 6.42857168-14.14285752 9-23.14285751 9s-16.71428584-3.85714248-23.14285664-9c-12.85714248-11.57142832-12.85714248-30.85714248-1.28571504-43.71428496l1.28571504-1.28571504c61.71428584-57.85714248 65.57142832-154.28571416 7.71428496-216l-7.71428496-7.71428496c-12.85714248-11.57142832-12.85714248-30.85714248-1.28571504-43.71428584l1.28571504-1.28571416c12.85714248-12.85714248 33.42857168-12.85714248 46.28571416 0 86.14285752 81 91.28571416 216 10.28571416 303.4285708-3.85714248 2.57142833-6.42857168 6.42857168-10.28571416 10.28571416z" fill="#D098FF" p-id="13819"></path></svg>