<?xml version="1.0" standalone="no"?><!DOCTYPE svg PUBLIC "-//W3C//DTD SVG 1.1//EN" "http://www.w3.org/Graphics/SVG/1.1/DTD/svg11.dtd">
<svg t="1742993595969" class="icon" viewBox="0 0 1024 1024" version="1.1" xmlns="http://www.w3.org/2000/svg" p-id="3173"
     width="200" height="200"><path d="M15.499264 113.74045866m145.63555555 0l703.71100445 0q145.63555555 0 145.63555555 145.63555555l0 568.15342934q0 145.63555555-145.63555555 145.63555556l-703.71100445 0q-145.63555555 0-145.63555555-145.63555556l0-568.15342934q0-145.63555555 145.63555555-145.63555555Z" fill="#B095FF" p-id="3174"></path><path d="M461.20231822 558.16191999a135.67408355 135.67408355 0 1 0-201.03532089 0 203.48199822 203.48199822 0 0 0-102.760448 176.56854756 43.69066667 43.69066667 0 0 0 87.38133334 0 115.92590222 115.92590222 0 0 1 231.79355022 0 43.69066667 43.69066667 0 0 0 87.38133333 0 203.36548978 203.36548978 0 0 0-102.760448-176.56854756zM360.53902222 418.81782044A48.35100445 48.35100445 0 1 1 312.42103467 467.28533333 48.35100445 48.35100445 0 0 1 360.53902222 418.81782044zM866.59345067 401.86584177a43.69066667 43.69066667 0 0 0-43.69066667-43.69066666h-183.67556267a43.69066667 43.69066667 0 0 0 0 87.38133333h183.67556267a43.69066667 43.69066667 0 0 0 43.69066667-43.69066667zM822.902784 665.34968888H732.20096a43.69066667 43.69066667 0 0 0 0 87.38133333h90.701824a43.69066667 43.69066667 0 0 0 0-87.38133333zM822.902784 516.27713421H697.24842667a43.69066667 43.69066667 0 0 0 0 87.38133334h125.65435733a43.69066667 43.69066667 0 0 0 0-87.38133334z" fill="#FFCD43" p-id="3175"></path></svg>