<?xml version="1.0" standalone="no"?><!DOCTYPE svg PUBLIC "-//W3C//DTD SVG 1.1//EN"
		"http://www.w3.org/Graphics/SVG/1.1/DTD/svg11.dtd">
<svg t="1749721086285" class="icon" viewBox="0 0 1024 1024" version="1.1" xmlns="http://www.w3.org/2000/svg" p-id="3439"
     width="200" height="200">
	<path d="M824.36328125 531.79036458c-1.23046875-1.14257813-2.54882813-2.19726563-3.69140625-3.33984375-16.78710938-17.2265625-27.24609375-40.78125-27.24609375-66.796875 0-22.32421875 7.99804688-42.62695313 20.83007813-58.97460938 0.3515625-0.43945313 0.61523438-0.79101563 0.96679687-1.14257812 26.71875-32.6953125 42.80273438-74.44335938 42.80273438-119.97070313 0-98.17382813-74.61914063-178.85742188-170.15625001-188.61328123-54.40429688-7.55859375-109.86328125-11.77734375-166.28906249-11.77734377-56.33789063 0-111.70898438 4.21875-165.93750001 11.77734375-11.33789063 1.58203125-22.58789063 3.33984375-33.74999999 5.18554688C235.14453125 118.0891927 167.20507812 186.46809895 147.95703125 273.39192708c-0.96679688 4.74609375-1.66992188 9.58007813-2.54882813 14.32617189C131.43359375 360.75520833 123.875 436.07747395 123.875 513.15755208c0 77.16796875 7.55859375 152.49023438 21.53320313 225.52734375 0.87890625 4.74609375 1.58203125 9.58007813 2.54882812 14.23828125 19.51171875 88.06640625 89.03320313 157.32421875 177.36328125 176.22070314 2.72460938 0.43945313 5.36132813 1.0546875 8.0859375 1.40624998 4.13085938 0.703125 8.26171875 1.40625 12.48046875 1.93359375 1.93359375 0.26367188 3.95507813 0.43945313 5.88867188 0.703125 55.45898438 7.91015625 112.06054688 12.21679688 169.62890624 12.21679688 57.74414063 0 114.43359375-4.30664063 169.98046876-12.21679688 0.79101563-0.08789063 1.66992188-0.17578125 2.46093749-0.3515625 6.24023438-0.703125 12.48046875-1.66992188 18.54492188-2.8125 1.14257813-0.17578125 2.28515625-0.43945313 3.42773437-0.61523437 105.1171875-21.97265625 184.13085938-115.13671875 184.13085938-226.7578125 0.17578125-67.67578125-29.09179688-128.49609375-75.5859375-170.859375z"
	      fill="#33ABE3" p-id="3440"></path>
	<path d="M521.4921875 963.33333333c-56.51367188 0-114.43359375-4.13085938-172.17773438-12.39257813l-5.97656249-0.79101562c-4.04296875-0.52734375-8.52539063-1.23046875-13.0078125-2.02148436-1.23046875-0.17578125-2.8125-0.52734375-4.39453125-0.79101564l-3.515625-0.61523436c-95.80078125-20.47851563-170.77148438-94.921875-191.77734376-189.84375002-0.61523438-3.1640625-1.14257813-5.9765625-1.58203124-8.87695312-0.3515625-2.02148438-0.703125-3.95507813-1.0546875-5.9765625-14.50195313-75.84960938-21.88476563-152.9296875-21.88476563-228.8671875 0-76.02539063 7.3828125-153.01757813 21.88476563-228.8671875 0.3515625-1.93359375 0.703125-3.95507813 1.0546875-5.9765625 0.52734375-2.90039063 0.96679688-5.71289063 1.58203125-8.52539063C151.20898437 176.36067708 224.68554687 102.2688802 317.76171875 80.73567708c12.39257813-2.109375 23.81835938-3.8671875 35.33203125-5.53710938C409.87109375 67.37630208 466.56054687 63.33333333 521.4921875 63.33333333c55.10742188 0 111.88476563 4.04296875 168.75 11.953125 105.46875 10.72265625 185.53710938 99.40429688 185.53710938 206.19140625 0 47.72460938-16.61132813 94.30664063-46.84570313 131.22070314L814.16796875 402.59114583l13.97460938 10.98632814c-11.07421875 14.15039063-16.96289063 30.67382813-16.96289063 47.98828123 0 20.390625 7.91015625 39.7265625 22.23632813 54.40429688 0.43945313 0.43945313 0.87890625 0.79101563 1.23046874 1.14257814l1.66992188 1.49414061c51.85546875 47.28515625 81.5625 114.43359375 81.5625 184.13085939 0 117.50976563-83.40820313 220.16601563-198.28125 244.16015623l-4.21875 0.79101563c-6.328125 1.23046875-13.0078125 2.28515625-19.51171875 2.98828125l-1.14257813 0.17578125c-58.53515625 8.26171875-116.54296875 12.48046875-173.23242187 12.48046875z m0-864.4921875c-53.34960938 0-108.36914063 3.8671875-163.56445313 11.6015625-11.16210938 1.58203125-22.23632813 3.25195313-33.31054687 5.09765625-78.75 18.19335938-141.6796875 81.73828125-159.34570313 161.63085939-0.43945313 2.109375-0.87890625 4.5703125-1.23046874 7.03124998-0.3515625 2.19726563-0.79101563 4.48242188-1.14257813 6.6796875-14.15039063 73.74023438-21.26953125 148.44726563-21.26953125 222.18750002s7.11914063 148.53515625 21.26953125 222.18749998c0.43945313 2.19726563 0.79101563 4.48242188 1.14257813 6.67968752 0.43945313 2.4609375 0.79101563 4.921875 1.31835937 7.3828125 17.9296875 81.29882813 82.265625 145.10742188 163.74023438 162.59765623l7.20703124 1.23046877c4.13085938 0.703125 7.99804688 1.31835938 11.86523438 1.84570311l6.24023437 0.79101564c56.07421875 7.99804688 112.32421875 12.04101563 167.16796876 12.04101561 54.93164063 0 111.26953125-4.04296875 167.51953124-12.04101561l1.66992188-0.17578125c0.26367188 0 1.23046875-0.17578125 1.40625-0.17578125 5.80078125-0.61523438 11.51367188-1.49414063 17.13867188-2.63671875l3.8671875-0.703125c97.82226563-20.390625 169.36523438-108.45703125 169.36523437-209.26757814 0-59.765625-25.48828125-117.33398438-69.9609375-157.8515625l-0.08789063-0.08789063-1.0546875-0.87890625c-1.14257813-1.0546875-2.28515625-2.02148438-3.33984375-3.1640625-21.00585938-21.4453125-32.43164063-49.5703125-32.43164062-79.27734373 0-25.3125 8.52539063-49.48242188 24.609375-69.9609375 0.08789063-0.17578125 0.79101563-0.96679688 0.87890625-1.14257814 25.3125-30.9375 39.11132813-69.52148438 39.11132813-109.07226561 0-88.50585938-66.26953125-161.98242188-154.16015626-170.94726564-55.98632813-7.64648438-111.18164063-11.6015625-164.61914062-11.6015625z"
	      fill="#403F3F" p-id="3441"></path>
	<path d="M779.09960938 647.89388022c-18.45703125-15.55664063-59.23828125-38.93554688-118.47656251-33.75000002-49.13085938 4.30664063-94.30664063 4.39453125-139.13085937 1.0546875-42.36328125-3.1640625-80.68359375-13.88671875-121.20117188-39.11132812-26.98242188-16.78710938-54.05273438-46.14257813-63.80859374-84.63867188-24.9609375-98.52539063 49.83398438-178.76953125 132.36328124-181.05468748 71.54296875-1.93359375 110.12695313 45.43945313 110.12695313 45.43945311 16.96289063-48.69140625 48.33984375-87.45117188 80.41992188-112.67578125-130.078125-30.76171875-234.75585938 13.97460938-300.14648438 65.0390625-115.92773438 90.52734375-129.99023438 262.79296875-40.34179688 370.72265625 77.60742188 93.42773438 234.22851563 136.49414063 368.96484376 110.21484375 55.8984375-10.8984375 84.81445313-40.86914063 102.39257812-65.56640625 17.578125-24.78515625 12.12890625-56.07421875-11.16210938-75.67382813z"
	      fill="#FFFFFF" p-id="3442"></path>
	<path d="M574.75390625 233.22591145c26.80664063 0 55.10742188 3.07617188 84.63867188 10.10742188-32.16796875 25.22460938-63.45703125 63.89648438-80.41992188 112.67578125 0 0-37.00195313-45.52734375-105.90820313-45.52734375-1.40625 0-2.8125 0-4.21874999 0.08789064-82.6171875 2.19726563-157.41210938 82.44140625-132.36328126 181.05468748 9.75585938 38.58398438 36.82617188 67.8515625 63.80859376 84.63867188 40.60546875 25.22460938 78.83789063 35.94726563 121.20117187 39.11132814 20.83007813 1.49414063 41.74804688 2.37304688 63.10546875 2.37304686 24.609375 0 49.74609375-1.0546875 76.02539063-3.42773436 5.80078125-0.52734375 11.33789063-0.703125 16.78710937-0.703125 50.18554688 0 85.078125 20.390625 101.68945313 34.453125 23.203125 19.59960938 28.74023438 50.88867188 11.16210937 75.67382811-17.578125 24.69726563-46.49414063 54.66796875-102.39257813 65.56640625-26.27929688 5.09765625-53.34960938 7.64648438-80.50781249 7.64648439-112.32421875 0-226.0546875-42.62695313-288.54492188-117.77343752-89.56054688-107.84179688-75.49804688-280.1953125 40.34179688-370.72265623 50.625-39.63867188 124.62890625-75.234375 215.59570312-75.23437502m0-35.59570312c-84.81445313 0-169.1015625 29.35546875-237.39257813 82.6171875-62.578125 48.8671875-101.77734375 120.234375-110.47851562 201.00585939-8.61328125 80.15625 14.94140625 160.48828125 64.6875 220.34179686 66.88476563 80.59570313 187.91015625 130.60546875 315.87890625 130.60546875 29.79492188 0 59.15039063-2.8125 87.27539063-8.26171875 52.91015625-10.37109375 93.69140625-36.47460938 124.54101562-79.89257813 28.03710938-39.46289063 20.7421875-91.31835938-17.2265625-123.31054687-15.29296875-12.91992188-57.91992188-42.80273438-124.62890625-42.80273438-6.59179688 0-13.27148438 0.26367188-19.86328125 0.87890625-24.9609375 2.19726563-48.77929688 3.25195313-72.94921875 3.25195313-20.12695313 0-39.90234375-0.703125-60.46875-2.28515625-39.7265625-2.90039063-72.0703125-13.359375-105.02929688-33.83789063-23.90625-14.85351563-41.92382813-38.49609375-48.16406249-63.19335937-8.61328125-34.01367188-2.28515625-67.41210938 17.75390625-93.8671875 19.6875-26.015625 50.00976563-42.01171875 81.12304687-42.890625 1.14257813 0 2.19726563-0.08789063 3.25195313-0.08789063 50.09765625 0 77.43164063 31.37695313 78.57421874 32.6953125 6.76757813 8.34960938 16.78710938 12.91992188 27.33398438 12.91992188 2.109375 0 4.13085938-0.17578125 6.24023437-0.52734375 12.65625-2.19726563 23.02734375-11.33789063 27.24609375-23.46679688 17.66601563-50.71289063 50.71289063-82.17773438 68.81835938-96.41601562 10.72265625-8.4375 15.73242188-22.23632813 12.74414062-35.59570313-2.90039063-13.359375-13.27148438-23.81835938-26.54296875-26.98242187-30.84960938-7.11914063-62.05078125-10.8984375-92.72460937-10.8984375z"
	      fill="#403F3F" p-id="3443"></path>
</svg>