<?xml version="1.0" standalone="no"?><!DOCTYPE svg PUBLIC "-//W3C//DTD SVG 1.1//EN" "http://www.w3.org/Graphics/SVG/1.1/DTD/svg11.dtd">
<svg t="1742988293627" class="icon" viewBox="0 0 1024 1024" version="1.1" xmlns="http://www.w3.org/2000/svg"
     p-id="13182"
     width="200" height="200"><path d="M512.873389 1025.42222222a137.24670599 137.24670599 0 0 1-68.55356701-18.353839l-329.15947299-188.423444A137.363017 137.363017 0 0 1 46.583521 699.75207222l0.32567-375.660518a137.363017 137.363017 0 0 1 68.460518-118.636983L444.343085 19.86911022a137.80499801 137.80499801 0 0 1 68.739663-18.42362599A137.24670599 137.24670599 0 0 1 581.613053 19.79932322l327.205452 185.283053a137.59563801 137.59563801 0 0 1 68.57682899 118.91613L977.069663 699.65902322a137.386279 137.386279 0 0 1-68.460518 118.636984L581.613053 1007.06838322a137.735211 137.735211 0 0 1-68.739664 18.353839z m-188.865425-604.560109l120.125761 66.529759a82.813267 82.813267 0 0 0 20.587006 81.812994 90.58282599 90.58282599 0 0 0 40.150477 22.285143v134.385462a71.345025 71.345025 0 0 0-20.58700601 12.631349 55.50349799 55.50349799 0 0 0 2e-8 79.091322 55.550023 55.550023 0 0 0 39.54566099 16.702226 54.712585 54.712585 0 0 0 39.21999101-16.702226 55.50349799 55.50349799 0 0 0 0-79.091322 56.527033 56.527033 0 0 0-20.58700601-12.631349v-134.385462a86.442163 86.442163 0 0 0 40.150477-22.285143 80.533576 80.533576 0 0 0 20.587006-81.812994l119.80009099-66.529759a58.318219 58.318219 0 0 0 36.45179501 13.166379 54.177556 54.177556 0 0 0 38.196456-15.818265 55.829169 55.829169 0 0 0 16.678964-39.75502 54.991731 54.991731 0 0 0-16.678964-39.080418 55.550023 55.550023 0 0 0-39.545661-16.702226 54.759109 54.759109 0 0 0-39.219991 16.702226 56.340936 56.340936 0 0 0-15.259973 48.571377l-118.79981801 66.529759-2.65188599-2.651886a81.603635 81.603635 0 0 0-58.155383-23.960018 85.046433 85.046433 0 0 0-59.22544301 23.960018l-2.65188599 2.651886-118.79981801-66.529759a58.78346201 58.78346201 0 0 0-15.25997299-48.571377 55.550023 55.550023 0 0 0-39.545661-16.702226 54.712585 54.712585 0 0 0-39.196729 16.702226 55.829169 55.829169 0 0 0-16.678964 39.75502 55.014993 55.014993 0 0 0 16.678964 39.103681 54.084507 54.084507 0 0 0 38.61517499 15.818264 55.247615 55.247615 0 0 0 36.033076-13.143117z" fill="#d81e06" p-id="13183"></path></svg>