<?xml version="1.0" standalone="no"?><!DOCTYPE svg PUBLIC "-//W3C//DTD SVG 1.1//EN" "http://www.w3.org/Graphics/SVG/1.1/DTD/svg11.dtd">
<svg t="1742988333965" class="icon" viewBox="0 0 1024 1024" version="1.1" xmlns="http://www.w3.org/2000/svg"
     p-id="15753"
     width="200" height="200"><path d="M276.34346667 787.72830815l353.45749333 174.4896c40.52309333 19.98848 89.51125333 3.44064 109.66357333-36.97322667l250.51136-502.93418667a81.93092267 81.93092267 0 0 0-4.47829333-80.93696l-125.55605333-194.86037333c-16.49322667-25.61365333-45.8752-39.97696-76.24021334-37.24629333L555.03530667 129.80148148c-28.39893333 2.56682667-53.41184 19.6608-66.08213334 45.16522667l-249.74677333 502.77034666c-20.20693333 40.63232-3.54986667 89.89354667 37.13706667 109.99125334z" fill="#402AD2" p-id="15754"></path><path d="M257.28341333 826.83145481l353.45749334 174.4896c40.52309333 19.98848 89.51125333 3.44064 109.66357333-36.97322666l250.51136-502.93418667a81.93092267 81.93092267 0 0 0-4.47829333-80.93696l-125.55605334-194.86037333c-16.49322667-25.61365333-45.8752-39.97696-76.24021333-37.24629334l-228.66602667 20.53461334c-28.39893333 2.56682667-53.41184 19.6608-66.08213333 45.16522666L220.14634667 716.89481481c-20.15232 40.57770667-3.54986667 89.89354667 37.13706666 109.93664z" fill="#534FFF" p-id="15755"></path><path d="M932.74112 398.77214815l-26.10517333-111.08352-65.75445334-102.01770667a81.42301867 81.42301867 0 0 0-29.27274666-27.30666667L326.91541333 501.99134815 220.14634667 716.89481481c-20.15232 40.63232-3.54986667 89.89354667 37.13706666 109.99125334l200.59477334 99.01397333 458.97045333-470.00234667a61.71306667 61.71306667 0 0 0 15.89248-57.12554666z" fill="#3A3AED" p-id="15756"></path><path d="M88.80128 560.70068148l-19.98848 51.50037333-27.74357333-33.25952c-34.78869333-35.66250667-34.35178667-92.62421333 0.92842666-127.7952l405.39477334-395.94666666c26.59669333-27.0336 65.536-37.95626667 102.29077333-28.72661334l226.0992 48.93354667a107.07490133 107.07490133 0 0 1 78.20629333 79.18933333l53.35722667 221.02016c5.67978667 23.92064-1.69301333 49.04277333-19.38773333 66.08213334l-50.29888 53.248L88.80128 560.70068148z" fill="#FF9100" p-id="15757"></path><path d="M75.96714667 623.06910815l253.67893333 253.18741333c35.17098667 34.89792 91.91424 34.78869333 126.92138667-0.21845333l384.69632-384.69632a89.74609067 89.74609067 0 0 0 23.53834666-85.74293334l-54.23104-213.15584a90.01915733 90.01915733 0 0 0-66.30058666-65.31754666l-200.15786667-40.1408c-30.41962667-7.26357333-62.36842667 1.85685333-84.48682667 23.97525333l-383.93173333 384.80554667c-35.17098667 35.17098667-35.00714667 92.24192 0.27306667 127.30368z" fill="#F6E937" p-id="15758"></path><path d="M683.15818667 276.11060148m-87.16288 0a87.16288 87.16288 0 1 0 174.32576 0 87.16288 87.16288 0 1 0-174.32576 0Z" fill="#FCB423" p-id="15759"></path><path d="M683.15818667 253.60990815m-78.09706667 0a78.09706667 78.09706667 0 1 0 156.19413333 0 78.09706667 78.09706667 0 1 0-156.19413333 0Z" fill="#FFFFFF" p-id="15760"></path></svg>