<?xml version="1.0" standalone="no"?><!DOCTYPE svg PUBLIC "-//W3C//DTD SVG 1.1//EN" "http://www.w3.org/Graphics/SVG/1.1/DTD/svg11.dtd">
<svg t="1742988281297" class="icon" viewBox="0 0 1024 1024" version="1.1" xmlns="http://www.w3.org/2000/svg"
     p-id="12167"
     width="200" height="200"><path d="M199.6224 294.54933333C208.224 148.3136 329.3248 34.13333333 475.80373333 34.13333333h73.29066667c146.47893333 0 267.57973333 114.1824 276.18133333 260.416l14.0096 238.1696c2.4384 41.6-29.30133333 77.3056-70.90133333 79.75466667-41.6 2.44693333-77.28853333-29.29066667-79.75253333-70.89066667l-14.0096-238.17386666c-3.8976-66.46826667-58.95253333-118.37013333-125.52746667-118.37013334h-73.29066667c-66.5728 0-121.62986667 51.90186667-125.52746666 118.37013334l-14.0096 238.17386666c-2.4384 41.6-38.15253333 73.3376-79.75253334 70.89066667-41.6-2.44906667-73.33973333-38.15466667-70.90133333-79.75466667l14.0096-238.17173333z" fill="#FCBF28" p-id="12168"></path><path d="M68.7872 479.072c4.90666667-43.54773333 36.896-73.80053333 80.45866667-78.624 61.216-6.77973333 171.93173333-14.2016 363.20426666-14.2016 196.55253333 0 306.91413333 7.83573333 366.04586667 14.76053333 39.7376 4.65493333 69.568 31.59466667 75.1744 71.2192 5.90933333 41.64053333 11.4944 109.2032 11.4944 215.82933334 0 106.64106667-5.58293333 174.1952-11.4944 215.8208-5.60853333 39.63733333-35.4368 66.57493333-75.1744 71.22773333-59.13173333 6.91626667-169.49333333 14.76266667-366.04586667 14.76266667-196.55466667 0-306.91626667-7.8464-366.04586666-14.76266667-39.73973333-4.6528-69.568-31.5904-75.17866667-71.22773333C65.3184 862.25066667 59.73333333 794.69653333 59.73333333 688.05546667c0-100.97066667 4.3008-166.912 9.05386667-208.98133334z" fill="#A871FF" p-id="12169"></path><path d="M512.448 562.30186667c25.40373333 0 46.6048 19.21493333 48.01493333 44.5824a1465.87733333 1465.87733333 0 0 1 2.28693334 81.17333333c0 31.5136-1.07946667 59.58186667-2.28693334 81.16053333-1.408 25.37813333-22.61333333 44.59306667-48.0128 44.59306667-25.40373333 0-46.6048-19.21493333-48.01493333-44.59306667a1465.9328 1465.9328 0 0 1-2.28693333-81.16266666c0-31.5264 1.0816-59.59466667 2.28693333-81.1712 1.408-25.36533333 22.61333333-44.5824 48.01493333-44.5824z" fill="#FFFFFF" p-id="12170"></path></svg>