<?xml version="1.0" standalone="no"?><!DOCTYPE svg PUBLIC "-//W3C//DTD SVG 1.1//EN"
		"http://www.w3.org/Graphics/SVG/1.1/DTD/svg11.dtd">
<svg t="1749722417854" class="icon" viewBox="0 0 1228 1024" version="1.1" xmlns="http://www.w3.org/2000/svg" p-id="2996"
     width="239.84375" height="200">
	<path d="M699.165973 687.04703434L336.989399 687.04703434c-17.33751399 0-28.66832999-7.91792-31.398648-22.11557001-0.614321-2.79857501-0.546063-5.73366601-0.546063-8.668757L305.044688 346.03041733c0-19.658284 10.648237-30.03348899 30.71606801-30.033489L699.16597301 315.99692833l-1e-8-9.48785197L699.16597301 30.33749232c0-12.627717 6.14321401-22.729891 16.38190399-26.62059199a26.82536601 26.82536601 0 0 1 31.262131 6.962309c5.119345 5.392376 10.648237 10.306947 15.90409799 15.56280801l198.76709101 197.26541598 255.28465699 253.37343501c14.129391 14.06113399 14.197649 28.873104 0.20477401 42.72946401l-365.31644 362.722638c-34.60676999 34.333739-69.41831399 68.530961-104.02508499 102.932958-8.873531 8.873531-18.83918899 12.764233-31.05735802 8.19095199-11.80862199-4.505023-17.33751399-13.719844-17.33751398-28.32704101L699.234231 697.69527134l1e-8-10.64823701zM480.535825 6.65199133l0 104.50289001L203.54514599 111.15488134c-56.449308 0-98.018387 41.432563-98.01838699 97.745355 0 194.671615 0.34128999 389.343231-0.204774 584.01484701-0.20477399 51.534737 39.180052 88.598793 75.629787 95.42458499 8.054436 1.43341701 16.381903 2.115996 24.57285399 2.11599599 88.257503 0.20477401 176.583264 0.136516 264.84076701 0.13651601l9.96565799 2e-8 1e-8 103.88856897c-1.296901 0.273032-2.730317 0.81909499-4.231992 0.819095-93.854653 0-187.709307 0.955611-281.56395899-0.409548-91.738657-1.365159-172.96559399-70.510441-190.43962401-160.13310299a203.203857 203.203857 0 0 1-3.75418599-38.56573001c-0.20477401-196.855869-0.682579-393.64348 0.136516-590.431091C0.81909501 123.64608233 41.91036899 64.53471533 113.581195 26.24201734c25.323692-13.583328 53.241185-19.658284 82.04603099-19.79480001 93.103816-0.20477401 186.13937401 0 279.24319101 0l5.59714999 0.204774z"
	      fill="#C3A57B" p-id="2997"></path>
</svg>