<?xml version="1.0" standalone="no"?><!DOCTYPE svg PUBLIC "-//W3C//DTD SVG 1.1//EN"
		"http://www.w3.org/Graphics/SVG/1.1/DTD/svg11.dtd">
<svg t="1749722415120" class="icon" viewBox="0 0 1228 1024" version="1.1" xmlns="http://www.w3.org/2000/svg" p-id="2845"
     width="239.84375" height="200">
	<path d="M538.1673603 315.61963233L900.3439343 315.61963233c17.33751399 0 28.66832999 7.91792 31.398648 22.11557001 0.614321 2.79857501 0.546063 5.73366601 0.546063 8.668757L932.2886453 656.63624934c0 19.658284-10.648237 30.03348899-30.71606801 30.033489L538.16736029 686.66973834l1e-8 9.48785197L538.1673603 972.32917435c0 12.627717-6.14321401 22.729891-16.381904 26.62059199a26.82536601 26.82536601 0 0 1-31.262131-6.962309c-5.119345-5.392376-10.648237-10.306947-15.904098-15.56280801l-198.767091-197.26541599-255.284657-253.373435c-14.129391-14.06113399-14.197649-28.873104-0.20477401-42.72946401l365.31644001-362.722638c34.60676999-34.333739 69.41831399-68.530961 104.02508499-102.932958 8.873531-8.873531 18.83918899-12.764233 31.05735802-8.19095199 11.80862199 4.505023 17.33751399 13.719844 17.33751399 28.32704101L538.0991023 304.97139534l0 10.648237zM756.7975083 996.01467534l0-104.50289001L1033.7881873 891.51178533c56.449308 0 98.018387-41.432563 98.018387-97.745355 0-194.671615-0.34128999-389.343231 0.204774-584.014847 0.20477399-51.534737-39.180052-88.598793-75.629787-95.424585-8.054436-1.43341701-16.381903-2.115996-24.572854-2.11599599-88.257503-0.20477401-176.583264-0.136516-264.840767-0.13651601l-9.96565799-1e-8-1e-8-103.88856898c1.296901-0.273032 2.730317-0.81909499 4.231992-0.819095 93.854653 0 187.709307-0.955611 281.56395899 0.409548 91.738657 1.365159 172.96559399 70.510441 190.43962401 160.13310299a203.203857 203.203857 0 0 1 3.754186 38.56573001c0.20477401 196.855869 0.682579 393.64348-0.136516 590.431091C1236.51423829 879.02058434 1195.42296431 938.13195134 1123.7521383 976.42464933c-25.323692 13.583328-53.241185 19.658284-82.046031 19.79480001-93.103816 0.20477401-186.13937401 0-279.243191 0l-5.59715-0.204774z"
	      fill="#C3A57B" p-id="2846"></path>
</svg>