<?xml version="1.0" standalone="no"?><!DOCTYPE svg PUBLIC "-//W3C//DTD SVG 1.1//EN" "http://www.w3.org/Graphics/SVG/1.1/DTD/svg11.dtd">
<svg t="1742993702460" class="icon" viewBox="0 0 1024 1024" version="1.1" xmlns="http://www.w3.org/2000/svg" p-id="3821"
     width="200" height="200"><path d="M881.066667 449.33333366c-66.133333 0-132.266667 27.733333-198.4 27.733333H341.333333c-66.133333 0-132.266667-27.733333-198.4-27.733333C110.933333 449.33333366 85.333333 474.93333366 85.333333 506.93333366c0 32 25.6 57.6 57.6 57.6 66.133333 0 132.266667-27.733333 198.4-27.733334H680.533333c66.133333 0 132.266667 27.733333 198.4 27.733334 32 0 57.6-25.6 57.6-57.6 2.133333-32-23.466667-57.6-55.466666-57.6zM142.933333 221.06666666C209.066667 221.06666666 275.2 193.33333367 341.333333 193.33333367h341.333334c66.133333 0 132.266667 27.733333 198.4 27.73333299 32 0 57.6-25.6 57.6-57.6C938.666667 133.59999966 913.066667 107.99999966 881.066667 107.99999966c-66.133333 0-132.266667 27.733333-198.4 27.73333401H341.333333C275.2 135.73333367 209.066667 107.99999966 142.933333 107.99999966 110.933333 107.99999966 85.333333 133.59999966 85.333333 165.59999966c0 29.866667 25.6 55.466667 57.6 55.466667zM853.333333 790.66666667c-78.933333 0-149.333333 57.6-228.266666 57.6H341.333333c-66.133333 0-132.266667-27.733333-198.4-27.73333301C110.933333 818.39999966 85.333333 843.99999966 85.333333 875.99999966s25.6 57.6 57.6 57.6c66.133333 0 132.266667-27.733333 198.4-27.73333299h283.733334c78.933333 0 149.333333 57.6 228.266666 57.6 46.933333 0 85.333333-38.4 85.333334-85.33333301 0-49.066667-38.4-87.466667-85.333334-87.46666699z" fill="#1296db" p-id="3822"></path></svg>