<?xml version="1.0" standalone="no"?><!DOCTYPE svg PUBLIC "-//W3C//DTD SVG 1.1//EN"
		"http://www.w3.org/Graphics/SVG/1.1/DTD/svg11.dtd">
<svg t="1742998167224" class="icon" viewBox="0 0 1024 1024" version="1.1" xmlns="http://www.w3.org/2000/svg" p-id="2788"
     width="200" height="200">
	<path d="M876.90666667 91.94666666H146.66666667c-60.48 0-109.54666667 48.21333333-109.54666667 107.62666667v573.97333333c0 59.41333333 49.06666667 107.62666667 109.54666667 107.62666667H387.2l98.98666667 97.17333333c7.04 6.93333333 16.53333333 10.56 25.92 10.56s18.66666667-3.52 25.92-10.56l98.98666666-97.17333333h240.42666667c60.48 0 109.54666667-48.21333333 109.54666667-107.62666667V199.57333333c-0.53333333-59.41333333-49.81333333-107.62666667-110.08-107.62666667zM310.82666667 522.45333333c-30.18666667 0-54.72-24.10666667-54.72-53.76 0-29.65333333 24.53333333-53.76 54.72-53.76 30.18666667 0 54.72 24.10666667 54.72 53.76 0 29.65333333-24.53333333 53.76-54.72 53.76z m218.98666666 0c-30.18666667 0-54.72-24.10666667-54.72-53.76 0-29.65333333 24.53333333-53.76 54.72-53.76 30.18666667 0 54.72 24.10666667 54.72 53.76 0.10666667 29.65333333-24.42666667 53.76-54.72 53.76z m219.30666667 0c-30.18666667 0-54.72-24.10666667-54.72-53.76 0-29.65333333 24.53333333-53.76 54.72-53.76 30.18666667 0 54.72 24.10666667 54.72 53.76 0.10666667 29.65333333-24.64 53.76-54.72 53.76z"
	      fill="#4595E6" p-id="2789"></path>
</svg>