<?xml version="1.0" standalone="no"?><!DOCTYPE svg PUBLIC "-//W3C//DTD SVG 1.1//EN" "http://www.w3.org/Graphics/SVG/1.1/DTD/svg11.dtd">
<svg t="1742988285209" class="icon" viewBox="0 0 1024 1024" version="1.1" xmlns="http://www.w3.org/2000/svg"
     p-id="12492"
     width="200" height="200"><path d="M486.33180313 662.52415302c-104.54557406-60.33836062-174.81442594-172.65836063-174.81442594-301.266885 0-61.6603275 16.20983625-119.52786844 44.5534425-169.76262282-130.10360625 60.74754094-220.18622906 191.87409844-220.18622906 343.93180313 0 209.86229531 171.55672125 380.00262281 383.18163843 380.00262281 180.2596725 0 331.35737719-123.46229531 372.22819688-289.76262281A351.51737719 351.51737719 0 0 1 662.76721344 709.59562864c-27.41508188 0-54.10622906-3.11606531-79.71147563-9.00196781l-32.87606531-9.26950781a356.14426219 356.14426219 0 0 1-31.22360719-12.14950782l-32.62426219-16.65049218z" fill="#FF8000" p-id="12493"></path><path d="M545.19081969 706.24349708a365.11475438 365.11475438 0 0 1-32.62426219-12.7003275l12.81049125-28.7527875c9.71016375 4.32786844 19.75081969 8.23081969 29.80721344 11.61442687l-9.9934425 29.83868813z" fill="#000000" p-id="12494"></path><path d="M519.08196687 931.16677583c-219.98163938 0-398.93508187-177.52131188-398.93508187-395.7403275 0-152.56131188 90.00393469-293.16196688 229.26688594-358.19016375a15.73770469 15.73770469 0 0 1 20.36458968 21.98557312 330.31868813 330.31868813 0 0 0-42.52327875 162.03541032c0 117.98557406 63.95803313 228.19672125 166.92983625 287.62229437l-15.73770468 27.25770563c-112.68196688-65.04393469-182.66754094-185.68918031-182.66754094-314.89573781 0-45.45049219 8.62426219-90.50754094 25.21180312-132.59016375-104.19934406 66.39737719-169.36918031 182.25836062-169.36918031 306.75934406 0 200.8603275 164.85245906 364.26491813 367.45967157 364.26491812 153.85180313 0 288.70819687-93.57639375 342.68852531-232.61901656a369.09639375 369.09639375 0 0 1-199.00327875 58.26098344c-28.0603275 0-56.0734425-3.16327875-83.23672125-9.41114719l7.03475344-30.6727875c24.86557406 5.71278656 50.50229531 8.60852438 76.20196781 8.60852531a337.10163937 337.10163937 0 0 0 218.3134425-80.16786937 15.72196688 15.72196688 0 1 1 25.47934406 15.73770469c-43.62491813 177.67868813-202.96918031 301.75475438-387.47803313 301.75475437z" fill="#000000" p-id="12495"></path><path d="M519.08196687 931.16677583c-219.98163938 0-398.93508187-177.52131188-398.93508187-395.7403275 0-152.56131188 90.00393469-293.16196688 229.26688594-358.19016375a15.73770469 15.73770469 0 0 1 20.36458968 21.98557312 330.31868813 330.31868813 0 0 0-42.52327875 162.03541032c0 117.98557406 63.95803313 228.19672125 166.92983625 287.62229437l-15.73770468 27.25770563c-112.68196688-65.04393469-182.66754094-185.68918031-182.66754094-314.89573781 0-45.45049219 8.62426219-90.50754094 25.21180312-132.59016375-104.19934406 66.39737719-169.36918031 182.25836062-169.36918031 306.75934406 0 200.8603275 164.85245906 364.26491813 367.45967157 364.26491812 153.85180313 0 288.70819687-93.57639375 342.68852531-232.61901656a369.09639375 369.09639375 0 0 1-199.00327875 58.26098344c-28.0603275 0-56.0734425-3.16327875-83.23672125-9.41114719l7.03475344-30.6727875c24.86557406 5.71278656 50.50229531 8.60852438 76.20196781 8.60852531a337.10163937 337.10163937 0 0 0 218.3134425-80.16786937 15.72196688 15.72196688 0 1 1 25.47934406 15.73770469c-43.62491813 177.67868813-202.96918031 301.75475438-387.47803313 301.75475437z" fill="#000000" p-id="12496"></path><path d="M880.97049219 94.88087427h-15.73770563v-15.73770469a15.73770469 15.73770469 0 1 0-31.47540937 0v15.73770469h-15.73770469a15.73770469 15.73770469 0 1 0 0 31.47541031h15.73770469v15.73770469a15.73770469 15.73770469 0 1 0 31.47540937 0v-15.73770469h15.73770563a15.73770469 15.73770469 0 1 0 0-31.47541031zM566.21639375 472.58579239h-15.73770562v-15.73770468a15.73770469 15.73770469 0 1 0-31.47540938 0v15.73770468h-15.73770469a15.73770469 15.73770469 0 1 0 0 31.47540938h15.73770469v15.73770562a15.73770469 15.73770469 0 1 0 31.47540937 0v-15.73770562h15.73770563a15.73770469 15.73770469 0 1 0 0-31.47540938zM251.46229531 157.83169396a15.73770469 15.73770469 0 1 0 0-31.47540938h-15.73770468v-15.73770562a15.73770469 15.73770469 0 1 0-31.47541032 0v15.73770562h-15.73770468a15.73770469 15.73770469 0 1 0 0 31.47540938h15.73770468v15.73770468a15.73770469 15.73770469 0 1 0 31.47541032 0v-15.73770468h15.73770468zM330.15081969 944.71693958h-15.73770469v-15.73770469a15.73770469 15.73770469 0 1 0-31.47541031 0v15.73770469h-15.73770469a15.73770469 15.73770469 0 1 0 0 31.47541031h15.73770469v15.73770469a15.73770469 15.73770469 0 1 0 31.47541031 0v-15.73770469h15.73770469a15.73770469 15.73770469 0 1 0 0-31.47541031z" fill="#000000" p-id="12497"></path><path d="M581.95409844 267.99562864c-26.03016375 0-47.213115-21.18295125-47.213115-47.213115s21.18295125-47.213115 47.213115-47.213115 47.213115 21.18295125 47.213115 47.213115-21.18295125 47.213115-47.213115 47.213115z m0-62.95081968a15.7534425 15.7534425 0 0 0 0 31.47540937 15.7534425 15.7534425 0 0 0 0-31.47540937zM770.8065575 504.06120177c-26.03016375 0-47.213115-21.18295125-47.213115-47.21311407s21.18295125-47.213115 47.213115-47.213115 47.213115 21.18295125 47.213115 47.213115-21.18295125 47.213115-47.213115 47.21311407z m0-62.95081969a15.7534425 15.7534425 0 0 0 0 31.47541031 15.7534425 15.7534425 0 0 0 0-31.47541031zM94.08524563 803.07759552c-26.03016375 0-47.213115-21.18295125-47.21311407-47.213115s21.18295125-47.213115 47.21311407-47.21311406 47.213115 21.18295125 47.213115 47.21311406-21.18295125 47.213115-47.213115 47.213115z m0-62.95081969a15.7534425 15.7534425 0 0 0 0 31.47541031 15.7534425 15.7534425 0 0 0 0-31.47541031zM928.18360625 928.97923489c-26.03016375 0-47.213115-21.18295125-47.21311406-47.213115s21.18295125-47.213115 47.21311406-47.21311406 47.213115 21.18295125 47.213115 47.21311406-21.18295125 47.213115-47.213115 47.213115z m0-62.95081969a15.7534425 15.7534425 0 0 0 0 31.47541032 15.7534425 15.7534425 0 0 0 0-31.47541032z" fill="#3EBBDD" p-id="12498"></path><path d="M818.0196725 283.73333333h31.47540937v31.47540937h-31.47540937zM471.79016375 79.14316958h31.47541031v31.47540938h-31.47541031zM94.08524563 315.2087427h31.47541031v31.47541032h-31.47541031zM141.29836062 913.2415302h31.47541032v31.47540938h-31.47541031zM959.65901656 488.32349708h31.47540938v31.47541031h-31.47540938zM46.87213156 142.09398927h31.47540938v31.47540937h-31.47540938zM676.3803275 944.71693958h31.47541031v31.47541031h-31.47541031z" fill="#FF8000" p-id="12499"></path></svg>