<?xml version="1.0" standalone="no"?><!DOCTYPE svg PUBLIC "-//W3C//DTD SVG 1.1//EN" "http://www.w3.org/Graphics/SVG/1.1/DTD/svg11.dtd">
<svg t="1742988327694" class="icon" viewBox="0 0 1024 1024" version="1.1" xmlns="http://www.w3.org/2000/svg"
     p-id="15262"
     width="200" height="200"><path d="M278.98311111 589.6722963a155.34459259 155.34459259 0 0 1 155.34459259 155.34459259v77.67229629a155.34459259 155.34459259 0 0 1-155.34459259 155.3445926H201.31081482a155.34459259 155.34459259 0 0 1-155.3445926-155.3445926v-77.67229629a155.34459259 155.34459259 0 0 1 155.3445926-155.34459259h77.67229629z m543.70607407 0a155.34459259 155.34459259 0 0 1 155.3445926 155.34459259v77.67229629a155.34459259 155.34459259 0 0 1-155.3445926 155.3445926h-155.34459259a155.34459259 155.34459259 0 0 1-155.34459259-155.3445926v-77.67229629a155.34459259 155.34459259 0 0 1 155.34459259-155.34459259h155.34459259zM278.98311111 45.96622222a155.34459259 155.34459259 0 0 1 155.34459259 155.3445926v155.34459259a155.34459259 155.34459259 0 0 1-155.34459259 155.34459259H201.31081482a155.34459259 155.34459259 0 0 1-155.3445926-155.34459259V201.31081482a155.34459259 155.34459259 0 0 1 155.3445926-155.3445926h77.67229629z m543.70607407 0a155.34459259 155.34459259 0 0 1 155.3445926 155.3445926v155.34459259a155.34459259 155.34459259 0 0 1-155.3445926 155.34459259h-155.34459259a155.34459259 155.34459259 0 0 1-155.34459259-155.34459259V201.31081482a155.34459259 155.34459259 0 0 1 155.34459259-155.3445926h155.34459259z m-77.67229629 77.6722963a155.34459259 155.34459259 0 1 0 0 310.68918518 155.34459259 155.34459259 0 0 0 0-310.68918518z" fill="#FF8F49" p-id="15263"></path></svg>