<?xml version="1.0" standalone="no"?><!DOCTYPE svg PUBLIC "-//W3C//DTD SVG 1.1//EN"
		"http://www.w3.org/Graphics/SVG/1.1/DTD/svg11.dtd">
<svg t="1742998627047" class="icon" viewBox="0 0 1024 1024" version="1.1" xmlns="http://www.w3.org/2000/svg" p-id="2975"
     width="200" height="200">
	<path d="M817.51466667 46.96746667c40.32426667 4.52693333 71.45386667 31.89333333 78.78186666 71.79306666C907.85493333 181.78773333 921.6 301.0688 921.6 512c0 189.2992-6.144 304.7808-12.05973333 372.032-4.5056 51.2832-42.53013333 89.312-93.77706667 94.19093333C755.07413333 983.99786667 657.58933333 989.86666667 512 989.86666667s-243.07413333-5.86666667-303.76533333-11.64373334c-51.24266667-4.87893333-89.26933333-42.90773333-93.77493334-94.19093333C108.544 816.7808 102.4 701.29706667 102.4 512c0-189.29706667 6.144-304.7808 12.05973333-372.032 4.5056-51.2832 42.53013333-89.312 93.77706667-94.19093333C268.92586667 40.00213333 366.41066667 34.13333333 512 34.13333333c155.62666667 0 250.9248 6.70293333 305.51466667 12.83413334z"
	      fill="#53B5FF" p-id="2976"></path>
	<path d="M284.44373333 40.02133333v943.95306667c-30.08213333-1.76426667-55.31733333-3.76533333-76.20693333-5.75146667-51.24693333-4.87893333-89.27146667-42.90773333-93.77706667-94.19093333C108.544 816.77866667 102.4 701.29706667 102.4 512c0-189.2992 6.144-304.7808 12.05973333-372.03413333 4.5056-51.28106667 42.53013333-89.312 93.77706667-94.18666667 20.8896-1.9904 46.1248-3.98933333 76.20693333-5.75573333z"
	      fill="#FCBF28" p-id="2977"></path>
	<path d="M420.97706667 251.78666667c0-17.39306667 13.08586667-31.75253333 30.44693333-32.63573334 27.3984-1.39306667 75.2768-2.97386667 151.59893333-2.97386666 76.32213333 0 124.1984 1.57866667 151.5968 2.97386666 17.3632 0.8832 30.44693333 15.24266667 30.44693334 32.63573334v19.80586666c0 17.39093333-13.08373333 31.7504-30.44693334 32.6336-27.3984 1.3952-75.27466667 2.97386667-151.5968 2.97386667-76.32213333 0-124.20053333-1.57866667-151.59893333-2.97386667-17.36106667-0.8832-30.44693333-15.24266667-30.44693333-32.6336v-19.80586666zM420.97706667 433.8304c0-17.39306667 13.08586667-31.9104 30.4256-33.024 19.9552-1.28213333 48.71893333-2.58346667 83.3536-2.58346667 34.63253333 0 63.39626667 1.30133333 83.3536 2.58133334 17.33973333 1.11573333 30.42346667 15.63306667 30.42346666 33.024v19.808c0 17.39306667-13.08373333 31.9104-30.42346666 33.024-19.95733333 1.28213333-48.72106667 2.58346667-83.3536 2.58346666-34.63466667 0-63.3984-1.30133333-83.3536-2.58133333-17.33973333-1.11573333-30.4256-15.63306667-30.4256-33.024v-19.808z"
	      fill="#FFFFFF" p-id="2978"></path>
</svg>