<?xml version="1.0" standalone="no"?><!DOCTYPE svg PUBLIC "-//W3C//DTD SVG 1.1//EN" "http://www.w3.org/Graphics/SVG/1.1/DTD/svg11.dtd">
<svg t="1743052986201" class="icon" viewBox="0 0 1024 1024" version="1.1" xmlns="http://www.w3.org/2000/svg" p-id="2724"
     width="200" height="200"><path d="M595.44462187 973.82399965s30.9020448-25.25866667 0-83.51288855a131.98222187 131.98222187 0 0 0-41.73368854-41.64266665s-41.43786667-84.87822187 83.42186667-83.51288855 378.58417813-78.50666667 375.46666667-291.95377812-130.4803552-448.05688853-500.62222187-458.9795552-502.89777813 326.54222187-500.62222293 500.62222187 180.54257813 511.08977813 500.62222293 500.62222185a95.57333333 95.57333333 0 0 0 83.46737707-41.64266665zM365.86382187 97.5075559a104.448 104.448 0 1 1-104.19768854 104.448 104.2432 104.2432 0 0 1 104.19768854-104.448z m292.27235626 0a104.448 104.448 0 1 1-104.1976896 104.448 104.2432 104.2432 0 0 1 104.1976896-104.448z m166.7527104 208.896a104.2204448 104.2204448 0 1 1-104.53902186 104.22044375 104.37973333 104.37973333 0 0 1 104.53902186-104.22044375z m-603.02222186-0.22755625a125.1555552 125.1555552 0 1 1-127.08977814 123.33511145 125.1555552 125.1555552 0 0 1 127.1352896-123.33511145z" fill="#FF5555" p-id="2725"></path></svg>