<?xml version="1.0" standalone="no"?><!DOCTYPE svg PUBLIC "-//W3C//DTD SVG 1.1//EN" "http://www.w3.org/Graphics/SVG/1.1/DTD/svg11.dtd">
<svg t="1742993696504" class="icon" viewBox="0 0 1024 1024" version="1.1" xmlns="http://www.w3.org/2000/svg" p-id="3502"
     width="200" height="200"><path d="M752 501.90933333C691.2 571.02933333 608 613.78133333 512 613.78133333S332.8 571.09333333 272 501.97333333A404.736 404.736 0 0 0 128 811.28533333c0 108.608 86.4 197.504 192 197.504h384c105.6 0 192-88.896 192-197.504 0-125.056-57.6-236.992-144-309.376z" fill="#1296db" p-id="3503"></path><path d="M256 284.62933333C256 430.10133333 370.56 548.05333333 512 548.05333333s256-117.888 256-263.36C768 139.22133333 653.44 21.33333333 512 21.33333333S256 139.22133333 256 284.62933333z" fill="#1296db" p-id="3504"></path></svg>