<?xml version="1.0" standalone="no"?><!DOCTYPE svg PUBLIC "-//W3C//DTD SVG 1.1//EN"
		"http://www.w3.org/Graphics/SVG/1.1/DTD/svg11.dtd">
<svg t="1742996307520" class="icon" viewBox="0 0 1024 1024" version="1.1" xmlns="http://www.w3.org/2000/svg" p-id="2694"
     width="200" height="200">
	<path d="M780.288 1000.78933333H244.5312C122.88 1000.78933333 24.30293333 902.21226667 24.30293333 780.56106667V244.80426667C24.30293333 123.15306667 122.88 24.576 244.5312 24.576h535.7568c121.6512 0 220.22826667 98.57706667 220.22826667 220.22826667v535.7568c0 121.6512-98.57706667 220.22826667-220.22826667 220.22826666z"
	      fill="#00A4D5" p-id="2695"></path>
	<path d="M855.2448 514.73066667c0-50.7904-33.5872-93.52533333-79.4624-108.27093334 8.87466667-16.384 14.06293333-34.67946667 14.06293333-53.79413333 0-30.58346667-11.8784-59.25546667-33.45066666-80.82773333-21.57226667-21.57226667-50.24426667-33.45066667-80.82773334-33.45066667-18.432 0-36.0448 4.77866667-52.0192 13.1072-14.336-46.96746667-57.48053333-81.37386667-108.9536-81.37386667-50.7904 0-93.52533333 33.5872-108.40746666 79.59893334-43.28106667-23.07413333-98.16746667-16.93013333-134.62186667 19.52426666-21.57226667 21.57226667-33.45066667 50.24426667-33.45066667 80.82773334 0 18.432 4.77866667 36.0448 13.1072 52.0192-46.96746667 14.336-81.37386667 57.48053333-81.37386666 108.9536 0 50.7904 33.5872 93.52533333 79.59893333 108.40746666-23.07413333 43.28106667-16.93013333 98.16746667 19.52426667 134.62186667 21.57226667 21.57226667 50.3808 33.45066667 80.82773333 33.45066667 18.432 0 36.0448-4.77866667 52.0192-13.1072 14.19946667 46.96746667 57.48053333 81.37386667 108.9536 81.37386666 50.7904 0 93.52533333-33.5872 108.40746667-79.4624 16.384 8.87466667 34.67946667 13.9264 53.79413333 13.9264 30.58346667 0 59.25546667-11.8784 80.82773333-33.45066666 21.57226667-21.57226667 33.45066667-50.3808 33.45066667-80.82773334 0-18.432-4.77866667-36.0448-13.1072-52.0192 46.6944-14.60906667 81.1008-57.7536 81.1008-109.22666666z m-118.23786667-223.77813334c16.52053333 16.52053333 25.53173333 38.36586667 25.53173334 61.57653334 0 17.47626667-5.18826667 34.26986667-14.7456 48.46933333-2.32106667-0.13653333-4.5056-0.68266667-6.9632-0.68266667h-76.5952c-17.06666667 0-33.04106667 3.95946667-47.5136 10.6496 7.50933333-15.1552 12.01493333-32.08533333 12.01493333-50.10773333v-76.5952c0-1.6384-0.4096-3.14026667-0.4096-4.64213333 33.45066667-20.8896 80.14506667-17.2032 108.68053333 11.33226666z m-180.224 392.12373334c-27.0336-27.0336-32.22186667-67.44746667-16.24746666-99.9424 33.1776 12.288 56.9344 43.96373333 56.9344 81.37386666v59.392l-40.68693334-40.82346666zM511.45386667 581.632c-0.54613333-1.36533333-0.8192-2.8672-1.2288-4.23253333h0.27306666c0.8192 0 1.6384 0.27306667 2.32106667 0.27306666-0.54613333 1.2288-0.8192 2.73066667-1.36533333 3.95946667z m-20.61653334 37.00053333c0 23.3472-9.0112 45.19253333-25.53173333 61.57653334l-41.91573333 41.91573333v-57.61706667c0-38.22933333 24.9856-70.4512 59.25546666-82.19306666 5.18826667 11.33226667 8.192 23.48373333 8.192 36.31786666z m-22.80106666-276.34346666c27.0336 27.0336 32.22186667 67.44746667 16.11093333 99.9424-33.1776-12.288-56.9344-43.96373333-56.9344-81.37386667v-59.392l40.82346667 40.82346667zM513.36533333 443.73333333c0.54613333 1.36533333 0.8192 2.8672 1.36533334 4.23253334h-0.27306667c-0.8192 0-1.6384-0.27306667-2.4576-0.27306667 0.54613333-1.2288 0.95573333-2.73066667 1.36533333-3.95946667z m20.75306667-37.00053333c0-23.3472 9.0112-45.19253333 25.53173333-61.57653333l41.91573334-41.91573334v57.7536c0 38.22933333-24.9856 70.4512-59.25546667 82.19306667-5.3248-11.4688-8.192-23.62026667-8.192-36.4544z m43.008 107.99786667c0-0.8192 0.27306667-1.50186667 0.27306667-2.18453334 1.36533333 0.54613333 2.73066667 0.68266667 4.096 1.2288-1.36533333 0.4096-2.8672 0.8192-4.23253334 1.2288-0.13653333-0.13653333-0.13653333-0.27306667-0.13653333-0.27306666z m-25.8048 14.47253333c-4.77866667 3.54986667-9.55733333 7.09973333-13.78986667 11.33226667-3.54986667 3.54986667-6.28053333 7.50933333-9.28426666 11.33226666-5.87093333-0.95573333-11.74186667-1.77493333-17.74933334-1.77493333-4.9152 0-9.69386667 0.8192-14.47253333 1.50186667-3.54986667-4.77866667-7.09973333-9.55733333-11.33226667-13.78986667-3.54986667-3.54986667-7.50933333-6.28053333-11.33226666-9.28426667 0.95573333-5.87093333 1.77493333-11.60533333 1.77493333-17.74933333 0-5.05173333-0.8192-9.8304-1.50186667-14.60906667 4.77866667-3.41333333 9.55733333-6.9632 13.9264-11.33226666 3.54986667-3.54986667 6.28053333-7.50933333 9.28426667-11.33226667 5.87093333 0.95573333 11.74186667 1.77493333 17.74933333 1.77493333 4.9152 0 9.69386667-0.8192 14.47253334-1.50186666 3.54986667 4.77866667 7.09973333 9.55733333 11.33226666 13.78986666 3.54986667 3.54986667 7.50933333 6.28053333 11.33226667 9.28426667-0.95573333 5.87093333-1.77493333 11.60533333-1.77493333 17.74933333 0 5.05173333 0.8192 9.8304 1.36533333 14.60906667z m7.3728 29.0816c0.54613333 1.36533333 1.36533333 2.59413333 1.91146667 3.95946667-1.36533333-0.68266667-2.59413333-1.50186667-3.95946667-2.18453334 0.13653333-0.13653333 0.13653333-0.13653333 0.13653333-0.27306666 0.54613333-0.54613333 1.2288-0.95573333 1.91146667-1.50186667z m-93.3888-1.2288c0.54613333 0.54613333 0.95573333 1.2288 1.50186667 1.91146667-1.36533333 0.54613333-2.59413333 1.36533333-3.95946667 1.91146666 0.68266667-1.36533333 1.50186667-2.59413333 2.18453333-3.95946666 0.13653333 0 0.13653333 0 0.27306667 0.13653333z m-17.6128-46.42133333c0 0.8192-0.27306667 1.50186667-0.27306667 2.32106666-1.36533333-0.54613333-2.73066667-0.8192-4.096-1.2288 1.36533333-0.54613333 2.8672-0.68266667 4.36906667-1.2288v0.13653334z m18.56853333-43.55413334c-0.54613333-1.36533333-1.36533333-2.59413333-1.91146666-3.82293333 1.36533333 0.68266667 2.59413333 1.50186667 3.95946666 2.18453333 0 0-0.13653333 0.13653333-0.13653333 0.27306667-0.68266667 0.4096-1.36533333 0.8192-1.91146667 1.36533333z m93.3888 1.2288c-0.54613333-0.54613333-0.95573333-1.2288-1.50186666-1.91146666 1.36533333-0.54613333 2.59413333-1.36533333 3.82293333-1.91146667-0.68266667 1.36533333-1.50186667 2.59413333-2.18453333 3.95946667 0 0-0.13653333 0-0.13653334-0.13653334z m-117.00906666 14.19946667c-32.08533333 14.06293333-72.22613333 8.6016-97.75786667-16.93013333l-41.91573333-41.91573334h57.7536c37.95626667-0.13653333 70.17813333 24.71253333 81.92 58.84586667z m-0.54613334 58.29973333c-12.288 33.1776-43.96373333 57.07093333-81.37386666 57.07093334h-59.392l40.82346666-40.82346667c16.52053333-16.52053333 38.36586667-25.53173333 61.57653334-25.53173333 13.5168 0 26.48746667 3.41333333 38.36586666 9.28426666z m139.94666667 1.6384c11.33226667-5.18826667 23.48373333-8.192 36.31786667-8.192 23.3472 0 45.19253333 9.0112 61.57653333 25.53173334l41.91573333 41.91573333h-57.61706666c-38.22933333 0.13653333-70.4512-24.84906667-82.19306667-59.25546667z m0.8192-58.1632c12.42453333-33.04106667 44.10026667-56.66133333 81.37386667-56.66133333H723.62666667L682.8032 468.30933333c-26.07786667 26.2144-67.44746667 31.26613333-99.9424 15.9744z m-68.4032-287.1296c42.1888 0 77.55093333 30.17386667 85.46986667 70.17813334-1.77493333 1.50186667-3.6864 2.73066667-5.3248 4.36906666l-54.20373334 54.20373334c-11.8784 11.8784-20.48 25.94133333-26.07786666 41.09653333-5.46133333-15.9744-14.19946667-31.1296-26.89706667-43.96373333l-54.20373333-54.20373334c-1.2288-1.2288-2.59413333-2.048-3.82293334-3.14026666 8.46506667-39.04853333 43.28106667-68.53973333 85.06026667-68.53973334zM265.14773333 349.7984c0-23.3472 9.0112-45.19253333 25.53173334-61.57653333 16.93013333-16.93013333 39.3216-25.53173333 61.57653333-25.53173334 16.93013333 0 33.86026667 4.9152 48.46933333 14.7456-0.13653333 2.32106667-0.68266667 4.5056-0.68266666 6.82666667v76.5952c0 17.06666667 3.95946667 33.04106667 10.6496 47.5136-15.1552-7.50933333-32.08533333-12.01493333-50.10773334-12.01493333H283.98933333c-1.6384 0-3.2768 0.4096-4.9152 0.54613333-9.0112-14.06293333-13.9264-30.17386667-13.9264-47.104z m-68.26666666 160.83626667c0-42.1888 30.17386667-77.55093333 70.17813333-85.46986667 1.50186667 1.77493333 2.73066667 3.6864 4.36906667 5.3248l54.20373333 54.20373333c12.01493333 12.01493333 26.2144 20.48 41.09653333 26.07786667-16.24746667 5.59786667-31.40266667 14.336-43.96373333 26.89706667l-54.20373333 54.20373333c-1.2288 1.2288-2.048 2.59413333-3.14026667 3.82293333-39.04853333-8.46506667-68.53973333-43.28106667-68.53973333-85.06026666z m91.06773333 223.77813333c-29.9008-29.9008-33.45066667-76.1856-10.78613333-110.04586667 2.32106667 0.13653333 4.5056 0.68266667 6.82666666 0.68266667h76.5952c17.06666667 0 33.04106667-3.95946667 47.5136-10.6496-7.50933333 15.1552-12.01493333 32.08533333-12.01493333 50.10773333v76.5952c0 1.6384 0.4096 3.14026667 0.4096 4.64213334-33.31413333 20.8896-80.14506667 17.2032-108.544-11.33226667z m222.54933333 93.7984c-42.1888 0-77.55093333-30.17386667-85.46986666-70.17813333 1.77493333-1.50186667 3.6864-2.73066667 5.3248-4.36906667l54.20373333-54.20373333c11.8784-11.8784 20.48-25.94133333 26.07786667-41.09653334 5.46133333 15.9744 14.19946667 31.1296 26.89706666 43.96373334l54.20373334 54.20373333c1.2288 1.2288 2.59413333 2.048 3.82293333 3.14026667-8.6016 39.18506667-43.4176 68.53973333-85.06026667 68.53973333z m249.17333334-152.64426667c0 23.3472-9.0112 45.19253333-25.53173334 61.57653334-28.80853333 28.94506667-76.5952 32.3584-110.04586666 10.6496 0.13653333-2.32106667 0.68266667-4.36906667 0.68266666-6.69013334v-76.5952c0-17.06666667-3.95946667-33.04106667-10.6496-47.5136 15.1552 7.50933333 32.08533333 12.01493333 50.10773334 12.01493334h76.5952c1.6384 0 3.2768-0.4096 4.9152-0.54613334 9.0112 14.06293333 13.9264 30.17386667 13.9264 47.104z m-1.91146667-75.50293333c-1.50186667-1.77493333-2.73066667-3.6864-4.36906667-5.3248l-54.20373333-54.20373333c-11.74186667-11.8784-25.8048-20.48-41.09653333-26.07786667 16.24746667-5.59786667 31.40266667-14.336 43.8272-26.89706667l54.20373333-54.20373333c1.2288-1.2288 2.048-2.59413333 3.14026667-3.82293333 39.18506667 8.46506667 68.67626667 43.4176 68.67626666 85.06026666 0 42.32533333-30.17386667 77.55093333-70.17813333 85.46986667z"
	      fill="#FFFFFF" p-id="2696"></path>
</svg>