<?xml version="1.0" standalone="no"?><!DOCTYPE svg PUBLIC "-//W3C//DTD SVG 1.1//EN" "http://www.w3.org/Graphics/SVG/1.1/DTD/svg11.dtd">
<svg t="1742988266473" class="icon" viewBox="0 0 1024 1024" version="1.1" xmlns="http://www.w3.org/2000/svg"
     p-id="11037"
     width="200" height="200"><path d="M512 29.82996409c150.2835616 1.34771627 278.5544256 39.0529376 360.85319573 122.74346667C956.53932053 234.86339236 994.24454187 363.13866062 995.59225813 513.42222222c-1.34771627 150.2835616-39.0529376 278.5544256-122.7390624 360.85319574-82.29877013 83.6861248-210.56963413 121.39134613-360.85319573 122.7390624-150.2835616-1.34771627-278.55882987-39.0529376-360.84879147-122.7390624C67.46067947 791.97664782 29.75545813 663.70578382 28.40774187 513.42222222c1.34771627-150.2835616 39.0529376-278.55882987 122.74346666-360.84879146C233.44117013 68.88290169 361.7164384 31.17768036 512 29.82996409z" fill="#6EDBA2" p-id="11038"></path><path d="M377.08304533 356.40008036c6.99843413-47.5003872 41.23747093-76.68769067 78.26883414-52.89565547 65.51397867 41.66909227 142.21488213 103.56714027 219.26812906 157.40091093 45.06040427 31.56122133 45.06040427 73.47695467 0 105.02936854-77.05324693 53.838176-153.7541504 115.73181973-219.26812906 157.39650666-37.0313632 23.79203413-71.2704-5.3996736-78.26883414-52.89565546a1284.61570773 1284.61570773 0 0 1 0-314.0354752z" fill="#FFFFFF" p-id="11039"></path></svg>