<?xml version="1.0" standalone="no"?><!DOCTYPE svg PUBLIC "-//W3C//DTD SVG 1.1//EN"
		"http://www.w3.org/Graphics/SVG/1.1/DTD/svg11.dtd">
<svg t="1749720292916" class="icon" viewBox="0 0 1024 1024" version="1.1" xmlns="http://www.w3.org/2000/svg" p-id="2724"
     width="200" height="200">
	<path d="M81.53263156 479.62526281a2694.14736844 2694.14736844 0 0 1 268.21473656-42.87157875l21.07368469 485.06947406c-78.26947406-11.0189475-156.49684219-21.49473657-234.64421062-31.17052687-18.21052594-137.01052594-36.42947344-274.0168425-54.64421063-411.02736844z"
	      fill="#FFFFFF" p-id="2725"></path>
	<path d="M612.52631562 400.05614042a12506.77473657 12506.77473657 0 0 1 93.52421063-329.01052594C711.99999969 0.14035105 606.7368425-12.49122771 556.67789469 78.92350855c-88.70315813 134.54736844-120.59789437 190.6231575-185.48210531 300.32000062a42.08421094 42.08421094 0 0 0-25.98736875-5.68421062A2745.05263125 2745.05263125 0 0 0 72.8 417.10035073a42.10526343 42.10526343 0 0 0-33.00631594 46.74105283l54.64842094 411.03157874a42.09684188 42.09684188 0 0 0 36.56421094 36.23157937c73.62526313 9.11578969 150.14736844 19.28421094 233.94526312 31.08210469a42.13894781 42.13894781 0 0 0 47.58736875-35.69263125c137.62526345 19.68842062 275.3431575 40.80842062 412.91368406 62.05894781a10020.79578937 10020.79578937 0 0 1 143.81894719-397.3347375l15.66736875-147.00631594c-122.72421094-17.237895-247.36421063-25.20421031-372.41263218-24.15578906z m-302.87999999 62.45052656l16.91368406 389.3052628a13998.14736844 13998.14736844 0 0 0-152.92631531-20.24421092L128.44631563 491.67719323l181.19999999-29.17052625z"
	      fill="#FF566B" p-id="2726"></path>
</svg>