<?xml version="1.0" standalone="no"?><!DOCTYPE svg PUBLIC "-//W3C//DTD SVG 1.1//EN" "http://www.w3.org/Graphics/SVG/1.1/DTD/svg11.dtd">
<svg t="1742988337724" class="icon" viewBox="0 0 1024 1024" version="1.1" xmlns="http://www.w3.org/2000/svg"
     p-id="16078"
     width="200" height="200"><path d="M512 32C246.8977775 32 32 246.8977775 32 512s214.8977775 480 480 480 480-214.8977775 480-480S777.1022225 32 512 32zM783.18222219 659.05777812c-20.37333375 17.47555594-46.82666625-57.51111094-50.63111157-45.97333312-9.2622225 28.05333375-13.60000031 46.80888844-40.90666687 77.35111125-1.45777781 1.63555594 31.55555531 13.56444469 40.90666687 39.04000032 8.95999969 24.39111094 26.38222219 63.05777812-87.64444406 75.19999968-66.89777813 7.11111094-115.25333344-35.64444469-120.07111125-35.23555594-8.94222188 0.78222187-4.96000031 0-14.56000031 0-7.85777812 0-8.37333375 0.56888906-15.76888875 0-2.02666688-0.16000031-24.26666625 35.23555594-123.71555531 35.23555594-77.08444406 0-97.04888906-48.51555563-81.54666657-75.1999997 15.5022225-26.68444406 41.36888906-34.45333313 37.72444407-38.68444405-17.95555594-20.80000031-30.32888906-43.03999969-37.72444407-63.14666625-1.83111094-5.01333375-3.36-9.88444406-4.56888843-14.56000031-2.80888875-10.73777813-24.26666625 63.00444469-47.30666625 45.97333312-23.04-17.03111156-20.9777775-60.39111094-6.06222188-101.88444469 15.04000031-41.83111125 52.9422225-82.11555562 53.36888906-91.00444406 1.51111125-33.08444437-3.27111094-38.57777813 0-47.27111156 7.27111125-19.46666625 16.12444406-12 16.12444407-22.09777781 0-127.25333344 94.56-230.4 211.2-230.4s211.2 103.16444438 211.2 230.4c0 4.87111125 12.67555594 0 18.73777781 22.09777781 1.24444406 4.56888844 2.09777812 22.18666688 0.6222225 47.27111156-0.69333375 12.05333344 32.12444438 26.71999969 49.1022225 91.00444407C808.65777781 621.45777781 791.66222188 651.78666687 783.18222219 659.05777812z" fill="#68A5E1" p-id="16079"></path></svg>