<?xml version="1.0" standalone="no"?><!DOCTYPE svg PUBLIC "-//W3C//DTD SVG 1.1//EN" "http://www.w3.org/Graphics/SVG/1.1/DTD/svg11.dtd">
<svg t="1742993602487" class="icon" viewBox="0 0 1024 1024" version="1.1" xmlns="http://www.w3.org/2000/svg" p-id="3335"
     width="200" height="200"><path d="M989.5936 632.34844444l0.27306667 0.06826667v108.7488c0 10.92266667-11.4688 22.86933333-37.41013334 38.22933333-24.50773333 14.60906667-98.0992 50.7904-174.21653333 88.13226667l-38.0928 18.70506666c-69.4272 34.13333333-134.41706667 66.3552-159.1296 81.1008-56.32 33.45066667-87.51786667 33.1776-131.95946667 8.87466667-44.37333333-24.23466667-325.632-153.87306667-376.2176-181.52106667-25.32693333-13.85813333-38.63893333-25.53173333-38.63893333-36.52266666v-110.31893334c0.4096 11.0592 13.312 22.66453333 38.63893333 36.52266667C123.4944 711.96444444 404.61653333 841.67111111 449.05813333 865.90577777c44.4416 24.30293333 75.63946667 24.576 131.95946667-8.87466666 56.18346667-33.45066667 320.44373333-157.55946667 371.43893333-187.86986667 24.7808-14.7456 36.864-26.4192 37.20533334-36.864l-0.06826667 0.06826667z m0-179.8144h0.2048v108.7488c0 10.92266667-11.4688 22.86933333-37.41013333 38.36586667-50.9952 30.3104-315.25546667 154.4192-371.43893334 187.86986666-56.32 33.45066667-87.51786667 33.10933333-131.95946666 8.87466667-44.37333333-24.23466667-325.632-153.94133333-376.2176-181.58933333C47.44533333 601.03111111 34.13333333 589.42577777 34.13333333 578.34951111v-110.31893334c0.4096 10.92266667 13.312 22.66453333 38.63893334 36.4544 50.65386667 27.648 331.776 157.35466667 376.2176 181.58933334 44.4416 24.23466667 75.63946667 24.576 131.95946666-8.87466667 56.18346667-33.45066667 320.44373333-157.55946667 371.43893334-187.93813333 24.71253333-14.7456 36.864-26.35093333 37.20533333-36.72746667zM459.3664 77.34044444c59.05066667-24.23466667 79.53066667-25.05386667 129.77493333-4.02773333 50.31253333 21.0944 312.9344 140.42453333 362.63253334 161.1776 25.6 10.71786667 38.22933333 20.48 37.81973333 31.60746666H989.86666667v108.7488c0 10.8544-11.53706667 22.86933333-37.41013334 38.2976C901.39306667 443.45457777 637.20106667 567.58044444 580.94933333 601.03111111c-56.25173333 33.45066667-87.4496 33.1776-131.8912 8.87466666-44.4416-24.1664-325.632-153.94133333-376.28586666-181.58933333C47.5136 414.50951111 34.13333333 402.90417777 34.13333333 391.84497777V281.54311111c-0.34133333-10.99093333 11.81013333-21.2992 36.6592-32.49493334 49.7664-22.18666667 329.38666667-147.456 388.57386667-171.6224v-0.06826666z m138.4448 254.29333333l-221.3888 38.77546667 154.48746667 73.18186667 66.90133333-111.95733334z m137.28426667-121.17333333l-144.9984 65.536 130.8672 59.05066667 14.26773333-6.3488 130.93546667-59.11893334-131.072-59.11893333z m-418.47466667 14.336c-65.3312 0-118.30613333 23.48373333-118.30613333 52.4288 0 28.8768 52.97493333 52.36053333 118.3744 52.36053333s118.30613333-23.41546667 118.30613333-52.36053333-52.90666667-52.36053333-118.30613333-52.36053333l-0.06826667-0.06826667z m143.63306667-108.68053333l21.43573333 45.12426666-71.33866667 29.35466667 95.57333334 9.8304 29.9008 56.79786667 18.56853333-50.92693334 82.80746667-9.8304-64.17066667-27.4432 17.06666667-46.62613333-63.0784 23.552-66.7648-29.83253333z" fill="#D82A1F" p-id="3336"></path></svg>