<?xml version="1.0" standalone="no"?><!DOCTYPE svg PUBLIC "-//W3C//DTD SVG 1.1//EN" "http://www.w3.org/Graphics/SVG/1.1/DTD/svg11.dtd">
<svg t="1742993585249" class="icon" viewBox="0 0 1024 1024" version="1.1" xmlns="http://www.w3.org/2000/svg" p-id="2694"
     width="200" height="200"><path d="M115.04 274.45333302l396.74666625 187.84000031a53.28 53.28 0 0 0 47.78666719-1.12000031l351.62666625-186.24a16.00000031 16.00000031 0 0 0-0.37333313-28.42666594L535.83999969 58.98666645a53.22666656 53.22666656 0 0 0-47.67999938 0l-373.44 186.66666657a16.00000031 16.00000031 0 0 0 0.31999969 28.8" fill="#FF4D00" fill-opacity=".6" p-id="2695"></path><path d="M473.49333312 987.78666646l-358.71999937-179.35999969A53.33333344 53.33333344 0 0 1 85.33333344 760.74666645V338.93333333a16.00000031 16.00000031 0 0 1 22.82666625-14.4l373.28000062 176.42666625c18.66666656 8.80000031 30.55999969 27.57333375 30.55999969 48.21333375v414.82666688c0 19.78666688-20.80000031 32.64-38.50666688 23.78666624M605.12 984.31999958l306.66666656-175.2533325a53.28 53.28 0 0 0 26.88-46.29333375V340.53333364a16.00000031 16.00000031 0 0 0-23.57333344-14.02666687L593.33333375 500.26666677a53.44000031 53.44000031 0 0 0-28.00000031 46.93333312v414.02666719c0 20.42666625 22.02666656 33.22666687 39.78666656 23.0933325" fill="#0088FF" fill-opacity=".7" p-id="2696"></path></svg>