<?xml version="1.0" standalone="no"?><!DOCTYPE svg PUBLIC "-//W3C//DTD SVG 1.1//EN" "http://www.w3.org/Graphics/SVG/1.1/DTD/svg11.dtd">
<svg t="1742993592071" class="icon" viewBox="0 0 1024 1024" version="1.1" xmlns="http://www.w3.org/2000/svg" p-id="3011"
     width="200" height="200"><path d="M42.666667 533.33333333a469.333333 469.333333 0 1 0 938.666666 0 469.333333 469.333333 0 1 0-938.666666 0Z" fill="#FF6A00" p-id="3012"></path><path d="M614.741333 234.66666633a12.714667 12.714667 0 0 1 12.416 12.416v92.373334a12.714667 12.714667 0 0 1-12.416 12.885333h-23.957333v38.4l6.4 0.789333a204.053333 204.053333 0 0 1 175.765333 189.824l0.213334 6.613334h0.426666l1.216 110.506666h-44.842666l-1.152-107.093333a160.021333 160.021333 0 0 0-123.605334-152.32l-8.938666-1.792a159.125333 159.125333 0 0 0-175.957334 101.162667 156.8 156.8 0 0 0-46.464-1.962667 203.989333 203.989333 0 0 1 172.16-145.493333v-38.656h-23.914666a12.714667 12.714667 0 0 1-12.266667-12.864v-92.373334a12.714667 12.714667 0 0 1 12.266667-12.416h92.650666z m-81.002666 23.957334h69.504v69.76h-69.504v-69.76z m-1.578667 428.970666c-4.309333-74.346667-65.834667-133.312-141.141333-133.312-78.08 0-141.376 63.424-141.376 141.632h44.842666l0.277334-7.210666a96.768 96.768 0 0 1 96.256-89.493334 96.768 96.768 0 0 1 96.554666 96.704h44.821334l-0.213334-8.32z m-214.208 26.154667a12.714667 12.714667 0 0 1 12.394667 12.437333v92.8a12.736 12.736 0 0 1-12.394667 13.013334h-92.202667a12.714667 12.714667 0 0 1-12.416-12.416v-92.8a12.736 12.736 0 0 1 12.416-13.034667h92.202667z m251.52 13.013333a12.714667 12.714667 0 0 0-12.416-12.437333H464.426667a12.714667 12.714667 0 0 0-12.394667 12.437333v92.8a12.714667 12.714667 0 0 0 12.373333 12.437334h92.672a12.714667 12.714667 0 0 0 12.416-12.416v-92.821334z m241.194667 0a12.714667 12.714667 0 0 0-12.394667-12.437333h-92.672a12.714667 12.714667 0 0 0-12.245333 12.437333v92.8c0.149333 6.762667 5.525333 12.202667 12.245333 12.437334h92.650667a12.714667 12.714667 0 0 0 12.416-12.416v-92.821334z m-573.418667 11.52h69.632v69.76h-69.632v-69.76z m237.909333 0h70.4v69.76h-69.653333l-0.746667-69.76z m242.112 0h69.482667v69.76h-69.482667v-69.76z" fill="#FFFFFF" p-id="3013"></path></svg>