<?xml version="1.0" standalone="no"?><!DOCTYPE svg PUBLIC "-//W3C//DTD SVG 1.1//EN" "http://www.w3.org/Graphics/SVG/1.1/DTD/svg11.dtd">
<svg t="1742988321809" class="icon" viewBox="0 0 1024 1024" version="1.1" xmlns="http://www.w3.org/2000/svg"
     p-id="14782"
     width="200" height="200"><path d="M251.60362667 655.08693333c0 35.60789333 5.13365333 69.95968 14.47253333 102.56384 56.41557333 40.52309333 125.50144 64.44373333 200.26709333 64.44373334 189.83594667 0 343.68170667-153.90037333 343.68170667-343.68170667 0-59.47392-15.12789333-115.39797333-41.66997333-164.22229333-44.78293333-19.22389333-94.09877333-29.87349333-145.92682667-29.87349334-204.8 0-370.82453333 165.96992-370.82453333 370.76992z" fill="#ffe048" p-id="14783"></path><path d="M460.05276823 889.67377351c-229.3507565 0-415.88854329-186.59992462-415.88854328-415.88854329s186.59992462-415.88854329 415.88854328-415.88854329 415.88854329 186.59992462 415.88854329 415.88854329-186.59992462 415.88854329-415.88854329 415.88854329z m0-782.12895479c-201.94797037 0-366.17827365 164.29244112-366.17827365 366.17827366s164.29244112 366.17827365 366.17827365 366.17827367 366.17827365-164.29244112 366.17827367-366.17827367-164.29244112-366.17827365-366.17827367-366.17827366zM945.22499982 988.34865872c-6.46233505 0-12.9246701-2.48551348-17.77142139-7.51867827l-145.278263-148.75798187a24.90484509 24.90484509 0 0 1 0.43496487-35.17001576 24.90484509 24.90484509 0 0 1 35.17001575 0.43496486l145.278263 148.75798187a24.90484509 24.90484509 0 0 1-0.43496486 35.17001575 24.85513482 24.85513482 0 0 1-17.39859437 7.08371342z" fill="#1296db" p-id="14784"></path></svg>