<?xml version="1.0" standalone="no"?><!DOCTYPE svg PUBLIC "-//W3C//DTD SVG 1.1//EN"
		"http://www.w3.org/Graphics/SVG/1.1/DTD/svg11.dtd">
<svg t="1743047498775" class="icon" viewBox="0 0 1024 1024" version="1.1" xmlns="http://www.w3.org/2000/svg" p-id="3417"
     width="200" height="200">
	<path d="M757.63863703 1000.78933333H266.36136297c-42.71976297 0-79.6141037-36.89434075-79.61410372-79.6141037 0-42.71976297 36.89434075-79.6141037 79.61410372-79.61410371h489.33546666c42.71976297 0 79.6141037 36.89434075 79.6141037 79.61410371 1.94180741 42.71976297-34.95253333 79.6141037-77.6722963 79.6141037z"
	      fill="#ADF0EA" p-id="3418"></path>
	<path d="M912.98322963 68.72177777H111.01677037c-42.71976297 0-79.6141037 36.89434075-79.6141037 79.6141037V709.51822222c0 42.71976297 36.89434075 79.6141037 79.6141037 79.6141037h800.02465185c42.71976297 0 79.6141037-36.89434075 79.6141037-79.6141037V148.33588147c1.94180741-42.71976297-34.95253333-79.6141037-77.67229629-79.6141037zM338.20823703 651.264c0 23.30168889-17.47626667 40.77795555-40.77795555 40.77795555h-34.95253333c-23.30168889 0-40.77795555-17.47626667-40.77795556-40.77795555V245.42625185c0-23.30168889 17.47626667-40.77795555 40.77795556-40.77795555h34.95253333c23.30168889 0 40.77795555 17.47626667 40.77795555 40.77795555V651.264z m234.9586963 0c0 23.30168889-17.47626667 40.77795555-40.77795555 40.77795555H497.43644445c-23.30168889 0-40.77795555-17.47626667-40.77795556-40.77795555V245.42625185c0-23.30168889 17.47626667-40.77795555 40.77795556-40.77795555h34.95253333c23.30168889 0 40.77795555 17.47626667 40.77795555 40.77795555V651.264z m236.9005037 0c0 23.30168889-17.47626667 40.77795555-40.77795555 40.77795555h-34.95253333c-23.30168889 0-40.77795555-17.47626667-40.77795556-40.77795555V381.35277037c0-23.30168889 17.47626667-40.77795555 40.77795556-40.77795556H769.28948148c23.30168889 0 40.77795555 17.47626667 40.77795555 40.77795556V651.264z"
	      fill="#3DD5BB" p-id="3419"></path>
</svg>