<?xml version="1.0" standalone="no"?><!DOCTYPE svg PUBLIC "-//W3C//DTD SVG 1.1//EN" "http://www.w3.org/Graphics/SVG/1.1/DTD/svg11.dtd">
<svg t="1742993689599" class="icon" viewBox="0 0 1024 1024" version="1.1" xmlns="http://www.w3.org/2000/svg" p-id="3338"
     width="200" height="200"><path d="M596.9403125 89.37878473c0-23.9765625-16.4184375-43.4203125-36.661875-43.4203125h-91.66968749c-20.2490625 0-36.66 19.44375001-36.66 43.4203125l-36.66843751 78.16124999c0 23.9728125 16.415625 43.4175 36.66843751 43.4175h164.99156249c20.2528125 0 36.6665625-19.4446875 36.6665625-43.4175l-36.6665625-78.16124999zM876.8984375 215.07878473l-64.8140625-64.82156251c-14.319375-14.3165625-39.673125-12.1734375-56.6296875 4.7803125l-81.1940625 29.33625001c-16.9575 16.9565625-19.0959375 42.3140625-4.7728125 56.63437499l116.671875 116.671875c14.3165625 14.3128125 39.6721875 12.1809375 56.630625-4.779375l29.33625-81.19406249c16.9565625-16.9546875 19.0921875-42.31125001 4.771875-56.6278125zM937.784375 430.21909723l-78.1575-36.66656251c-23.9803125 0-43.4203125 16.4184375-43.4203125 36.66656251v164.99624999c0 20.251875 19.44 36.669375 43.4203125 36.669375l78.1575-36.669375c23.975625 0 43.4203125-16.415625 43.4203125-36.66656249v-91.65937501c0.0009375-20.251875-19.4446875-36.6703125-43.4203125-36.67031249zM872.1265625 753.73722222l-29.33625-81.1978125c-16.9575-16.96124999-42.315-19.0921875-56.630625-4.78031249l-116.671875 116.6746875c-14.3221875 14.319375-12.1846875 39.6721875 4.7728125 56.63437499l81.1940625 29.33625c16.9565625 16.9528125 42.3103125 19.0959375 56.6296875 4.77656251l64.8140625-64.8225c14.3203125-14.319375 12.1846875-39.6684375-4.771875-56.62125001zM596.9403125 814.48534722H431.9478125c-20.25374999 0-36.6684375 19.44375001-36.6684375 43.41843751l36.6684375 78.1575c0 23.979375 16.4109375 43.419375 36.66 43.41937499h91.6696875c20.2453125 0 36.661875-19.44 36.661875-43.41937499l36.6665625-78.1575c0.0009375-23.9746875-16.4146875-43.4184375-36.665625-43.41843751zM359.3965625 784.43378473L242.7284375 667.75909723c-14.32124999-14.31375001-39.6740625-12.1809375-56.6315625 4.78031249l-29.33812501 81.1978125c-16.9575 16.9528125-19.0921875 42.301875-4.77656249 56.6221875l64.8196875 64.82156249c14.3175 14.319375 39.6684375 12.17624999 56.6278125-4.77656249l81.19406249-29.33625c16.9575-16.9621875 19.095-42.3140625 4.77281251-56.63437499zM169.2575 393.55253472L91.101875 430.21909723c-23.9840625 0-43.4203125 16.4184375-43.4203125 36.67031249v91.65937501c0 20.2528125 19.43625001 36.6665625 43.4203125 36.66656249l78.155625 36.669375c23.9803125 0 43.4203125-16.419375 43.4203125-36.669375V430.21909723c0.0009375-20.248125-19.44-36.6665625-43.4203125-36.66656251zM354.6246875 184.37378473l-81.1940625-29.33625001c-16.9584375-16.9528125-42.3103125-19.0959375-56.6278125-4.7803125l-64.8196875 64.82156251c-14.3165625 14.3165625-12.1809375 39.673125 4.7765625 56.62687499l29.338125 81.1940625c16.9565625 16.9603125 42.3103125 19.0921875 56.6315625 4.77937501l116.668125-116.67187501c14.32124999-14.3203125 12.18374999-39.676875-4.7728125-56.63343749z" fill="#C45FA0" p-id="3339"></path><path d="M773.1134375 524.13315972c-1.2225 141.961875-116.656875 257.39625001-258.616875 258.61781251-68.739375 0.5915625-133.9546875-27.6196875-182.8659375-75.74531251-49.2196875-48.4246875-75.1565625-114.5025-75.7453125-182.86968749-0.5296875-61.7109375-96.275625-61.7634375-95.7421875 0 1.6734375 194.1496875 160.2028125 352.6846875 354.3534375 354.35624999 194.1703125 1.6715625 352.7090625-162.733125 354.36-354.36093749 0.5315625-61.7615625-95.210625-61.7090625-95.743125 0.00187499z" fill="#4A5699" p-id="3340"></path><path d="M255.88625001 507.41565972c1.224375-141.9553125 116.653125-257.3915625 258.61124999-258.61406249 68.7403125-0.5925 133.9584375 27.6196875 182.8715625 75.74531249 49.2178125 48.4265625 75.1546875 114.504375 75.7453125 182.86875 0.5315625 61.7090625 96.27375001 61.7615625 95.743125 0-1.6715625-194.14875001-160.2121875-352.689375-354.36-354.35718751-194.1646875-1.6696875-352.7025 162.729375-354.3534375 354.35718751-0.534375 61.7625 95.210625 61.7090625 95.74218751 0z" fill="#E5594F" p-id="3341"></path><path d="M585.21125001 517.59597223c-0.8634375 39.5353125-32.0325 70.6959375-71.56781251 71.5603125-39.5475 0.8634375-70.723125-33.3234375-71.5603125-71.56031252-0.864375-39.5540625 33.32625001-70.7278125 71.5603125-71.56406249 39.5540625-0.86624999 70.7296875 33.3253125 71.56781251 71.56406249 1.3490625 61.6453125 97.0921875 61.7765625 95.74312499 0-2.023125-92.4703125-74.8396875-165.2840625-167.311875-167.30718748-92.45625001-2.02125001-165.3459375 77.8940625-167.3034375 167.30718748-2.0203125 92.4553125 77.893125 165.346875 167.3034375 167.30343751 92.4553125 2.023125 165.35625001-77.8884375 167.311875-167.30343751 1.3490625-61.7765625-94.3940625-61.6453125-95.74312501 0z" fill="#F39A2B" p-id="3342"></path></svg>