<?xml version="1.0" standalone="no"?><!DOCTYPE svg PUBLIC "-//W3C//DTD SVG 1.1//EN" "http://www.w3.org/Graphics/SVG/1.1/DTD/svg11.dtd">
<svg t="1742988283513" class="icon" viewBox="0 0 1024 1024" version="1.1" xmlns="http://www.w3.org/2000/svg"
     p-id="12330"
     width="200" height="200"><path d="M511.93001 272.104985c-132.56066813 0-239.965005 107.40433687-239.965005 239.965005s107.40433687 239.965005 239.965005 239.965005 239.965005-107.40433687 239.965005-239.965005-107.40433687-239.965005-239.965005-239.965005z" fill="#FFBB00" p-id="12331"></path><path d="M511.93001 256.62724156c140.83946062 0 255.4427475 114.58329 255.42275063 255.44274844 0 140.83946062-114.58329 255.4427475-255.42275063 255.4427475-140.83946062 0-255.4427475-114.58329-255.4427475-255.4427475 0-140.83946062 114.58329-255.4427475 255.4427475-255.44274844z m0 448.99452188c106.72443562 0 193.57177125-86.82733781 193.57177125-193.55177344 0-106.72443562-86.84733469-193.57177125-193.57177125-193.57177125s-193.57177125 86.84733469-193.57177031 193.57177125 86.84733469 193.57177125 193.57177031 193.57177031z m0-489.14866594a30.93548812 30.93548812 0 0 1-30.93548812-30.93548812V63.07546813a30.93548812 30.93548812 0 1 1 61.87097718 0v122.46214125c0 17.07750938-13.85797875 30.93548812-30.93548906 30.93548812z m0 591.19378406c17.07750938 0 30.93548812 13.85797875 30.93548906 30.95548594v122.44214438a30.93548812 30.93548812 0 0 1-61.87097719 0V838.6223675c0-17.09750625 13.83798188-30.95548594 30.93548813-30.95548594z m448.99452187-326.5523775a30.93548812 30.93548812 0 0 1 0 61.89097407h-122.46214125a30.93548812 30.93548812 0 0 1 0-61.87097719h122.46214125zM216.33311844 512.06999c0 17.09750625-13.85797875 30.93548812-30.93548907 30.93548812H62.93548813a30.93548812 30.93548812 0 0 1-1e-8-61.87097718h122.46214125c17.07750938 0 30.93548812 13.85797875 30.93548907 30.93548906zM743.69621094 311.21928031a30.93548812 30.93548812 0 0 1-21.87681-52.81229812l86.58737344-86.5873725a30.93548812 30.93548812 0 1 1 43.75361906 43.75361906l-86.5873725 86.5873725a30.85550063 30.85550063 0 0 1-21.87681 9.05867906zM260.04674281 720.19963719a30.93548812 30.93548812 0 1 1 43.75362 43.75362l-86.58737344 86.5873725a30.83550281 30.83550281 0 0 1-21.87680906 9.05867906 30.93548812 30.93548812 0 0 1-21.87681-52.81229812l86.5873725-86.58737344z m505.546275 0l86.5873725 86.58737344a30.93548812 30.93548812 0 0 1-43.75361906 43.75361906l-86.5873725-86.5873725a30.93548812 30.93548812 0 1 1 43.75361906-43.75362zM260.04674281 302.16060125l-86.5873725-86.5873725a30.93548812 30.93548812 0 1 1 43.75361907-43.75361906l86.58737343 86.5873725a30.93548812 30.93548812 0 1 1-43.75362 43.75361906z" fill="#000000" p-id="12332"></path></svg>