<?xml version="1.0" standalone="no"?><!DOCTYPE svg PUBLIC "-//W3C//DTD SVG 1.1//EN" "http://www.w3.org/Graphics/SVG/1.1/DTD/svg11.dtd">
<svg t="1742993677742" class="icon" viewBox="0 0 1024 1024" version="1.1" xmlns="http://www.w3.org/2000/svg" p-id="2855"
     width="200" height="200"><path d="M885.8 788.6L692.78 597.98c12.42-26.1 19.32-55.32 19.32-85.92A199.8 199.8 0 0 0 512 311.96a202.018125 202.018125 0 0 0-53.46 7.2l85.68 85.32c35.46 35.76 32.76 95.64-5.76 134.04C500.12 576.8 440 579.5 404.48 544.34l-85.38-85.92c-4.74 16.98-7.2 34.92-7.2 53.7a200.4 200.4 0 0 0 200.16 200.64 196.2 196.2 0 0 0 85.62-19.5L789.74 884.3c24.6 24.06 65.52 22.62 91.86-4.08 26.28-26.22 28.14-67.56 4.2-91.62z m-51.9 77.76a34.44 34.44 0 0 1-34.32-34.14 34.2 34.2 0 0 1 34.32-33.36 33.6 33.6 0 0 1 33.96 33.36 33.9 33.9 0 0 1-33.96 34.14zM932 423.26h-19.44l-45.6-0.48h-0.36a56.04 56.04 0 0 1-25.44-9.06c-0.6 0-0.84-0.18-1.08-0.6a58.38 58.38 0 0 1-23.28-68.7 50.64 50.64 0 0 1 9.6-18.3l10.08-10.32 22.74-22.38 13.38-13.62a70.2 70.2 0 0 0-0.72-86.34l-39.12-40.08a71.88 71.88 0 0 0-87.18-1.26l-14.22 13.68-31.62 32.52h-0.48a59.46 59.46 0 0 1-60.84 7.98 64.86 64.86 0 0 1-18.84-12.72 62.82 62.82 0 0 1-16.74-35.16V92.6A69.72 69.72 0 0 0 541.1 32h-55.74a70.98 70.98 0 0 0-62.28 60.24v65.16c-0.24 1.68-0.84 3.48-0.96 4.98v0.6c-0.48 1.62-0.66 3.3-0.9 4.74-0.6 0-0.6 0.6-0.6 0.6-0.6 1.44-0.96 3.72-1.74 4.74-0.54 1.8-1.56 3.24-2.34 4.92v0.18a52.62 52.62 0 0 1-14.52 18.12 59.58 59.58 0 0 1-75.66 1.2l-10.2-10.26-22.68-22.2-13.74-13.98a70.08 70.08 0 0 0-86.34 1.02l-40.02 39.48a71.16 71.16 0 0 0-1.2 86.76l13.74 13.56 32.28 32.1 1.8 2.88c0.42 0.18 0.78 1.02 1.62 2.1 0.42 0.6 0.78 1.8 1.44 2.64 0 0.18 1.08 1.26 1.08 1.86 0.54 0.84 1.2 2.28 1.92 3.3 0 0.6 0.18 1.26 0.54 1.86 0.6 0.84 0.84 2.28 1.74 3.54 0 0.42 0.12 1.02 0.3 1.62 0.18 1.8 1.14 3.24 1.14 5.04a18.24 18.24 0 0 1 0.78 5.34 57.9 57.9 0 0 1-17.16 49.8 58.8 58.8 0 0 1-35.22 17.1H92.96c-31.98 4.5-57.18 30-60.78 61.68L32 538.82c3.24 32.22 28.38 57.54 60.24 61.86h19.62l45.48 0.6c1.62 0.24 3.9 0.24 5.46 0.84h1.56c1.44 0.6 2.28 1.08 3.9 1.26 24.54 7.62 42.36 30.48 42.36 57.6a59.82 59.82 0 0 1-13.02 37.38l-10.02 9.72-22.92 22.38-13.68 13.62a71.46 71.46 0 0 0 0.72 86.52l39.78 40.08a70.68 70.68 0 0 0 86.76 0.84l13.56-13.56 32.58-31.86c0-0.42 0.24-0.42 0.66-0.66 1.26-1.26 2.58-1.8 3.54-3.06 1.14-0.18 1.32-0.18 2.16-0.84 0.6-0.42 1.62-1.26 2.46-1.8 1.14-0.72 2.58-0.84 3.72-1.44 0.72-0.42 1.26-0.66 1.5-1.08 1.68-0.18 2.82-0.84 5.1-1.44 1.98-0.6 3.3-1.38 4.74-1.38h0.54c1.56-0.42 3.18-0.66 4.98-1.08h0.42c1.5 0 2.88 0 4.14-0.6a59.88 59.88 0 0 1 45.84 17.88 59.28 59.28 0 0 1 17.4 35.58l-0.18 13.98v50.94c3.78 32.28 29.4 57.6 61.32 60.9H539a69.84 69.84 0 0 0 61.86-59.82v-19.32l0.6-32.88v-13.02a59.28 59.28 0 0 1 13.68-32.22c0.48-0.24 0.96-1.44 1.86-1.86a76.8 76.8 0 0 1 11.94-10.5c1.38-0.18 2.7-1.26 3.54-1.8 1.08-0.6 1.08-0.6 1.5-0.6 0.6-0.24 0.96-0.24 1.08-0.24 1.2-0.84 2.1-0.84 3.42-1.38l-53.76-53.7a261.6 261.6 0 0 1-73.26 10.08A262.02 262.02 0 0 1 249.26 512a262.8 262.8 0 0 1 263.52-262.74 262.98 262.98 0 0 1 261.9 263.58c0 24.66-3.78 49.14-10.32 71.34l54.12 53.28c2.82-6.36 7.14-11.94 12.06-17.52 5.64-5.34 13.02-9.42 19.8-12.06a53.4 53.4 0 0 1 15.36-4.56h65.46a70.56 70.56 0 0 0 60.72-61.44v-56.82A69.84 69.84 0 0 0 932 423.26z" fill="#f59e37" p-id="2856"></path></svg>