<?xml version="1.0" standalone="no"?><!DOCTYPE svg PUBLIC "-//W3C//DTD SVG 1.1//EN"
		"http://www.w3.org/Graphics/SVG/1.1/DTD/svg11.dtd">
<svg t="1749721082619" class="icon" viewBox="0 0 1032 1024" version="1.1" xmlns="http://www.w3.org/2000/svg" p-id="3275"
     width="201.5625" height="200">
	<path d="M991.1759375 105.20614583c0 10.438125-8.4553125 18.8925-18.92625 18.8925H344.0084375c-10.408125 0-18.8625-8.4553125-18.8625-18.8925V80.55364583c0-10.438125 8.4553125-18.8953125 18.8625-18.8953125h628.24125c10.471875 0 18.92625 8.4571875 18.92625 18.8953125v24.6525z"
	      fill="#D2D5DE" p-id="3276"></path>
	<path d="M972.2496875 132.42458333H344.0084375c-14.9934375 0-27.1884375-12.1959375-27.1884375-27.2184375V80.55364583C316.82 65.52927083 329.0140625 53.33333333 344.0084375 53.33333333h628.24125c15.0225 0 27.2521875 12.1959375 27.2521875 27.2203125v24.6525c0 15.0225-12.2296875 27.2184375-27.2521875 27.2184375zM344.0084375 69.98427083c-5.821875 0-10.5375 4.7475-10.5375 10.569375v24.6525c0 5.82 4.715625 10.5675 10.5375 10.5675h628.24125c5.8528125 0 10.60125-4.7475 10.60125-10.5675V80.55364583c0-5.821875-4.7475-10.569375-10.60125-10.569375H344.0084375z"
	      fill="#040000" p-id="3277"></path>
	<path d="M932.898125 250.18395833V126.34302083H383.421875v123.84c0 121.5 78.961875 224.46 188.3615625 260.68875-109.3996875 36.230625-188.3615625 139.125-188.3615625 260.6896875v123.84h549.47625V771.56145833c0-121.5646875-79.0265625-224.46-188.42625-260.68875 109.3996875-36.2296875 188.42625-139.1896875 188.42625-260.68875z"
	      fill="#FFFFFF" p-id="3278"></path>
	<path d="M932.898125 903.72739583H383.421875c-4.5853125 0-8.325-3.740625-8.325-8.3259375V771.56145833c0-114.6684375 68.653125-216.7528125 173.0128125-260.68875C443.75 466.93677083 375.096875 364.85239583 375.096875 250.18395833V126.34302083c0-4.5853125 3.740625-8.325 8.325-8.325h549.47625c4.5853125 0 8.3259375 3.740625 8.3259375 8.325v123.84c0 114.6684375-68.685 216.7528125-173.0784375 260.68875 104.394375 43.9359375 173.0784375 146.0203125 173.0784375 260.68875v123.84c0 4.58625-3.740625 8.326875-8.3259375 8.326875zM391.746875 887.07645833h532.82625V771.56145833c0-114.9946875-73.4325-216.5896875-182.70375-252.785625-3.4153125-1.1390625-5.7234375-4.325625-5.7234375-7.903125s2.3090625-6.7640625 5.7234375-7.903125c109.27125-36.1959375 182.70375-137.7909375 182.70375-252.785625V134.66895833H391.746875v115.515c0 115.0275 73.400625 216.6234375 182.638125 252.785625 3.4153125 1.1390625 5.7234375 4.325625 5.7234375 7.903125s-2.3090625 6.7640625-5.7234375 7.903125C465.1484375 554.93895833 391.746875 656.53395833 391.746875 771.56145833v115.515z"
	      fill="#222323" p-id="3279"></path>
	<path d="M991.1759375 938.94739583c0 10.44-8.4553125 18.894375-18.92625 18.894375H344.0084375c-10.408125 0-18.8625-8.4553125-18.8625-18.894375v-24.6834375c0-10.4071875 8.4553125-18.8625 18.8625-18.8625h628.24125c10.471875 0 18.92625 8.45625 18.92625 18.8625v24.6834375z"
	      fill="#D2D5DE" p-id="3280"></path>
	<path d="M972.2496875 966.16770833H344.0084375c-14.9934375 0-27.1884375-12.1959375-27.1884375-27.2203125v-24.6834375c0-14.9915625 12.195-27.1875 27.1884375-27.1875h628.24125c15.0225 0 27.2521875 12.1959375 27.2521875 27.1875v24.6834375c0 15.0253125-12.2296875 27.2203125-27.2521875 27.2203125z m-628.24125-62.4403125c-5.821875 0-10.5375 4.7146875-10.5375 10.5365625v24.6834375c0 5.821875 4.715625 10.569375 10.5375 10.569375h628.24125c5.8528125 0 10.60125-4.7475 10.60125-10.569375v-24.6834375c0-5.821875-4.7475-10.5365625-10.60125-10.5365625H344.0084375z"
	      fill="#040000" p-id="3281"></path>
	<path d="M450.025625 779.88645833v70.76625h416.2696875V779.88645833c0-105.7584375-78.961875-192.915-181.0771875-206.1834375V447.22864583c66.2765625-8.6175 122.4084375-48.6834375 153.8896875-104.424375H477.1475c31.5459375 55.7409375 87.613125 95.806875 153.9553125 104.424375v126.4753125C528.921875 586.97145833 450.025625 674.12895833 450.025625 779.88645833z"
	      fill="#1296db" p-id="3282"></path>
	<path d="M866.2953125 858.97770833H450.025625c-4.5853125 0-8.325-3.7396875-8.325-8.325V779.88645833c0-105.8559375 77.33625-196.329375 181.0771875-213.37125V454.41739583c-63.7734375-10.569375-120.5221875-50.3428125-152.8809375-107.5153125-1.4634375-2.56875-1.4315625-5.7234375 0.0646875-8.2940625a8.3025 8.3025 0 0 1 7.186875-4.1296875h361.9603125a8.3034375 8.3034375 0 0 1 7.186875 4.1296875c1.49625 2.5696875 1.5290625 5.7253125 0.0646875 8.2940625-32.2921875 57.13875-89.0090625 96.9459375-152.8171875 107.5153125v112.09875c103.741875 17.0746875 181.0771875 107.5153125 181.0771875 213.37125v70.76625c0 4.584375-3.7396875 8.3240625-8.325 8.3240625z m-407.9446875-16.65h399.61875V779.88645833c0-99.969375-74.73375-185.045625-173.82375-197.9221875a8.32125 8.32125 0 0 1-7.2534375-8.26125V447.22864583a8.3203125 8.3203125 0 0 1 7.2534375-8.2603125c56.780625-7.3809375 108.163125-39.838125 140.1-87.8390625h-332.203125c31.96875 48.0009375 83.3840625 80.458125 140.13375 87.8390625a8.3184375 8.3184375 0 0 1 7.250625 8.2603125v126.4753125a8.319375 8.319375 0 0 1-7.250625 8.26125C533.084375 594.84083333 458.350625 679.91708333 458.350625 779.88645833v62.44125z"
	      fill="#1296db" p-id="3283"></path>
	<path d="M614.778125 725.73833333v-62.44125h-57.49875c-5.461875-40.6828125-21.463125-77.9521875-45.204375-109.1390625l40.6528125-40.68375-44.16375-44.1309375-40.6509375 40.6828125c-31.155-23.739375-68.4253125-39.7396875-109.1409375-45.2025v-57.49875h-62.4403125v57.49875c-40.7175 5.4628125-77.9859375 21.463125-109.1409375 45.2025l-40.6509375-40.6509375-44.16375 44.131875 40.651875 40.6828125c-23.7403125 31.155-39.6759375 68.4253125-45.204375 109.141875H40.325v62.4065625h57.4978125c5.46375 40.68375 21.4640625 77.9540625 45.204375 109.1409375l-40.651875 40.6846875 44.16375 44.13 40.6509375-40.68375c31.155 23.7721875 68.424375 39.7415625 109.1409375 45.2690625v57.4978125h62.4403125v-57.496875c40.715625-5.5275 77.9859375-21.496875 109.1409375-45.23625l40.6509375 40.68375 44.16375-44.1628125-40.6528125-40.6846875c23.74125-31.186875 39.7425-68.4571875 45.204375-109.1409375h57.4996875z"
	      fill="#D2D5DE" p-id="3284"></path>
	<path d="M358.7721875 990.10395833h-62.4403125c-4.58625 0-8.325-3.740625-8.325-8.3259375v-50.3428125c-36.0346875-6.0159375-70.344375-20.2284375-100.0021875-41.4646875l-35.578125 35.6109375c-3.121875 3.121875-8.6503125 3.121875-11.7721875 0L96.490625 881.45052083a8.323125 8.323125 0 0 1 0-11.773125l35.578125-35.6109375c-21.23625-29.7571875-35.44875-64.0659375-41.3990625-100.0021875H40.325c-4.58625 0-8.325-3.73875-8.325-8.3259375v-62.4065625c0-4.5853125 3.7396875-8.3259375 8.325-8.3259375h50.34375c6.0159375-36.0328125 20.2275-70.3434375 41.3990625-100.003125l-35.578125-35.61a8.3203125 8.3203125 0 0 1 0-11.77125l44.16375-44.1328125c3.2840625-3.283125 8.551875-3.2184375 11.7721875 0l35.578125 35.5790625c29.724375-21.2371875 64.0340625-35.4478125 100.0021875-41.3990625v-50.3428125c0-4.5853125 3.7396875-8.325 8.325-8.325h62.4403125c4.5853125 0 8.325 3.740625 8.325 8.325v50.3428125c35.968125 5.95125 70.2459375 20.161875 100.003125 41.3990625l35.5771875-35.6109375c3.121875-3.121875 8.649375-3.121875 11.77125 0l44.16375 44.1309375a8.32125 8.32125 0 0 1 0 11.773125l-35.5771875 35.6109375c21.2353125 29.7553125 35.4478125 64.0659375 41.3990625 100.00125h50.3428125c4.5853125 0 8.325 3.7396875 8.325 8.325v62.44125c0 4.5871875-3.7396875 8.3259375-8.325 8.3259375h-50.3428125c-5.9521875 35.93625-20.16375 70.245-41.3990625 100.0021875l35.5771875 35.6109375a8.32125 8.32125 0 0 1 0 11.773125l-44.16375 44.161875a8.315625 8.315625 0 0 1-11.77125 0l-35.5771875-35.61c-29.6925 21.2034375-64.0021875 35.4159375-100.003125 41.431875v50.3428125c0.0009375 4.584375-3.7396875 8.3259375-8.3240625 8.3259375z m-54.1153125-16.6509375h45.789375V924.28020833c0-4.1625 3.088125-7.674375 7.2196875-8.26125 38.17875-5.1703125 74.570625-20.259375 105.204375-43.610625a8.29125 8.29125 0 0 1 10.9275 0.748125l34.76625 34.798125 32.390625-32.390625-34.764375-34.798125a8.326875 8.326875 0 0 1-0.748125-10.9265625c23.4159375-30.733125 38.47125-67.1240625 43.576875-105.2071875 0.553125-4.12875 4.0978125-7.2196875 8.2603125-7.2196875h49.1728125V671.62395833h-49.1728125c-4.1615625 0-7.7071875-3.0890625-8.2603125-7.2196875-5.105625-38.08125-20.161875-74.473125-43.576875-105.2053125a8.326875 8.326875 0 0 1 0.748125-10.9265625l34.764375-34.7971875-32.390625-32.3596875-34.76625 34.798125c-2.95875 2.95875-7.5778125 3.25125-10.9275 0.748125-30.7003125-23.415-67.0903125-38.47125-105.204375-43.57875-4.1315625-0.55125-7.2196875-4.0978125-7.2196875-8.2584375v-49.1728125h-45.789375v49.1728125c0 4.160625-3.09 7.7071875-7.2196875 8.2584375-38.1140625 5.1075-74.5059375 20.16375-105.2053125 43.57875a8.3325 8.3325 0 0 1-10.9275-0.748125l-34.7653125-34.764375-32.390625 32.35875 34.764375 34.79625a8.3278125 8.3278125 0 0 1 0.748125 10.9265625c-23.3165625 30.60375-38.4065625 66.99375-43.5778125 105.20625-0.5859375 4.1296875-4.0978125 7.2196875-8.2603125 7.2196875h-49.171875v45.7565625h49.171875c4.1625 0 7.708125 3.0909375 8.2603125 7.2196875 5.105625 38.083125 20.1628125 74.473125 43.5778125 105.2071875a8.3278125 8.3278125 0 0 1-0.748125 10.9265625l-34.764375 34.798125 32.390625 32.356875 34.7653125-34.7953125a8.2565625 8.2565625 0 0 1 10.9275-0.748125c30.63375 23.38125 66.9928125 38.47125 105.2053125 43.6415625 4.1296875 0.586875 7.2196875 4.0978125 7.2196875 8.26125v49.171875z"
	      fill="#040000" p-id="3285"></path>
	<path d="M506.286875 694.55239583c0 98.7-80.000625 178.734375-178.7353125 178.734375-98.73375 0-178.7353125-80.034375-178.7353125-178.734375 0-98.7346875 80.0015625-178.7690625 178.7353125-178.7690625 98.7346875 0 178.7353125 80.0334375 178.7353125 178.7690625z"
	      fill="#FFFFFF" p-id="3286"></path>
	<path d="M327.5515625 881.61177083c-103.156875 0-187.06125-83.9034375-187.06125-187.059375 0-103.156875 83.904375-187.0940625 187.06125-187.0940625s187.0603125 83.9371875 187.0603125 187.0940625c0 103.1559375-83.9034375 187.059375-187.0603125 187.059375z m0-357.5025c-93.9534375 0-170.4103125 76.4559375-170.4103125 170.443125 0 93.9534375 76.456875 170.409375 170.4103125 170.409375s170.4103125-76.4559375 170.4103125-170.409375c-0.0009375-93.9871875-76.456875-170.443125-170.4103125-170.443125z"
	      fill="#040000" p-id="3287"></path>
	<path d="M318.1859375 571.75208333h12.4875v122.799375h-12.4875z m15.6103125 124.846875h122.799375v12.52125H333.79625z"
	      fill="#040000" p-id="3288"></path>
	<path d="M358.4459375 702.87739583c0 18.7640625-15.219375 33.9853125-34.01625 33.9853125-18.796875 0-34.0171875-15.22125-34.0171875-33.9853125 0-18.796875 15.2203125-34.01625 34.0171875-34.01625 18.796875 0 34.01625 15.219375 34.01625 34.01625z"
	      fill="#35AE72" p-id="3289"></path>
</svg>