<?xml version="1.0" standalone="no"?><!DOCTYPE svg PUBLIC "-//W3C//DTD SVG 1.1//EN" "http://www.w3.org/Graphics/SVG/1.1/DTD/svg11.dtd">
<svg t="1742993675736" class="icon" viewBox="0 0 1024 1024" version="1.1" xmlns="http://www.w3.org/2000/svg" p-id="2694"
     width="200" height="200"><path d="M992 809.33333333V713.33333333s-66-12-66-18c0-6 0-12-6-12 6-12 42-42 42-42l-72-96s-48 36-60 42c-6 0-12-6-18-6-6 0-24-60-24-60H692s-12 60-24 60c-6 0-12 6-18 6-12-6-60-42-60-42L524 641.33333333s36 36 36 48c0 6-6 6-6 12-18 6-60 12-60 12v96s54 12 60 18c0 6 6 12 6 18-12 12-42 36-42 36l72 96s60-36 66-42c6 0 12 6 12 6 6 0 18 60 18 60h96s6-54 12-54 12-6 18-6c6 6 48 42 48 42l96-96s-36-24-48-36c0-6 6-12 6-18 18-12 78-24 78-24z m-246 72c-66 0-120-54-120-120s54-120 120-120 120 54 120 120-54 120-120 120zM434 515.33333333c114 0 228-108 228-222C662 179.33333333 554 65.33333333 440 65.33333333 326 65.33333333 212 185.33333333 212 299.33333333s108 216 222 216z m48 48H260c-60 0-144 30-168 114-30 84-30 84-54 168-12 42 192 66 396 66 66 0 24-54 24-120-6-162 126-228 24-228z" fill="#409EFF" p-id="2695"></path></svg>