<?xml version="1.0" standalone="no"?><!DOCTYPE svg PUBLIC "-//W3C//DTD SVG 1.1//EN" "http://www.w3.org/Graphics/SVG/1.1/DTD/svg11.dtd">
<svg t="1742988287166" class="icon" viewBox="0 0 1024 1024" version="1.1" xmlns="http://www.w3.org/2000/svg"
     p-id="12659"
     width="200" height="200"><path d="M971.78965333 365.41098666c-14.80021333-8.30122667-27.19744-4.25984-49.58890666 11.08650666-2.73066667 1.91146667-46.36672 28.45354667-74.21952 45.49290667V345.75018666c-0.05461333-3.2768-0.10922667-6.5536-0.21845334-9.8304-1.69301333-45.16522667-31.56650667-72.25344-79.84469333-72.30805334-189.12597333-0.16384-378.25194667-0.16384-567.37792 0-49.04277333 0.05461333-77.93322667 27.19744-77.98784 73.07264-0.16384 152.15274667-0.16384 369.34997333 0 521.44810667 0.05461333 46.96746667 28.83584 73.67338667 79.51701333 73.67338667 188.416 0.10922667 376.832 0.10922667 565.19338667 0 48.55125333-0.05461333 78.58858667-26.70592 80.50005333-71.65269334 0.10922667-2.29376 0.16384-4.58752 0.21845334-6.93589333v-54.8864a1753.63413333 1753.63413333 0 0 1-0.10922667-17.47626667c0.05461333 0 0.05461333 0.05461333 0.10922667 0.05461334v-1.31072c29.87349333 20.91690667 68.53973333 47.95050667 74.82026666 52.26496 24.90368 17.2032 40.68693333 18.89621333 56.96170667 3.60448a39.20145067 39.20145067 0 0 0 12.39722667-28.672V400.14506666c0-14.03562667-7.42741333-27.47050667-20.37077334-34.73408z" fill="#9bc6fc" p-id="12660"></path><path d="M348.32384 501.67125332m-152.15274667 0a152.15274667 152.15274667 0 1 0 304.30549334 0 152.15274667 152.15274667 0 1 0-304.30549334 0Z" fill="#FEC963" p-id="12661"></path><path d="M677.42378667 741.58762666H495.67061333c-21.13536 0-38.22933333 17.09397333-38.22933333 38.22933333s17.09397333 38.22933333 38.22933333 38.22933333h181.75317334c21.13536 0 38.22933333-17.09397333 38.22933333-38.22933333s-17.14858667-38.22933333-38.22933333-38.22933333zM834.43712 481.73738666c-21.13536 0-38.22933333 17.09397333-38.22933333 38.22933333v119.11168c0 21.13536 17.09397333 38.22933333 38.22933333 38.22933333s38.22933333-17.09397333 38.22933333-38.22933333V519.96671999c0-21.13536-17.09397333-38.22933333-38.22933333-38.22933333z" fill="#FEC963" p-id="12662"></path><path d="M973.59189333 282.39871999c-31.29344-18.89621333-57.99936-2.62144-80.39082666 14.03562667-2.4576 1.74762667-21.79072 14.52714667-40.68693334 26.97898666v-27.14282666l-0.05461333-2.23914667c-0.05461333-3.22218667-0.10922667-6.44437333-0.21845333-9.66656-2.29376-65.37216-45.54752-107.64288-110.31893334-107.64288-216.2688-0.16384-415.60746667-0.16384-609.37557333 0-65.69984 0.05461333-108.24362667 42.98069333-108.29824 109.39050667-0.16384 168.7552-0.16384 379.12576 0 562.7904 0.05461333 67.88437333 42.16149333 110.10048 109.93664 110.15509333 99.72394667 0.05461333 200.64938667 0.10922667 302.06634667 0.10922667s203.32544-0.05461333 304.96085333-0.10922667c65.86368-0.05461333 108.35285333-40.96 111.02890667-106.82368 0.10922667-2.78528 0.21845333-5.62517333 0.27306666-8.41045333V828.64127999c19.93386667 15.07328 36.97322667 27.96202667 41.06922667 31.02037333 13.54410667 10.10346667 54.77717333 40.90538667 93.3888 1.74762667 12.94336-13.16181333 20.37077333-31.56650667 20.37077333-50.51733333V343.78410666c0-25.28597333-12.94336-48.76970667-33.75104-61.38538667z m-15.40096 528.384c0 6.17130667-2.29376 11.96032-6.28053333 16.00170667-5.67978667 5.7344-8.51968 8.62890667-28.94506667-6.60821334-4.31445333-3.22218667-22.88298667-17.25781333-44.12757333-33.31413333l-36.09941333-27.30666667a24.592384 24.592384 0 0 0-25.77749334-2.40298666 24.55415467 24.55415467 0 0 0-13.59872 20.86229333c-0.10922667 0.87381333-0.16384 1.69301333-0.16384 2.56682667 0 7.15434667 0.05461333 13.98101333 0.10922667 20.26154666v41.99765334c-0.05461333 2.4576-0.16384 4.9152-0.21845333 7.31818666-1.58378667 38.99392-22.99221333 59.63776-61.93152 59.63776-203.32544 0.16384-407.52469333 0.16384-606.97258667 0-40.90538667-0.05461333-60.78464-19.98848-60.83925333-61.00309333-0.16384-183.61002667-0.16384-393.98058667 0-562.68117333 0.05461333-39.97696 19.98848-60.23850667 59.20085333-60.29312 98.85013333-0.10922667 199.12021333-0.10922667 302.39402667-0.10922667 99.1232 0 201.03168 0.05461333 306.92693333 0.10922667 38.66624 0.05461333 59.85621333 20.86229333 61.22154667 60.23850666 0.10922667 2.89450667 0.16384 5.78901333 0.16384 8.68352l0.05461333 74.38336c0 9.06581333 4.96981333 17.36704 12.94336 21.62688s17.64010667 3.82293333 25.17674667-1.14688l27.57973333-18.18624c38.55701333-25.44981333 50.95424-33.64181333 53.248-35.38944 20.20693333-15.01866667 23.10144-13.27104 25.88672-11.57802666 6.17130667 3.71370667 10.04885333 11.14112 10.04885333 19.33312v466.99861333z" fill="#474747" p-id="12663"></path><path d="M333.63285333 351.53919999c-75.31178667 0-136.58794667 61.27616-136.58794666 136.58794667s61.27616 136.58794667 136.58794666 136.58794666c75.31178667 0 136.58794667-61.27616 136.58794667-136.58794666S408.94464 351.53919999 333.63285333 351.53919999z m0 224.07850667c-48.22357333 0-87.43594667-39.21237333-87.43594666-87.43594667S285.40928 400.69119999 333.63285333 400.69119999c48.22357333 0 87.43594667 39.21237333 87.43594667 87.43594667s-39.21237333 87.49056-87.43594667 87.49056zM674.25621333 752.51029332H496.05290667c-13.59872 0-24.576 10.97728-24.576 24.576s10.97728 24.576 24.576 24.576h178.14869333c13.59872 0 24.576-10.97728 24.576-24.576s-10.97728-24.576-24.52138667-24.576zM828.59349333 493.91615999c-13.59872 0-24.576 10.97728-24.576 24.576v112.50346667c0 13.59872 10.97728 24.576 24.576 24.576s24.576-10.97728 24.576-24.576v-112.50346667a24.576 24.576 0 0 0-24.576-24.576z" fill="#474747" p-id="12664"></path></svg>